<svg width="200" height="100" xmlns="http://www.w3.org/2000/svg">
  <text x="0" y="10" font-size="10px">linear(0 0%,</text>
  <text x="0" y="20" font-size="10px">  0.01 11.76%,</text>
  <text x="0" y="30" font-size="10px">  0.08 22.79%,</text>
  <text x="0" y="40" font-size="10px">  0.2 27.94%,</text>
  <text x="0" y="50" font-size="10px">  0.67 28.68%,</text>
  <text x="0" y="60" font-size="10px">  0.31 36.03%,</text>
  <text x="0" y="70" font-size="10px">  0.68 38.24%,</text>
  <text x="0" y="80" font-size="10px">  0.52 43.38%,</text>
  <text x="0" y="90" font-size="10px">  0.76 45.59%,</text>
  <text x="0" y="100" font-size="10px">  0.73 52.21%,</text>
  <text x="0" y="110" font-size="10px">  0.92 58.09%,</text>
  <text x="0" y="120" font-size="10px">  0.84 67.65%,</text>
  <text x="0" y="130" font-size="10px">  0.95 77.21%,</text>
  <text x="0" y="140" font-size="10px">  1 100%  );</text>
  <path transform="translate(100 0)" stroke-width="2px" fill="transparent" stroke="black" d="M0 100 L0 100 L22.70 95 L32.30 84 L41.91 92 L47.79 73 L54.41 76 L56.62 52 L61.76 68 L63.97 31 L71.32 67 L72.06 20 L77.21 8 L88.24 1"/>
</svg>













