<svg id="Livello_1" data-name="Livello 1" xmlns="http://www.w3.org/2000/svg" viewBox="0 0 1080 540"><defs><style>.cls-1{fill:#fafafd;}.cls-2{fill:#0d0f20;}.cls-3{fill:#ffaf2e;}.cls-4{fill:#feca80;}</style></defs><rect class="cls-1" x="-1132.44" y="-819.29" width="3464.53" height="2176.55"/><polygon class="cls-2" points="810.2 442.97 805.61 435.43 805.61 429.05 819.39 411.94 815.89 407.49 797.45 407.69 781.35 437.01 767.7 437.78 758.95 391.15 758.95 384.75 782.49 370.5 790.59 344.88 807.46 345.17 836.78 368.9 837.42 379.41 845.27 390.75 858.1 396.5 862.56 415.57 862.56 421.91 848.78 433.21 825.51 446.48 810.2 442.97"/><path class="cls-2" d="M791.2,345.72l15.95.28L836,369.32l.63,10.38,8.12,11.72,12.66,5.67,4.34,18.57v5.85l-13.42,11-22.92,13.07-14.65-3.35-4.29-7.05v-5.85l14-17.39-4.17-5.3-19.34.21L780.84,436.2l-12.46.7-8.6-45.82v-5.85l23.42-14.18,8-25.33M790,344l-.37,1.19L781.79,370,758.92,383.8l-.81.48v7l0,.15,8.6,45.83.27,1.44,1.46-.08,12.47-.7.92-.06.45-.81,15.63-28.48,17.54-.19,2.85,3.61L805.14,428.3l-.37.46v6.9l.25.4,4.28,7.05.37.6.68.16L825,447.22l.63.15.57-.33L849.13,434l.12-.07.11-.09,13.42-11,.62-.51v-6.83l0-.19L859,396.71l-.19-.81-.76-.33-12.23-5.48-7.59-11-.61-9.91,0-.74L837,368,808.21,344.7l-.45-.36h-.58l-15.95-.28L790,344Z"/><path class="cls-3" d="M836,369.32l.63,10.38,8.12,11.72,12.66,5.67,4.34,18.57-13.42,11-22.92,13.07-14.65-3.35-4.29-7.05,16.35-20.28-6.5-8.26L797,401l-16.11,29.34-12.46.7-8.6-45.82,23.42-14.18,8-25.33,15.95.28Z"/><path class="cls-1" d="M787.42,357.67l-2.51,8,1.59.51,2.52-8-1.6-.51Zm-3.77,12-.29.89h0v0h0v0h0v.06h0v0h0v0h0v0h0l0,.07h0l0,.06h0l-5.87,3.56.86,1.42,5.87-3.55.54-.32.19-.6.45-1.43-1.59-.5Zm-9.9,7.14-7.14,4.33.86,1.43,7.15-4.33-.87-1.43ZM763,383.26l-.66.4h0l-.12.07h0l-.05,0h-.11l-.13.08h-.21l0,0h0l-.06,0h0l-.07,0h0l-.09.05h0l-.07.05H761l-.07,0h0l-.07,0h0l-.06,0h-.05l0,0h0l-.07,0h0l-.13.08h0l-.13.08h0l-.06,0h0l-.06,0h0l-.37.22h0l-.14.09h0v0h0v0h0v0h0v.06h0v0h0l.77,4.11,1.65-.31-.63-3.34,2.26-1.37-.87-1.43Zm0,10.24-1.65.31,1.54,8.21,1.65-.3L763,393.5Zm2.31,12.32-1.65.31,1.55,8.21,1.64-.3-1.54-8.22Zm2.31,12.32-1.64.31s.72,3.88,1.18,6.31h0l.06.32h0l0,.15h0v0h0v0h0v0h0v0h0v0h0v0h0v0h0v0h0v0h0v0h0v.05h0l0,.09h0v0h0l.05.28h0v0h0l.09.45,1.64-.31-1.54-8.21Zm8.68,10.79-8.05.45.07,1.38h0l-.07-1.38.07,1.38h0l0,.28h0l8.06-.45-.1-1.67Zm6.94-6.5-3.9,7.11,1.22.68h0l-1.22-.68,1.22.68v.14h.23l0-.06h.06v0h0l0-.06h0l3.76-6.85-1.47-.8Zm6-11-4,7.32,1.46.81,2.15-3.92,1.87-3.41-1.46-.8Zm6-11-4,7.33,1.46.8,4-7.32-1.46-.81Zm13.83-1.25-8.35.09V401l8-.08h.37l0-1.67Zm7.91-.08h-.82l-2.91,0,0,1.67,2.91,0h0l.09.12h0l3.26,4.15,1.32-1-3.37-4.28-.51-.64Zm6.46,8.21-1.31,1,.51.65h0l-.2.25h0l-.23.29h0l-.07.08h0l-.06.07h0v0h0l0,0h0l0,0h0v0h0l0,0H822l0,.05h0v0h0l0,0h-.05l0,0h0v0h0l0,0h0l0,.05h0l0,0h0l0,0h0l-3.51,4.35,1.3,1.05,4.68-5.81.84-1-.83-1-.55-.7Zm-8.06,10.79-3.32,4.12h0l0,0,0,0h0l0,0h0v0h0l0,0h0l-1.79,2.21,1.31,1.05,5.24-6.51-1.3-1.05Zm-7.87,9.76-1.14,1.42h0l3.37,5.54,1.43-.87-2.76-4.53.44-.55-1.3-1.05Zm5.83,7.42-.37,1.63h0l.09,0h0l.1,0h.15l.08,0h.1l7.63,1.74.37-1.63-8.15-1.86Zm18.29-1.11-7.19,4.1.77,1.35h0l-.77-1.35.77,1.35,0,.08.08,0h0l.08,0h0l0,0h.13l6.93-3.95-.83-1.45ZM842.62,428l-7.25,4.14.82,1.45,7.26-4.14-.83-1.45Zm10-7-5.27,4.32-1.1.62.83,1.45,1.18-.67h0l.06-.05h0l.12-.1h0l0,0h.08l0,0h0l0,0h.14l4.9-4L852.62,421Zm8.62-7.38-1.63.38.25,1.06-4,3.29,1.06,1.29,3.58-2.93h0l0,0h0l0,0h0l0,0h0l0,0h.14l0,0h.13l0,0h.08l0,0h0l0,0h0l.14-.12h0l.13-.11h0l.11-.09h0l.2-.17h0l-.48-2.07Zm-2.86-12.2-1.62.38,1.9,8.13,1.63-.38-1-4.4h0v-.06h0l-.86-3.66ZM850,393.77l-.69,1.53,7.42,3.32.56-1.26h0l-.56,1.26.56-1.26.17,0,0-.22h-.19L850,393.77Zm-9.11-7.93-1.38,1,.39.55,3.47,5,.27.39.42.19,1.44.64.68-1.53-1.35-.6h-.08l-3.81-5.5,0-.08Zm-4.57-11.19-1.67.1.31,5.05,0,.46.27.39,1.87,2.71,1.38-.95-1.09-1.58h0l-.77-1.11h0v-.22h0l0-.25h0v0h0v0h0v0h0v0h0v0h0v0h0v0h0v-.09h0v0h0v0h0v0h0v0h0v0h0v-.1h0v0h0v-.15h0l-.22-3.6Zm-5.92-9.86-1,1.3,5,4.06,0,.43.46,0,.08.07.06-.08h0l-.06.08.06-.08,1.07-.06-.07-1h0v0h0v0h0v0h0l-.07-.05h0l0,0h0l0,0h0l0,0h0l-5.42-4.38Zm-9.74-7.88-1,1.3,6.5,5.25,1-1.3-6.5-5.25ZM810.89,349l-1,1.3,6.49,5.26,1-1.3-5.73-4.64h0l0,0h0l0,0h-.08l0,0h0l0,0h0l0,0h0l-.07-.06h0l-.07-.06h0l0,0h0l0,0h0l-.07-.05h0l-.21-.18Zm-11.47-3.15,0,1.67,7.16.12,0,0,0,0h.51l0-.65h0l0,.65,0-.65.5-.62-.49-.4h-.3l-7.43-.13Zm-8.22-.15-.11.35h0c-.07.21-.16.52-.28.9h0c-.12.37-.26.81-.4,1.27h0c-.07.23-.14.47-.22.71h0l-.06.18h0l-.06.18h0l0,.09h0l0,.08v0h0v0h0l0,0h0v0h0v.05h0v0h0v0h0l0,.08h0l0,.08v0l-.05.17h0l-.06.18h0l0,.07h0l0,.09h0l-.06.18h0l-.05.17h0l0,.09h0v0h0v0h0v0h0v0h0v0h0v0h0v0h0v0l0,.07h0v0h0v.06h0v0h0v0h0l0,.08h0v0h0l0,.07h0l0,.08h0l0,.08h0v0h0v0h0v0h0l0,0h0v0h0v0h0v0l0,.06h0v0h0v0h0v0h0v0h0v0h0v.05h0v0h0v0h0v0h0v0h0v0h0v0h0v0h0v.05h0v0h0v0h0v0h0v0h0v0h0v0h0v0h0l0,.07h0v0h0v0h0l1.6.5,2.14-6.77,2.8,0,0-1.67-4-.07Z"/><path class="cls-2" d="M745.16,120.52l19.41-21.68,79.85-4.43,21.68,19.4,3.6,64.83-14.19.79-1.28-23.19a11.2,11.2,0,0,0-11.17-10.58l-.63,0a11.21,11.21,0,0,0-10.55,11.8l1.29,23.19-11.46.63-1.28-23.19a11.19,11.19,0,0,0-11.16-10.57c-.21,0-.42,0-.63,0a11.2,11.2,0,0,0-10.56,11.79l1.29,23.19-11.46.64L786.62,160a11.18,11.18,0,0,0-11.15-10.58l-.63,0a11.18,11.18,0,0,0-10.56,11.8l1.28,23.19-16.8.93Z"/><path class="cls-3" d="M747.74,121.42l18-20.12L843.51,97l20.13,18,3,53.64-9.15.51-1.15-20.67a13.71,13.71,0,0,0-13.68-13l-.77,0A13.73,13.73,0,0,0,828.94,150l1.15,20.67-6.42.36-1.15-20.68a13.71,13.71,0,0,0-13.68-13c-.25,0-.51,0-.77,0a13.71,13.71,0,0,0-12.93,14.45l1.15,20.68-6.43.35-1.14-20.67a13.72,13.72,0,0,0-13.68-13l-.77,0a13.73,13.73,0,0,0-12.93,14.46l1.15,20.67-11.78.65Z"/><path class="cls-1" d="M843.24,97.77l9.82,8.8,9.82,8.79,2.92,52.54-7.6.42-1.11-19.9a14.48,14.48,0,0,0-14.45-13.68c-.27,0-.54,0-.82,0A14.5,14.5,0,0,0,828.17,150l1.1,19.9-4.87.27-1.11-19.9a14.48,14.48,0,0,0-14.45-13.69l-.81,0a14.5,14.5,0,0,0-13.66,15.27l1.1,19.9-4.87.27-1.11-19.9A14.48,14.48,0,0,0,775,138.49c-.27,0-.54,0-.81,0a14.49,14.49,0,0,0-13.66,15.27l1.1,19.9-10.22.57-2.92-52.55,17.58-19.65,77.13-4.28m.55-1.58-78.4,4.35L747,121.15l3,54.73,13.32-.74-1.19-21.45a12.94,12.94,0,0,1,12.21-13.63c.24,0,.48,0,.72,0a12.93,12.93,0,0,1,12.9,12.22l1.19,21.45,8-.44-1.19-21.45a13,13,0,0,1,12.21-13.64l.72,0a12.94,12.94,0,0,1,12.9,12.23l1.19,21.44,8-.44-1.19-21.45a12.92,12.92,0,0,1,12.19-13.63c.24,0,.49,0,.73,0a12.94,12.94,0,0,1,12.91,12.22L856.74,170l10.69-.6-3-54.73L843.79,96.19Z"/><path class="cls-2" d="M746.71,296.55l-.54-.47L743,253.4l-1-13,8.88-10.3,57.68-4.26.12,1.74a6.4,6.4,0,0,0,6.35,5.91l.48,0a6.39,6.39,0,0,0,5.89-6.83l-.12-1.74,30-2.22,10.3,8.88,1,13,3.15,42.69-8.88,10.3-30,2.22-.13-1.74a6.4,6.4,0,0,0-6.35-5.91l-.48,0A6.38,6.38,0,0,0,814,299l.13,1.74L756.46,305Z"/><path class="cls-1" d="M863.37,278.59c-3.1,3.59-4.83,5.61-7.94,9.2l-27.55,2a8.12,8.12,0,1,0-16.2,1.2l-55.22,4.08-9.2-7.93L743.84,241l7.94-9.21L807,227.67a8.12,8.12,0,0,0,8.09,7.53l.61,0a8.12,8.12,0,0,0,7.5-8.7l27.56-2,9.2,7.94Z"/><path class="cls-3" d="M817.52,281a9.69,9.69,0,0,0-7.38,8.57L757,293.51l-8.23-7.09-3.32-44.93.2-.26,6.89-8,53.15-3.93a9.74,9.74,0,0,0,8.57,7.39Z"/><path class="cls-2" d="M360,117l-112.94-5.63-6.41,5.81L238.59,159l5.81,6.42,7.31.36,5.76,6.37,6.77.33,6.35-5.76,7.6.38,5.75,6.36,6.77.34,6.36-5.76,7.59.38,5.76,6.36,6.77.34,6.35-5.76,7.6.38,5.75,6.36,6.77.34,6.36-5.76,7.31.36,6.41-5.8,2.09-41.89Zm-117,1.29L248,113.8l110.94,5.53,4.46,4.93-1.29,26-120.34-6Z"/><path class="cls-1" d="M359.47,118.15l-111.94-5.58-5.67,5.14-1.75,35.2,5.13,5.68,3,.15h0l4.84.24.15-2.9,5.78-5.22,5.77.28,5.23,5.78-.14,2.89,9.69.49.14-2.9,5.77-5.22,5.78.28,5.24,5.77-.15,2.9,9.69.49.15-2.9,5.77-5.22,5.78.28,5.23,5.77-.14,2.9,9.69.49.14-2.91,5.77-5.22,5.78.29,5.24,5.77-.15,2.9,4.85.24h0l3,.15c2.21-2,3.46-3.14,5.67-5.14l1.75-35.2Zm2.61,32.1-120.34-6,1.3-26L248,113.8l110.94,5.52,4.46,4.94Z"/><polygon class="cls-1" points="268.8 157.37 268.57 162.15 263.53 166.71 258.74 166.47 254.19 161.43 254.43 156.65 259.46 152.09 264.25 152.33 268.8 157.37"/><polygon class="cls-1" points="295.28 158.69 295.04 163.47 290.01 168.03 285.22 167.79 280.67 162.75 280.9 157.97 285.93 153.41 290.72 153.65 295.28 158.69"/><polygon class="cls-1" points="321.75 160 321.51 164.79 316.48 169.34 311.69 169.1 307.14 164.07 307.38 159.29 312.41 154.73 317.2 154.97 321.75 160"/><polygon class="cls-1" points="348.23 161.32 347.99 166.1 342.95 170.66 338.17 170.42 333.61 165.39 333.85 160.61 338.88 156.05 343.67 156.29 348.23 161.32"/><polygon class="cls-3" points="363.37 124.26 358.91 119.33 247.97 113.8 243.04 118.27 241.74 144.26 362.08 150.25 363.37 124.26"/><polygon class="cls-4" points="459.54 250.29 460.7 271.1 491.51 269.39 493.13 244.64 463.1 246.31 459.54 250.29"/><path class="cls-4" d="M626.43,242.86l-1-5.42-4.41-3L533.6,251.19l-3,4.42c1.21,6.35,2.7,14.13,3.92,20.47l27.9-5.35Z"/><path class="cls-3" d="M577.73,240.78l-78.3-5.12-4,3.51c-.24,3.65-1.11,16.92-1.36,20.8l35.87,2.35-.35-6.92,3.44-5.08Z"/><path class="cls-3" d="M659.12,245.8l-4.07-3.43-88.66,7.5L563,254c.49,5.83,1.27,15,1.76,20.77l96.17-8.14Z"/><path class="cls-2" d="M661,244.85l-5.3-4.47-27.32,2.31-1.22-6.39-5.73-3.9-36.18,6.94-86.48-5.66-5.21,4.57-.29,4.46-31.06,1.73-4.62,5.16,1.87,33.54,5.16,4.63,5.86-.33,5.12,4.58,5.42-.3,4.58-5.12,6.08-.34,5.12,4.58,5.42-.3,4.58-5.12,6.08-.34,5.12,4.58,5.42-.3,4.58-5.12a28,28,0,0,1,4.93,0l.38-.34.77,0h0l.82,4.27,5.74,3.9,5.76-1.11,5.69,3.86,5.33-1,3.85-5.69,3.36-.64,4.48,3.78,5.85-.49,5.25,4.43,5.41-.46,4.42-5.25,6.07-.51,5.25,4.43,5.41-.46,4.43-5.25,6.07-.51,5.25,4.43,5.41-.46,4.43-5.25,6.07-.51,5.25,4.43,5.41-.46,4.43-5.25,5.84-.5,4.47-5.3Zm-166.5-6.14,4.61-4,82.4,5.38-49,9.4-3.89,5.74c.54,2.83,1.73,9,2.26,11.79l-1.82-.12L524.31,271l-.15,2.32-7.75-.51.15-2.32-4.12-4.69-4.62-.3-4.69,4.11-.15,2.32-3.88-.25h0l-2.42-.16-4-4.61C492.93,262.46,494.22,242.71,494.48,238.71Zm9.33,35.17c.07-.95.19-2.87.26-3.82l4.08-3.59,3.83.25,3.59,4.09c-.06.95-.19,2.87-.25,3.83-.13.11-3.85,3.38-4.09,3.58L507.4,278C507.17,277.72,503.94,274,503.81,273.88ZM480,287.15l-3.84.21-4.05-3.63c-.05-1-.16-2.87-.21-3.83l3.62-4,3.84-.21,4.05,3.62c.05,1,.16,2.88.21,3.83Zm4.48-6-.13-2.32-4.65-4.16-4.63.26-4.16,4.65.13,2.32-3.88.21h0l-2.42.13-4.57-4.09L458.56,250l4.08-4.58,30.55-1.7c-.12,1.91-1.75,26.74-1.84,28.1l3.28,3.74-2.57,2.87.13,2.32ZM501.15,286l-3.84.21-4.05-3.63c-.05-.95-.16-2.87-.21-3.83l2.22-2.48.65.75,5.86.38,2.93,3.34.06,1.2Zm21.2-1.18-3.84.21-4-3.63,0-.84,2.47-2.17,6.07.39c.3.35,2.07,2.37,2.37,2.7Zm6.23-5.43L525,275.27c.07-1,.19-2.81.25-3.83l4.09-3.59L531,268l2.11,11-.7.62Zm27.17,10.06-3.78.72-4.49-3.06c-.19-1-.54-2.79-.73-3.76l3-4.5,3.78-.73,4.5,3.06c.2,1.05.51,2.7.72,3.76C558.7,285.05,555.92,289.15,555.75,289.42Zm3.63-6.57-.43-2.28-5.17-3.5-4.55.87-3.5,5.17.44,2.28-3.82.73h0l-2.38.46-5.07-3.45c-1.71-8.92-3.6-18.77-5.32-27.72l3.44-5.08,88.17-16.9,5.08,3.45,1.13,5.91-62,5.24-4.47,5.3c.75,8.89,1.69,19.93,2.44,28.76Zm25,7.35-3.83.33L576.43,287c-.09-1.08-.23-2.73-.32-3.83l3.5-4.15,3.83-.33,3.89,3.29.27.22.32,3.82Zm21.16-1.79-3.83.32-4.15-3.5c-.08-1-.24-2.86-.32-3.83l3.5-4.15,3.83-.33,4.15,3.51c.08.95.25,2.87.33,3.82Zm21.16-1.79-3.83.32-4.15-3.5c-.09-1.05-.24-2.77-.33-3.83l3.51-4.15,3.82-.33,4.16,3.51.32,3.82C630.13,282.59,626.93,286.38,626.73,286.62Zm21.15-1.79-3.82.32-4.16-3.51-.32-3.82,3.5-4.15,3.83-.33,4.16,3.51.32,3.82Zm10.6-6.68-2.42.2h0l-3.87.32-.2-2.31-4.77-4-4.61.39-4,4.76.2,2.32-7.75.65-.19-2.31-4.78-4-4.61.39-4,4.77.19,2.31-7.74.66-.2-2.32-4.77-4-4.62.39c-.7.83-3.28,3.88-4,4.77,0,.36.16,1.91.19,2.31l-7.74.66c0-.45-.16-1.85-.2-2.32l-4.77-4-4.62.39-4,4.77.2,2.31-3.88.33h0l-2.41.21-4.68-4c-.73-8.61-1.65-19.47-2.38-28.13l3.95-4.69,89.45-7.57,4.69,4,2.38,28.13Z"/><polygon class="cls-1" points="494.63 275.51 491.35 271.77 491.51 269.39 460.7 271.1 459.54 250.29 463.1 246.31 493.13 244.64 493.19 243.67 462.64 245.37 458.56 249.94 460.12 278.13 464.69 282.22 467.11 282.09 467.11 282.09 470.99 281.88 470.86 279.56 475.02 274.91 479.65 274.65 484.3 278.81 484.43 281.13 492.19 280.7 492.06 278.38 494.63 275.51"/><path class="cls-1" d="M479.31,275.64l-3.84.21-3.62,4c0,1,.16,2.88.21,3.83l4.05,3.63,3.84-.21c.22-.26,3.5-3.91,3.62-4.06-.05-.95-.16-2.87-.21-3.83Z"/><path class="cls-1" d="M504.11,280l-2.33-2.66-5.86-.38-.65-.75-2.22,2.48c.05,1,.16,2.88.21,3.83l4.05,3.63,3.84-.21c.22-.25,3.5-3.91,3.62-4.06l-.06-1.2Z"/><path class="cls-1" d="M523,278.75l-6.07-.39c-.62.53-1.86,1.63-2.47,2.17l0,.84,4,3.63,3.84-.21,3-3.34s-2.07-2.36-2.18-2.48Z"/><path class="cls-1" d="M496.68,271.49l2.42.16h0l3.88.25.15-2.32,4.69-4.11,4.62.3,4.12,4.69-.15,2.32,7.75.51.15-2.32c.28-.24,4.6-4,4.69-4.12l1.82.12-.89-4.66L494.06,260l1-15.44.06-1c0-.63.24-3.69.29-4.39l4-3.51,78.3,5.12,3.76-.73-82.4-5.38-4.61,4c-.25,3.89-1.56,23.87-1.84,28.17Z"/><path class="cls-1" d="M515.57,270.81,512,266.72l-3.83-.25-4.08,3.59c-.07.95-.19,2.87-.25,3.82L507.4,278l3.83.25c.25-.22,3.94-3.46,4.09-3.58C515.38,273.68,515.51,271.76,515.57,270.81Z"/><path class="cls-1" d="M531,268l-1.67-.11-4.09,3.59c-.06,1-.18,2.81-.25,3.83l3.58,4.09,3.84.25.7-.62-.54-2.82C532.28,274.62,531.32,269.59,531,268Z"/><path class="cls-1" d="M562.43,270.73l-27.9,5.35c-1.21-6.33-2.71-14.12-3.92-20.47l3-4.42L621,234.45l4.41,3,1,5.42,1-.08-1.13-5.91-5.08-3.45L533,250.32l-3.44,5.08c1.72,9,3.6,18.79,5.32,27.72l5.07,3.45,2.38-.46h0l3.82-.73-.44-2.28,3.5-5.17,4.55-.87,5.17,3.5c.09.46.34,1.8.43,2.28l4-.77c0-.06-.51-5.94-.53-6.25Z"/><path class="cls-1" d="M558.08,281.15l-4.5-3.06-3.78.73-3,4.5.73,3.76c.13.1,4.23,2.88,4.49,3.06l3.77-.72,3.06-4.51c-.13-.65-.43-2.25-.56-2.89Z"/><path class="cls-1" d="M662.43,273.46l-2.38-28.13-4.69-4-89.45,7.57L562,253.63c.73,8.68,1.65,19.51,2.38,28.13l4.68,4,2.41-.21h0l3.88-.33-.2-2.31,4-4.77,4.62-.39,4.77,4c0,.48.16,1.86.2,2.32l7.74-.66c0-.41-.16-1.94-.19-2.31l4-4.77,4.62-.39,4.77,4,.2,2.32,7.74-.66-.19-2.31,4-4.77,4.61-.39,4.78,4,.19,2.31,7.75-.65-.2-2.32,4-4.76,4.61-.39,4.77,4,.2,2.31,3.87-.32h0l2.42-.2Zm-29-4.56-68.68,5.82c-.49-5.74-1.27-15-1.76-20.77l3.44-4.08,88.66-7.5,4.07,3.43,1.76,20.78Z"/><path class="cls-1" d="M587.6,282.22l-.27-.22-3.89-3.29-3.83.33-3.5,4.15c.09,1.11.23,2.74.32,3.83l4.15,3.51,3.83-.33,3.51-4.16c-.06-.68-.2-2.31-.25-3Z"/><path class="cls-1" d="M604.6,276.92l-3.83.33-3.5,4.15c.08,1,.24,2.86.32,3.83l4.15,3.5,3.83-.32,3.51-4.16c-.08-.95-.25-2.87-.33-3.82Z"/><path class="cls-1" d="M625.75,275.13l-3.82.33-3.51,4.15c.09,1.06.24,2.78.33,3.83l4.15,3.5,3.83-.32c.21-.26,3.38-4,3.5-4.16l-.32-3.82Z"/><path class="cls-1" d="M646.91,273.34l-3.83.33-3.5,4.15.32,3.82,4.16,3.51,3.82-.32,3.51-4.16-.32-3.82Z"/><polygon class="cls-1" points="331.96 235.06 333.86 236.63 335.73 236.64 332.33 233.84 305.33 236.47 316.86 236.53 331.96 235.06"/><path class="cls-4" d="M368.54,243.23l-4-4.08-108.8-.6-4.63,4.58-.14,25.5,24.54.13S348.79,244.07,368.54,243.23Z"/><polygon class="cls-3" points="331.96 235.06 316.86 236.53 333.86 236.63 331.96 235.06"/><polygon class="cls-3" points="219.53 250.64 222.01 276.01 248.54 273.43 248.71 243.17 223.68 245.61 219.53 250.64"/><path class="cls-3" d="M395.12,249.08l-4.8-4.41-108.7,4.59-4.41,4.8c0,.84.69,16.36.7,16.51l.35,8.32,0,.63,117.91-5Z"/><path class="cls-2" d="M227.62,296.18l7.14-.7,6.49,5.34,6.61-.64,5.33-6.49,7.41-.73,6.49,5.34,6.61-.64,2.84-3.47v0l6.24,5.73,7.17-.3,6.19,5.69,6.63-.28,5.68-6.19,7.44-.31,6.19,5.68,6.63-.28,5.68-6.18,7.44-.32,6.19,5.69,6.63-.28,5.68-6.19,7.44-.31,6.19,5.68,6.63-.28,5.68-6.18,7.17-.31,5.73-6.24-1.73-41-6.24-5.73-19.76.83v-.28l-6-6-27.9-.15-4.88-4c-19.4,2.8-58.41,4.58-78,3.57l-4.51,4.47-27.75,2.7-5.38,6.55,4,40.88Zm18.72-1.54-4.68.46-5.13-4.23c-.11-1.16-.34-3.5-.45-4.67l4.21-5.13,4.68-.46,5,4.09.17.17c.11,1.16.34,3.48.45,4.64Zm5.17-7.58-.09-.86.79.79ZM276,280.82c.08,1.85.17,4,.25,5.86l-3,3-4.7,0-4.67-4.73c0-1.33,0-3.37,0-4.69l4.72-4.68,4.7,0,2.57,2.6Zm25.58,18.64-4.7.2-4.89-4.5c-.05-1.32-.14-3.36-.2-4.69l4.5-4.9h.28l4.41-.18,4.9,4.5c.05,1.16.15,3.52.2,4.68Zm25.94-1.1-4.7.2-4.89-4.5c-.05-1.3-.14-3.37-.19-4.68l4.49-4.9,4.69-.2,4.9,4.5c.06,1.31.14,3.36.2,4.69Zm25.94-1.09-4.7.2-4.89-4.5c-.05-1.17-.14-3.52-.19-4.69l4.49-4.9,4.69-.19,4.9,4.5.2,4.68Zm25.94-1.09-4.69.19-4.9-4.5c-.05-1.16-.14-3.52-.19-4.68l4.49-4.9,4.69-.2,4.9,4.5.2,4.69Zm11.38-52.71,5.52,5.08L397.74,283l-5.07,5.52-3,.12h0l-4.75.2-.12-2.84-5.62-5.16-5.66.24-5.17,5.62.12,2.83L359,290v-.16l-.11-2.68L353.28,282l-5.66.24-5.17,5.61.12,2.84-9.49.4-.12-2.84-5.63-5.16-5.66.24c-1.54,1.69-3.62,3.94-5.16,5.62,0,.13.12,2.8.12,2.83l-.88,0-8.61.36c0-.22-.11-2.64-.12-2.83l-5.63-5.16-5.66.23c-1.58,1.73-3.57,3.9-5.16,5.62,0,.19.12,2.72.12,2.84l-4.74.2h0l-3,.13-5.52-5.08c-.44-10.38-1-24-1.46-34.49l5.07-5.52Zm-58.43-9.63,3.4,2.8-30.4-.17Zm-77.11,3.53L365,238l5.14,5.2L280.54,247l-5.73,6.24c.23,5.27.77,18.13,1,23.21l-2-2-5.67,0-5.42,5.37c0,.67,0,2.15,0,2.84l-4.75,0h-3l-5.27-5.34c0-1.55.18-32,.19-34.52Zm-32.15,7.11L248.9,242l-.19.18c0,7-.18,33.25-.22,39.84l-3.16-2.6-5.63.55-4.85,5.89.28,2.83-4.73.46h0l-3,.29-5.79-4.77-3.35-34.35Z"/><polygon class="cls-1" points="251.51 287.06 252.21 286.99 251.42 286.2 251.51 287.06"/><polygon class="cls-1" points="239.7 279.94 245.33 279.39 248.49 281.99 248.54 273.43 222.01 276.01 219.53 250.64 223.68 245.61 248.71 243.17 248.71 242.15 248.9 241.97 223.07 244.48 218.31 250.28 221.66 284.63 227.45 289.4 230.4 289.11 230.4 289.12 235.13 288.66 234.85 285.83 239.7 279.94"/><path class="cls-1" d="M249.94,284.7l-5-4.09-4.68.46-4.21,5.13c.11,1.17.34,3.51.45,4.67l5.13,4.23,4.68-.46,4.22-5.13c-.11-1.16-.34-3.48-.45-4.64Z"/><path class="cls-1" d="M273.79,274.37l2,2c-.06-1.46-.26-6.26-.32-7.64l-24.54-.13.14-25.5,4.63-4.58,108.8.6,4,4.08,1.59-.06L365,238l-109.77-.6-5.33,5.27c0,2.63-.18,32.9-.19,34.52L255,282.5h3l4.75,0c0-.69,0-2.17,0-2.84l5.42-5.37Z"/><path class="cls-1" d="M273.3,275.55l-4.7,0-4.72,4.68c0,1.31,0,3.37,0,4.69l4.67,4.73,4.7,0,3-3c-.12-2.71-.25-5.82-.36-8.53Z"/><path class="cls-1" d="M397.74,283l-1.46-34.49-5.52-5.08L281.08,248.1,276,253.62c.45,10.53,1,24.07,1.46,34.49l5.52,5.08,2.95-.13h0l4.74-.2c0-.11-.11-2.66-.12-2.84,1.59-1.72,3.58-3.89,5.16-5.62l5.66-.23,5.63,5.16c0,.16.11,2.64.12,2.83l9.49-.4s-.11-2.72-.12-2.83l5.17-5.62,5.65-.24,5.63,5.16.12,2.84,9.49-.4-.12-2.84,5.17-5.61,5.66-.24,5.62,5.16.11,2.68V290l9.49-.4-.12-2.83,5.17-5.62,5.66-.24,5.62,5.16.12,2.84,4.75-.2h0l3-.12Zm-26.47-7.44-93,3.92c-.28-6.44-.8-18.91-1.08-25.46l4.41-4.8,108.7-4.59,4.8,4.41,1.08,25.47Z"/><path class="cls-1" d="M301,285.38l-4.41.18h-.28l-4.5,4.9c.06,1.26.14,3.27.2,4.52v.17l4.89,4.5,4.7-.2,4.5-4.9-.2-4.68C304.45,288.58,302.37,286.66,301,285.38Z"/><path class="cls-1" d="M326.9,284.28l-4.69.2-4.49,4.9c0,1.32.14,3.38.19,4.68l4.89,4.5,4.7-.2,4.5-4.89c-.06-1.33-.14-3.37-.2-4.69Z"/><path class="cls-1" d="M352.84,283.19l-4.69.19-4.49,4.9c0,1.17.14,3.52.19,4.69l4.9,4.5,4.69-.2,4.5-4.9-.2-4.68Z"/><path class="cls-1" d="M378.78,282.09l-4.69.2-4.49,4.9c0,1.16.14,3.52.19,4.68l4.9,4.5,4.69-.19,4.5-4.9-.2-4.69Z"/><polygon class="cls-4" points="601.11 118.46 601.12 118.4 596.65 113.46 485.71 107.94 480.78 112.41 479.49 138.4 507.23 139.78 601.11 118.46"/><path class="cls-3" d="M630.43,150.89l-.63-26L625,120.29l-111,2.7-4.59,4.82c.15,6.42.47,19.56.63,26Z"/><path class="cls-2" d="M489.46,160l5.75,6.36,6.77.34,5.77-5.23.18,7.37,6.27,6,7.32-.18,6.21,5.92,6.78-.17,5.91-6.21L548,174l6.21,5.91,6.78-.16,5.91-6.21,7.6-.19,6.21,5.92,6.77-.17,5.92-6.21,7.6-.18,6.21,5.91,6.77-.16,5.91-6.21,7.33-.18,6-6.27-1-41.92-6.26-6-22.39.54,0-.87-5.8-6.42-112.94-5.62-6.41,5.81-2.08,41.88,5.8,6.42Zm11.82.89-4.79-.24-4.55-5c.05-1.19.17-3.59.23-4.78l5-4.56,4.79.24,4.56,5-.24,4.78Zm32.09,13.75-4.79.11L523.67,170c0-1.21-.09-3.57-.12-4.79l4.68-4.91,4.79-.12c1.19,1.13,3.71,3.54,4.92,4.68,0,1.2.08,3.6.11,4.79Zm26.5-.65-4.79.12c-.31-.29-4.74-4.52-4.92-4.68,0-1.27-.08-3.52-.11-4.79l4.68-4.92,4.79-.12,4.92,4.69c0,1.19.08,3.59.11,4.79Zm26.5-.64-4.8.11-4.91-4.68c0-1.32-.08-3.48-.11-4.79l4.67-4.91,4.58-.12H586l4.92,4.68c0,1.34.08,3.44.11,4.79Zm26.5-.65-4.8.12c-.3-.29-4.73-4.52-4.91-4.68,0-1.2-.08-3.6-.11-4.79l4.67-4.92,4.8-.12,4.91,4.69.12,4.79Zm12.58-53.59,5.54,5.28.86,35.23-5.28,5.55-3,.07h0l-4.85.12-.08-2.9L613,157.06l-5.78.14-5.37,5.64.07,2.9-9.7.23c0-.58-.06-2.29-.07-2.9l-5.65-5.37-5.78.14-5.37,5.64c0,.25.06,2.59.07,2.9l-9.7.24s-.07-2.87-.07-2.9L560,158.35l-5.78.14-5.37,5.64.07,2.9-9.7.23-.07-2.9L533.48,159l-5.78.14-5.37,5.64.07,2.9-4.85.12h0l-3,.08L509,162.57c-.25-10.33-.61-24.86-.86-35.23l5.28-5.54ZM479.6,111.85l5.67-5.14,111.94,5.58,5.14,5.67,0,.47-89.44,2.18-6,6.27c.15,5.93.44,18,.58,23.88l-4.95-5.47-5.77-.29L491,150.23l-.14,2.9-4.85-.25h0l-3-.15-5.13-5.68Z"/><polygon class="cls-1" points="479.49 138.4 480.78 112.41 485.71 107.94 596.65 113.46 601.12 118.4 601.11 118.46 602.32 118.43 602.35 117.96 597.21 112.29 485.27 106.71 479.6 111.85 477.85 147.05 482.98 152.73 486 152.88 486 152.88 490.85 153.13 490.99 150.23 496.77 145 502.54 145.29 507.5 150.76 507.23 139.78 479.49 138.4"/><path class="cls-1" d="M497.2,146.23l-5,4.56c-.06,1.19-.18,3.59-.23,4.78l4.55,5,4.79.24,5-4.56.24-4.78-4.56-5Z"/><path class="cls-1" d="M631,124.35l-5.54-5.28-24.4.59-87.64,2.14-5.28,5.54c.25,10.38.61,24.89.86,35.23l5.54,5.29,3-.08h0l4.85-.12-.07-2.9,5.37-5.64,5.78-.14,5.65,5.37.07,2.9,9.7-.23-.07-2.9,5.37-5.64,5.78-.14,5.65,5.37c0,.05.07,2.85.07,2.9l9.7-.24c0-.33-.07-2.63-.07-2.9l5.37-5.64,5.78-.14,5.65,5.37c0,.62,0,2.31.07,2.9l9.7-.23-.07-2.9,5.37-5.64,5.78-.14,5.64,5.37.08,2.9,4.85-.12h0l3-.07,5.28-5.55ZM510,153.82c-.16-6.47-.48-19.58-.63-26l4.59-4.82,87-2.12,2.42-.06,21.57-.52,4.82,4.58.63,26Z"/><path class="cls-1" d="M535.15,162.24l-2.13-2-4.79.12-4.68,4.91c0,1.22.09,3.57.12,4.79l4.91,4.68,4.79-.11,4.68-4.92c0-1.19-.08-3.59-.11-4.79Z"/><path class="cls-1" d="M559.52,159.56l-4.79.12-4.68,4.92c0,1.11.08,3.36.11,4.46v.33c.16.14,4.63,4.41,4.92,4.68l4.79-.12,4.68-4.91c0-1.2-.08-3.6-.11-4.79Z"/><path class="cls-1" d="M586,158.92h-.22l-4.58.12L576.55,164c0,1.31.08,3.47.11,4.79l4.91,4.68,4.8-.11,4.68-4.92c0-1.35-.08-3.45-.12-4.79Z"/><path class="cls-1" d="M612.52,158.27l-4.8.12-4.67,4.92c0,1.19.08,3.59.11,4.79l.51.48,4.4,4.2,4.8-.12c.29-.3,4.52-4.74,4.68-4.92l-.12-4.78Z"/><polygon class="cls-4" points="301.68 367.75 300.83 360.49 296.97 357.43 215.22 366.96 212.16 370.83 214.4 389.98 227.5 388.46 301.68 367.75"/><polygon class="cls-4" points="256.3 372.27 255.99 391.55 271.51 391.81 301.63 380.54 302 369.53 259.85 368.84 256.3 372.27"/><polygon class="cls-4" points="389.64 368.95 307.39 366.14 303.79 369.51 303.13 388.78 312.99 389.12 392.53 386.49 393.01 372.56 389.64 368.95"/><polygon class="cls-3" points="229.74 381.58 228.48 400.82 235.02 401.25 254.02 402.5 254.4 379.7 233.45 378.33 229.74 381.58"/><polygon class="cls-3" points="301.57 382.33 276.15 384.66 272.99 388.45 274.75 407.65 308.48 404.56 303.13 391.33 301.57 382.33"/><polygon class="cls-3" points="400.98 389.11 363.26 385.43 319.07 381.12 315.26 384.25 313.39 403.44 402.24 412.11 404.11 392.91 400.98 389.11"/><path class="cls-2" d="M218.93,405.15l5.39-.63,2,1.61-.36,5.61,4.22,4.82,5.42.36,4.19,4.78,5,.32,4.78-4.19,5.62.37,4.19,4.78,5,.33,4.77-4.2,5.58.37,4.24,4.78,5,.33,1.4-1.24,3.78,3.15,5-.46,2.36-2.83,2,2.33,5,.33,3.18-2.79,2,1.63,5-.46,3.93-4.73,2.32.23,4,4.91,5,.49,3.15-2.59,1.13-.1,1.08-1.31,5.15.51,4,4.91,5,.48,4.91-4,5.6.54,4,4.91,5,.49,4.9-4,5.61.55,4,4.91,5,.49,4.91-4,5.4.53,4.95-4.08,3-30.92-4.07-4.95-7.58-.74.51-14.78-4.37-4.69-83.74-2.86-3.27,3.06-.92-7.84-5-4-83.22,9.7-4,5,3.6,30.86Zm7.07-3.81-.41-.33-.41-3.52,1.89-2.39-.44,6.73Zm18.36,16.37-3.54-.23-3.31-3.79.23-3.54,3.77-3.32,3.55.24,3.32,3.78-.23,3.54Zm4.79-5,.14-2.14-3.81-4.34-4.27-.28-4.34,3.8-.14,2.15-3.59-.24h0l-2.23-.15-3.74-4.26,1.7-26.06,4.27-3.74,21.27,1.39L254,402.58l4.46,4.61,2.3,0L256.47,411l-.14,2.14Zm6.17-34.7.1-6.09,4.07-3.95,42.62.7-.08.07-.4,11.83L275.25,383l-4.1,4.93.75,8.19L269,396l-4.15,4,0,2.15-3.6-.06h0l-2.24,0L255,398Zm16.85,21.08.77,8.33-.26.25-3.55-.06-3.5-3.62.06-3.55,3.61-3.49,2.68,0Zm-8.27,8.22.14.13-2.78-.18ZM264,419l-3.54-.23L257.1,415l.24-3.55,3.77-3.31,3.55.23,3.32,3.78-.24,3.54Zm4.79-5,.14-2.11,4.46.08h0l.22,2.36Zm5.92.39-.22-.18-2.38-26,3.63-4.37,25.9-2.37L301,399.77l4.37,4.68,5.43.19.64.69-.32,3.26-3.41.32-3.7,4.43.2,2.14-7.16.66-.2-2.14-4.44-3.69-4.26.39-3.69,4.43.18,2v.12l-3.58.33h0l-2.23.2Zm36.35.5,3,3.6-1.34,1.61-3.53.32-3.87-3.22-.32-3.53,3.21-3.87,2.88-.26-.46,4.77Zm-17.94,7-3.54.32L285.67,419l-.32-3.53,3.21-3.87,3.54-.32,3.87,3.22.32,3.53Zm10.08-.29-3.55-.24-.23-.27,4.49-.41.17.14Zm22-1.09L322,416.59l.34-3.54,3.88-3.19,3.54.34,3.19,3.89-.34,3.53-3.89,3.2-3.31-.33Zm23.08,2.25-3.54-.34-3.19-3.89.35-3.53,3.88-3.19,3.54.34L352.5,416l-.34,3.53Zm19.55,1.91-3.54-.34-3.19-3.89.35-3.53,3.88-3.2,3.53.35,3.2,3.88-.35,3.54Zm19.55,1.91-3.54-.35-3.19-3.88.34-3.53,3.88-3.2,3.54.35,3.2,3.88-.35,3.53Zm14.06-38.29,3.6,4.39-2.53,26-4.38,3.6-2.23-.22h0l-3.58-.35.21-2.14-3.67-4.46-4.26-.41-4.46,3.66-.21,2.14-7.16-.7.21-2.14-3.67-4.45-4.26-.42-4.46,3.66-.21,2.14-7.15-.7.2-2.13-3.66-4.46-4.27-.42L341,414.51l-.2,2.13-6.74-.65-.42,0,.21-2.14-3.67-4.46-4.27-.41-4.45,3.66-.21,2.14-3.58-.35h0l-2.23-.21-3.6-4.39,2.54-26,4.38-3.6Zm-94.38-23,83,2.83,3.86,4.15-.49,14.36-74.92-7.31-4.95,4.07L312.22,397l-.43.4-.07,2.15-3.59-.12h0l-2.24-.08L302,395.21l.89-26.1Zm-92.3.88,82.48-9.62,4.45,3.53.9,7.73h-.9l-42.55-.7-4.6,4.46-.1,6.41-21.61-1.41L228,380.74l-.84,12.8-2.92,3.68.25,2.14-3.57.41h0l-2.23.26-4.44-3.52-3-25.94Z"/><polygon class="cls-1" points="227.17 393.54 227.5 388.46 214.4 389.98 212.16 370.83 215.22 366.96 296.97 357.43 300.83 360.49 301.68 367.75 302.58 367.76 301.68 360.03 297.23 356.5 214.75 366.12 211.23 370.57 214.26 396.51 218.7 400.03 220.93 399.77 220.93 399.77 224.5 399.36 224.25 397.22 227.17 393.54"/><polygon class="cls-1" points="225.59 401.01 226.63 401.83 227.07 395.1 225.18 397.49 225.59 401.01"/><polygon class="cls-1" points="258.48 407.19 254.02 402.58 254.02 402.5 228.48 400.82 229.74 381.58 233.45 378.33 254.4 379.7 254.41 378.81 233.14 377.42 228.87 381.16 227.17 407.22 230.91 411.48 233.14 411.63 233.14 411.63 236.73 411.87 236.87 409.72 241.21 405.92 245.48 406.2 249.29 410.54 249.15 412.68 256.33 413.15 256.47 411.01 260.78 407.22 258.48 407.19"/><polygon class="cls-1" points="273.35 411.93 268.89 411.85 268.75 413.96 273.57 414.28 273.35 411.92 273.35 411.93"/><polygon class="cls-1" points="264.04 407.41 263.9 407.27 261.26 407.23 264.04 407.41"/><polygon class="cls-1" points="241.51 406.83 237.74 410.15 237.5 413.69 240.82 417.48 244.36 417.71 248.15 414.39 248.38 410.85 245.06 407.07 241.51 406.83"/><polygon class="cls-1" points="261.11 408.12 257.33 411.44 257.1 414.98 260.42 418.76 263.96 418.99 267.74 415.67 267.98 412.13 264.66 408.35 261.11 408.12"/><polygon class="cls-1" points="299.38 421.05 299.61 421.32 303.16 421.56 304.04 420.78 303.87 420.64 299.38 421.05"/><polygon class="cls-1" points="259.85 368.84 302 369.53 302.03 368.71 302.11 368.64 259.49 367.94 255.42 371.89 254.99 398 258.93 402.08 261.17 402.12 261.17 402.12 264.77 402.18 264.8 400.03 268.95 396.02 271.9 396.06 271.51 391.81 255.99 391.55 256.3 372.27 259.85 368.84"/><polygon class="cls-1" points="265.69 400.42 265.63 403.96 269.13 407.58 272.68 407.64 272.94 407.39 271.98 396.96 269.3 396.92 265.69 400.42"/><polygon class="cls-1" points="307.68 408.9 311.09 408.59 311.41 405.33 310.77 404.64 274.75 407.65 272.99 388.45 276.15 384.66 301.57 382.33 301.6 381.43 275.7 383.81 272.07 388.17 274.45 414.17 278.81 417.8 281.04 417.6 281.04 417.6 284.62 417.27 284.61 417.15 284.43 415.13 288.12 410.7 292.38 410.31 296.82 414 297.02 416.14 304.18 415.48 303.99 413.34 307.68 408.9"/><polygon class="cls-1" points="295.97 414.45 292.1 411.23 288.56 411.55 285.35 415.42 285.68 418.95 289.54 422.17 293.08 421.85 296.29 417.98 296.09 415.75 295.97 414.45"/><polygon class="cls-1" points="310.54 414.27 311 409.5 308.12 409.76 304.91 413.63 305.23 417.16 309.1 420.38 312.63 420.06 313.97 418.45 312.64 416.83 310.54 414.27"/><polygon class="cls-1" points="305.89 399.36 308.13 399.43 308.13 399.44 311.72 399.56 311.79 397.41 312.22 397.01 312.99 389.12 303.13 388.78 303.79 369.51 307.39 366.14 389.64 368.95 393.01 372.56 392.53 386.49 393.42 386.58 393.92 372.22 390.05 368.07 307.05 365.24 302.91 369.11 302.02 395.21 305.89 399.36"/><path class="cls-1" d="M401.43,388.25l-8.93-.87-73.71-7.19-4.38,3.6-2.54,26,3.6,4.39,2.23.21h0l3.58.35.21-2.14,4.45-3.66,4.27.41,3.67,4.46-.21,2.14.42,0,6.74.65.2-2.13,4.46-3.67,4.27.42,3.66,4.46-.2,2.13,7.15.7.21-2.14,4.46-3.66,4.26.42,3.67,4.45-.21,2.14,7.16.7.21-2.14,4.46-3.66,4.26.41,3.67,4.46-.21,2.14,3.58.35h0l2.23.22,4.38-3.6,2.53-26Zm.81,23.86-88.85-8.67,1.87-19.19,3.81-3.14,75.18,7.34,6.73.66,3.13,3.8Z"/><polygon class="cls-1" points="326.22 409.86 322.34 413.06 322 416.59 325.19 420.47 325.41 420.49 328.72 420.82 332.61 417.62 332.95 414.09 329.76 410.2 326.22 409.86"/><polygon class="cls-1" points="345.77 411.77 341.89 414.96 341.54 418.49 344.73 422.38 348.27 422.73 352.16 419.53 352.5 416 349.31 412.11 345.77 411.77"/><polygon class="cls-1" points="365.32 413.67 361.44 416.87 361.09 420.4 364.28 424.29 367.82 424.63 371.7 421.44 372.05 417.9 368.85 414.02 365.32 413.67"/><polygon class="cls-1" points="384.86 415.58 380.98 418.78 380.64 422.31 383.83 426.19 387.37 426.54 391.25 423.34 391.6 419.81 388.4 415.93 384.86 415.58"/><polygon class="cls-4" points="492.74 376.57 525.07 357.87 525.61 350.29 472.24 354.32 468.89 358.22 470.41 378.25 492.74 376.57"/><polygon class="cls-4" points="619.41 353 617.09 350.31 531.56 344.16 527.68 347.52 526.24 367.56 543.88 368.83 619.41 353"/><polygon class="cls-4" points="468.26 390.79 464.99 394.75 466.92 414.75 494.25 412.12 537.95 391.55 539.21 383.95 536.43 384.22 468.26 390.79"/><polygon class="cls-4" points="631.91 382.68 547.32 368.66 543.14 371.64 539.85 391.46 573.08 396.98 577.68 397.74 581.15 397.49 633.77 393.68 634.9 386.86 631.91 382.68"/><polygon class="cls-3" points="527.29 383.23 524.93 359.77 496.35 364.32 493.34 368.48 496.17 386.23 527.29 383.23"/><polygon class="cls-3" points="563.96 369.54 619.61 378.76 620.55 378.65 642 375.74 639.29 355.83 635.21 352.72 550.24 364.26 548.22 366.92 563.01 369.38 563.96 369.54"/><polygon class="cls-3" points="560.04 411.28 537.65 393.38 501.85 390 497.9 393.27 496.01 413.27 560.62 419.38 560.2 413.51 560.04 411.28"/><polygon class="cls-3" points="654.17 397.71 650.29 394.35 564.76 400.53 561.4 404.42 562.85 424.46 655.62 417.75 654.17 397.71"/><path class="cls-2" d="M656,396.81l-5-4.37-15.26,1.1.1-.56,5.58-.76,4-5.31L641,354.83l-5.31-4.05-14.11,1.92L618,348.52l-87.07-6.27-5,4.38-.13,1.79-54.42,4.11L467,357.6l2.36,31.22-2,.19-4.24,5.16,3.1,32.22,5.16,4.25,5.63-.54,5.11,4.21,5.2-.5,4.21-5.11,4.64-.45,1.21,1.47,2.16.2,2.94,2.43,2.1-.2,2.65,3.2,5.21.49,5.1-4.22,5.84.55,4.22,5.11,5.21.49,5.1-4.23,5.84.56,4.22,5.1,5.21.49,5.1-4.22,3.58.34,0,.27,5,4.37.81-.06.61.73,5.2.5.43-.36,3.6,3.12,5.22-.38,4.32-5,5.86-.42,5,4.33,5.22-.38,4.32-5,5.86-.43,5,4.34,5.21-.38,4.33-5,5.86-.42,5,4.33,5.21-.38,4.33-5,5.64-.4,4.37-5.06Zm-67.26.13-24.85,1.8-3.81,4.41-3.12-4.36-4.41-.73-4.89,3.49-.36,2.21-3.7-.61h0l-2.3-.39-3.44-4.8,4.45-26.84,4.81-3.44,85.35,14.15,3.44,4.81-1.16,7-1,.07Zm-40.83,8.8.61-3.65,4.26-3,3.65.6,3.05,4.27-.61,3.64-4.26,3.05-3.65-.6Zm-23-46-1.38,19.15,3.74,4.31-31.12,3-.93.09-2.88-18.07,3.47-4.79L525,358.81ZM536.36,382l-.81-.94.27-3.69,3.95-3.43,1.09.08-1.33,8.06-2.86.28Zm86-28.44,13.13-1.78,4.7,3.58,3.67,27-3.58,4.7-2.31.32h0l-1.26.17.18-1.07L633,381l-85.79-14.23,2.55-3.35Zm-95.55-6.45,4.46-3.87,86.3,6.2,3,3.44-71.29,9.68-4,5.32v0l-3.76,2.69-.39,2.33,0,.15-1.56-.12-4.55,3.94-.16,2.23-3.73-.27h0l-2.33-.17-3.87-4.47ZM470,385l-2.05-27.13,3.85-4.48,53.89-4.08-.61,8.52-29.77,4.74L491.38,368l2.93,18.39-.92.09-.1-1.27-4.56-3.92-4.45.34-3.92,4.56.12,1.54-6.61.63Zm11.41,2.62-.08-1.14,3.41-4,3.69-.28,4,3.41.06.91Zm4.68,41.79-3.68.35-4-3.33-.36-3.68,3.33-4,3.69-.36,4,3.33.35,3.68Zm4.08-6-.21-2.23-4.65-3.82-4.44.43L477,422.5l.21,2.22-3.73.36h0l-2.32.22-4.56-3.76L464,394.46l3.76-4.56,71.58-6.9L538,391.54l-36.69-3.46-5.14,4.26-2.92,30.85ZM512,431.33l-3.68-.34L505,427l.35-3.68,4-3.35,3.69.35,3.34,4-.35,3.68Zm20.37,1.93-3.68-.35-3.34-4,.35-3.68,4-3.34,3.69.35,3.34,4-.35,3.68Zm20.38,1.92-3.69-.35-3.34-4,.35-3.68,4-3.35,3.69.35,3.34,4-.35,3.68Zm5.13-5.09.21-2.23-3.83-4.63-4.45-.42-4.63,3.83-.21,2.23-7.46-.7.21-2.23-3.84-4.63-4.44-.42-4.63,3.83-.21,2.23-7.46-.71.21-2.23-3.84-4.63-4.44-.42-4.63,3.83-.21,2.23-3.73-.35h0l-2.33-.22-3.76-4.56L497,392.81l4.55-3.77,36.24,3.42-.15.92-1.52,9.14L540,408l5.57.92,3.86,5.39,5.16.86,5.38-3.86h0l1.38,19.14Zm23.74,9.52-3.7.27-4-3.43-.27-3.69,3.42-4,3.7-.27,4,3.43.27,3.69Zm20.41-1.48-3.7.27-4-3.43-.26-3.69,3.42-4,3.7-.27,4,3.43.27,3.69Zm20.41-1.47-3.7.27-4-3.43-.26-3.69,3.42-4,3.7-.26,4,3.43.27,3.68Zm20.41-1.48-3.7.27-4-3.43-.26-3.69,3.42-4,3.69-.27,4,3.43.27,3.69Zm10.28-6.31-2.33.17h0l-3.74.27-.16-2.23-4.55-3.93-4.46.32L634,428l.16,2.24-7.47.54-.16-2.24L622,424.62l-4.46.32-3.93,4.55.16,2.23-7.47.54-.16-2.23-4.55-3.93-4.46.32L593.19,431l.16,2.23-7.47.54-.16-2.23-4.55-3.94-4.46.33-3.93,4.54.16,2.24-3.73.27h0l-2.33.17-4.47-3.87-2-27.13,3.86-4.48,86.3-6.24,4.46,3.87,2,27.14Z"/><polygon class="cls-1" points="473.87 388.38 480.48 387.75 480.36 386.21 484.28 381.65 488.73 381.31 493.29 385.23 493.39 386.5 494.31 386.41 492.74 376.57 470.41 378.25 468.89 358.22 472.24 354.32 525.61 350.29 525.68 349.36 471.79 353.43 467.94 357.91 469.99 385.04 473.87 388.38"/><polygon class="cls-1" points="484.73 382.55 481.32 386.52 481.4 387.66 492.46 386.59 492.4 385.69 488.42 382.27 484.73 382.55"/><polygon class="cls-1" points="524.93 359.77 525 358.81 495.83 363.46 492.36 368.25 495.24 386.32 496.17 386.23 493.34 368.48 496.35 364.32 524.93 359.77"/><polygon class="cls-1" points="528.69 378.68 531.02 378.85 531.02 378.85 534.75 379.12 534.91 376.89 539.46 372.95 541.02 373.07 541.04 372.92 541.43 370.59 543.88 368.83 526.24 367.56 527.68 347.52 531.56 344.16 617.09 350.31 619.41 353 620.51 352.85 617.54 349.41 531.24 343.2 526.78 347.08 524.82 374.21 528.69 378.68"/><polygon class="cls-1" points="539.77 373.91 535.82 377.34 535.55 381.03 536.67 382.33 539.53 382.05 539.95 379.5 540.86 373.99 539.77 373.91"/><polygon class="cls-1" points="549.73 363.39 547.18 366.75 548.22 366.92 550.24 364.26 635.21 352.72 639.29 355.83 642 375.74 620.55 378.65 619.67 378.77 620.54 378.92 632.97 380.98 636.86 386.41 636.68 387.49 637.94 387.31 637.94 387.31 640.25 387 643.83 382.29 640.16 355.33 635.46 351.75 587.77 358.23 549.73 363.39"/><polygon class="cls-1" points="464.99 394.75 468.26 390.79 539.21 383.95 539.37 383 467.79 389.9 464.03 394.46 466.64 421.54 471.2 425.3 473.52 425.08 473.52 425.08 477.25 424.72 477.04 422.5 480.86 417.86 485.3 417.43 489.95 421.25 490.16 423.48 493.2 423.19 494.25 412.12 466.92 414.75 464.99 394.75"/><polygon class="cls-1" points="485.02 418.39 481.33 418.75 478 422.79 478.36 426.47 482.4 429.81 486.08 429.45 489.42 425.4 489.06 421.72 485.02 418.39"/><polygon class="cls-1" points="560.6 419.38 496.01 413.27 497.9 393.27 501.85 390 537.65 393.38 537.8 392.46 501.56 389.04 497.01 392.81 494.45 419.89 498.21 424.45 500.54 424.67 500.54 424.67 504.26 425.02 504.48 422.8 509.11 418.96 513.55 419.38 517.39 424.01 517.18 426.24 524.64 426.95 524.85 424.72 529.48 420.89 533.92 421.31 537.76 425.94 537.55 428.17 545.01 428.87 545.22 426.64 549.85 422.81 554.3 423.23 558.13 427.86 557.92 430.09 561.42 430.42 560.62 419.38 560.6 419.38"/><polygon class="cls-1" points="509.4 419.93 505.37 423.27 505.02 426.95 508.36 430.99 512.04 431.33 516.08 427.99 516.43 424.31 513.09 420.27 509.4 419.93"/><polygon class="cls-1" points="529.77 421.85 525.74 425.19 525.39 428.87 528.73 432.91 532.41 433.26 536.45 429.92 536.8 426.24 533.46 422.2 529.77 421.85"/><polygon class="cls-1" points="551.68 423.92 550.14 423.77 546.11 427.12 545.76 430.8 549.1 434.83 552.79 435.18 556.83 431.84 557.17 428.16 553.83 424.12 551.68 423.92"/><polygon class="cls-1" points="634.72 393.61 635.88 386.64 632.44 381.83 547.09 367.68 542.28 371.12 537.83 397.96 541.27 402.76 543.57 403.15 543.57 403.15 547.27 403.76 547.63 401.56 552.52 398.06 556.92 398.79 560.05 403.15 563.86 398.74 577.68 397.74 539.85 391.46 543.14 371.64 547.32 368.66 631.91 382.68 634.9 386.86 633.77 393.68 634.72 393.61"/><polygon class="cls-1" points="556.4 399.64 552.75 399.04 548.49 402.09 547.88 405.74 550.93 410 554.58 410.6 558.84 407.55 559.45 403.9 556.61 399.93 556.4 399.64"/><path class="cls-1" d="M657,424.4l-2-27.14-4.46-3.87-86.3,6.24-3.86,4.48,2,27.13,4.47,3.87,2.33-.17h0l3.73-.27-.16-2.24,3.94-4.54,4.45-.33,4.55,3.94.16,2.23,7.47-.54-.16-2.23,3.93-4.55,4.46-.32,4.55,3.93.16,2.23,7.47-.54-.16-2.23,3.93-4.55,4.46-.32,4.55,3.93.16,2.24,7.47-.54L634,428l3.93-4.54,4.46-.32,4.55,3.93.16,2.23,3.74-.27h0l2.32-.17Zm-27.24-4.79-66.95,4.85-1.45-20,3.37-3.89,85.52-6.18,3.88,3.36,1.45,20Z"/><polygon class="cls-1" points="584.82 431.96 580.86 428.53 577.16 428.8 573.74 432.76 574.01 436.45 577.97 439.88 581.66 439.61 585.09 435.65 584.84 432.18 584.82 431.96"/><polygon class="cls-1" points="601.27 427.05 597.57 427.32 594.15 431.28 594.41 434.97 598.37 438.4 602.07 438.13 605.5 434.17 605.23 430.48 601.27 427.05"/><polygon class="cls-1" points="621.67 425.58 617.98 425.84 614.56 429.81 614.82 433.5 618.78 436.93 622.48 436.66 625.91 432.69 625.64 429.01 621.67 425.58"/><polygon class="cls-1" points="642.09 424.1 638.39 424.37 634.97 428.33 635.23 432.02 639.19 435.45 642.89 435.18 646.32 431.22 646.05 427.53 642.09 424.1"/></svg>