<svg id="Livello_1" data-name="Livello 1" xmlns="http://www.w3.org/2000/svg" xmlns:xlink="http://www.w3.org/1999/xlink" viewBox="0 0 606.65 383.58"><defs><style>.cls-1,.cls-10,.cls-14,.cls-15,.cls-16,.cls-17,.cls-4,.cls-5{fill:none;stroke-miterlimit:10;}.cls-1,.cls-14,.cls-15,.cls-16,.cls-17,.cls-4,.cls-5{stroke:#000;}.cls-1,.cls-14,.cls-15,.cls-16,.cls-17,.cls-4{stroke-width:0.94px;}.cls-1,.cls-4{stroke-dasharray:3.75;}.cls-2{fill:url(#Sfumatura_senza_nome_13);}.cls-18,.cls-3{fill:#232323;}.cls-3{opacity:0.39;}.cls-13,.cls-4{opacity:0.78;}.cls-5{stroke-width:1.81px;}.cls-6,.cls-9{font-size:12.85px;font-family:Lora-Regular, Lora;}.cls-7{letter-spacing:-0.01em;}.cls-8{letter-spacing:-0.01em;}.cls-11,.cls-9{fill:#fff;}.cls-10{stroke:#fff;stroke-width:0.31px;}.cls-12{fill:url(#Sfumatura_senza_nome_13-2);}.cls-15{stroke-dasharray:3.4 3.4;}.cls-16{stroke-dasharray:3.4 3.4;}.cls-17{stroke-dasharray:3.72 3.72;}.cls-19{fill:#07d131;}.cls-20{fill:#ff1027;}</style><linearGradient id="Sfumatura_senza_nome_13" x1="1694.06" y1="236.75" x2="1746.21" y2="236.75" gradientTransform="translate(-1368.84 -62.66)" gradientUnits="userSpaceOnUse"><stop offset="0.72" stop-color="#fff"/><stop offset="1" stop-color="#fff" stop-opacity="0"/></linearGradient><linearGradient id="Sfumatura_senza_nome_13-2" x1="376.63" y1="107.56" x2="434.86" y2="107.56" gradientTransform="translate(-96.6 139.8)" xlink:href="#Sfumatura_senza_nome_13"/></defs><circle class="cls-1" cx="351.51" cy="209.07" r="55.46"/><rect class="cls-2" x="325.22" y="108.76" width="52.15" height="130.67" transform="translate(525.39 -177.19) rotate(90)"/><path class="cls-3" d="M499.85,209.07V326.28H351.5V243.4a34.33,34.33,0,0,0,34.33-34.33Z"/><path class="cls-3" d="M478.73,230.2v75H372.63V260.35a55.61,55.61,0,0,0,30.16-30.15Z"/><line class="cls-4" x1="351.5" y1="243.4" x2="351.5" y2="209.07"/><line class="cls-4" x1="385.83" y1="209.07" x2="351.51" y2="209.07"/><line class="cls-5" x1="351.51" y1="204.03" x2="351.51" y2="214.1"/><line class="cls-5" x1="356.54" y1="209.07" x2="346.47" y2="209.07"/><text class="cls-6" transform="translate(356.54 352.74)">pa<tspan class="cls-7" x="14.3" y="0">r</tspan><tspan x="19.77" y="0">e</tspan><tspan class="cls-8" x="26.73" y="0">n</tspan><tspan x="34.42" y="0">tRadius + thickness</tspan></text><text class="cls-9" transform="translate(393.88 318.66)"><tspan xml:space="preserve"> thickness</tspan></text><line class="cls-10" x1="458.49" y1="309.94" x2="458.49" y2="318.1"/><polygon class="cls-11" points="458.49 307.74 457.22 310.84 458.49 310.11 459.76 310.84 458.49 307.74"/><polygon class="cls-11" points="458.49 320.31 457.22 317.2 458.49 317.94 459.76 317.2 458.49 320.31"/><line class="cls-10" x1="392.87" y1="309.94" x2="392.87" y2="318.1"/><polygon class="cls-11" points="392.87 307.74 391.6 310.84 392.87 310.11 394.14 310.84 392.87 307.74"/><polygon class="cls-11" points="392.87 320.31 391.6 317.2 392.87 317.94 394.14 317.2 392.87 320.31"/><rect class="cls-12" x="280.03" y="182.03" width="58.22" height="130.67"/><path class="cls-3" d="M505.77,40.44V157.66H357.42V74.77a34.34,34.34,0,0,0,34.33-34.33Z"/><path class="cls-3" d="M484.64,61.57v75H378.55V95.9a34.34,34.34,0,0,0,34.33-34.33Z"/><g class="cls-13"><line class="cls-14" x1="378.55" y1="95.9" x2="378.55" y2="94.03"/><line class="cls-15" x1="378.55" y1="90.63" x2="378.55" y2="65.14"/><polyline class="cls-14" points="378.55 63.45 378.55 61.57 380.42 61.57"/><line class="cls-16" x1="383.82" y1="61.57" x2="409.3" y2="61.57"/><line class="cls-14" x1="411" y1="61.57" x2="412.87" y2="61.57"/></g><circle class="cls-17" cx="378.55" cy="61.57" r="34.33" transform="translate(257.13 425.37) rotate(-80.78)"/><line class="cls-5" x1="378.55" y1="56.54" x2="378.55" y2="66.61"/><line class="cls-5" x1="383.58" y1="61.57" x2="373.51" y2="61.57"/><text class="cls-6" transform="translate(361.42 179.64)">pa<tspan class="cls-7" x="14.3" y="0">r</tspan><tspan x="19.77" y="0">e</tspan><tspan class="cls-8" x="26.73" y="0">n</tspan><tspan x="34.42" y="0">tRadius</tspan></text><path class="cls-18" d="M304.93,209.39V329.12H156.58V243.71a34.32,34.32,0,0,0,34.33-34.32Z"/><path class="cls-19" d="M283.81,230.52V308H177.71V260.67a55.61,55.61,0,0,0,30.16-30.15Z"/><path class="cls-19" d="M47.63,295.81l7.69,7.46c2.4,2.32,4.7,4.84,7.29,6.94,3.83,3.12,8.53,4.7,13.43,3.22a21.72,21.72,0,0,0,9.2-6c2.09-2.18,3.86-4.67,5.75-7q3.06-3.76,6.2-7.46,6.3-7.38,13-14.42,7.63-8,15.75-15.61a7.55,7.55,0,0,0,0-10.59,7.65,7.65,0,0,0-10.6,0,364.21,364.21,0,0,0-36.09,38.93c-1.46,1.82-2.85,3.72-4.46,5.43-.36.39-.74.76-1.13,1.13s-1.66,1.39-.59.56-.33.2-.66.4a11.17,11.17,0,0,1-1.47.73l1.79-.75a8.89,8.89,0,0,1-1.68.46l2-.26a7.71,7.71,0,0,1-1.73,0l2,.26a7.58,7.58,0,0,1-1.4-.36l1.79.76c-.39-.17-.75-.39-1.13-.57-.49-.34-.47-.31.07.1s.56.44.09,0c-.66-.61-1.31-1.23-2-1.86l-4.12-4-8.41-8.15c-2.81-2.73-7.83-3-10.59,0a7.62,7.62,0,0,0,0,10.6Z"/><path class="cls-18" d="M304.93,41.05V158.78H156.58V75.38a34.33,34.33,0,0,0,34.33-34.33Z"/><path class="cls-20" d="M283.81,62.18v75.47H177.71V96.51A34.34,34.34,0,0,0,212,62.18Z"/><path class="cls-20" d="M54.06,88.68a135.38,135.38,0,0,0,34.19,37.43,125.76,125.76,0,0,0,11.23,7.54c3.37,2,8.38.87,10.25-2.69a7.63,7.63,0,0,0-2.68-10.25c-3.35-2-6.61-4.14-9.75-6.44-.78-.57-1.54-1.14-2.3-1.72s.79.59.7.54a4.21,4.21,0,0,1-.48-.38l-1.28-1c-1.54-1.25-3.06-2.53-4.54-3.85-2.85-2.55-5.6-5.23-8.21-8-1.36-1.44-2.67-2.92-4-4.44-.62-.72-1.23-1.46-1.83-2.2l-.77-1-.55-.7c.81,1-.34-.45-.54-.71l-1-1.32c-.64-.89-1.27-1.78-1.89-2.68C69.4,84.94,68.17,83,67,81.12c-2-3.34-6.81-4.91-10.25-2.69s-4.88,6.67-2.69,10.25Z"/><path class="cls-20" d="M57.26,124.81c.76-.64,1.53-1.27,2.3-1.9l1-.8c.4-.31,2.08-1.55.17-.14,1.48-1.09,2.94-2.23,4.45-3.3q4.6-3.28,9.43-6.22a155.74,155.74,0,0,1,20.3-10.37l-1.79.76a155.25,155.25,0,0,1,23.47-7.71,7.56,7.56,0,0,0,5.24-9.22,7.66,7.66,0,0,0-9.22-5.23,160.25,160.25,0,0,0-52.2,23.1c-4.75,3.24-9.34,6.74-13.75,10.43A7.49,7.49,0,0,0,52,127a8.44,8.44,0,0,0,5.3-2.19Z"/></svg>