<svg id="Livello_1" data-name="Livello 1" xmlns="http://www.w3.org/2000/svg" xmlns:xlink="http://www.w3.org/1999/xlink" viewBox="0 0 751.09 483.69"><defs><style>.cls-1,.cls-10,.cls-17{fill:#fff;}.cls-11,.cls-18,.cls-2,.cls-21,.cls-22,.cls-23,.cls-24,.cls-8,.cls-9{fill:none;stroke-miterlimit:10;}.cls-11,.cls-2,.cls-21,.cls-22,.cls-23,.cls-24,.cls-8,.cls-9{stroke:#000;}.cls-2,.cls-21,.cls-22,.cls-23,.cls-24,.cls-8{stroke-width:0.75px;}.cls-2,.cls-8{stroke-dasharray:3;}.cls-3{fill:url(#Sfumatura_senza_nome_13);}.cls-4,.cls-5,.cls-6{fill:#232323;}.cls-4{opacity:0.65;}.cls-5{opacity:0.39;}.cls-7{fill:#07d131;}.cls-20,.cls-8{opacity:0.78;}.cls-9{stroke-width:1.45px;}.cls-10{font-size:15.19px;}.cls-10,.cls-12,.cls-17,.cls-26{font-family:Lora-Regular, Lora;}.cls-11{stroke-width:2.12px;}.cls-12,.cls-17{font-size:10.29px;}.cls-13{letter-spacing:0.01em;}.cls-14{letter-spacing:-0.01em;}.cls-15{letter-spacing:0em;}.cls-16{letter-spacing:-0.01em;}.cls-18{stroke:#fff;stroke-width:0.25px;}.cls-19{fill:url(#Sfumatura_senza_nome_13-2);}.cls-22{stroke-dasharray:2.72 2.72;}.cls-23{stroke-dasharray:2.72 2.72;}.cls-24{stroke-dasharray:2.98 2.98;}.cls-25{fill:#ff1027;}.cls-26{font-size:6px;}.cls-27{letter-spacing:0.01em;}.cls-28{letter-spacing:0.01em;}.cls-29{letter-spacing:0em;}.cls-30{letter-spacing:-0.03em;}</style><linearGradient id="Sfumatura_senza_nome_13" x1="1715.44" y1="301.24" x2="1757.2" y2="301.24" gradientTransform="translate(-1335.24 -141.11)" gradientUnits="userSpaceOnUse"><stop offset="0.72" stop-color="#fff"/><stop offset="1" stop-color="#fff" stop-opacity="0"/></linearGradient><linearGradient id="Sfumatura_senza_nome_13-2" x1="440.62" y1="78.99" x2="487.25" y2="78.99" gradientTransform="translate(-96.6 139.8)" xlink:href="#Sfumatura_senza_nome_13"/></defs><rect class="cls-1" width="751.09" height="483.69"/><circle class="cls-2" cx="401.26" cy="188.13" r="44.41"/><rect class="cls-3" x="380.21" y="107.81" width="41.76" height="104.64" transform="translate(561.21 -240.96) rotate(90)"/><rect class="cls-4" x="404.56" y="347.83" width="111.2" height="62.13"/><rect class="cls-4" x="414.63" y="358.44" width="91.06" height="40.92"/><path class="cls-5" d="M520.06,188.13V282H401.26V215.62a27.49,27.49,0,0,0,27.49-27.49Z"/><path class="cls-5" d="M503.14,205.05v60h-85V229.2a44.53,44.53,0,0,0,24.15-24.15Z"/><path class="cls-6" d="M520.06,77.53V161.4H401.26V105a27.49,27.49,0,0,0,27.49-27.49Z"/><path class="cls-7" d="M503.14,94.45v50h-85V118.6a44.53,44.53,0,0,0,24.15-24.15Z"/><line class="cls-8" x1="401.26" y1="215.62" x2="401.26" y2="188.13"/><line class="cls-8" x1="428.75" y1="188.13" x2="401.26" y2="188.13"/><line class="cls-9" x1="401.26" y1="184.1" x2="401.26" y2="192.16"/><line class="cls-9" x1="405.29" y1="188.13" x2="397.23" y2="188.13"/><text class="cls-10" transform="translate(436.34 383.29)">CHILD</text><line class="cls-11" x1="404.56" y1="342.99" x2="404.56" y2="352.68"/><line class="cls-11" x1="409.16" y1="347.83" x2="399.96" y2="347.83"/><line class="cls-11" x1="515.76" y1="342.99" x2="515.76" y2="352.68"/><line class="cls-11" x1="520.36" y1="347.83" x2="511.16" y2="347.83"/><line class="cls-11" x1="404.56" y1="405.12" x2="404.56" y2="414.81"/><line class="cls-11" x1="409.16" y1="409.96" x2="399.96" y2="409.96"/><line class="cls-11" x1="515.76" y1="405.12" x2="515.76" y2="414.81"/><line class="cls-11" x1="520.36" y1="409.96" x2="511.16" y2="409.96"/><text class="cls-12" transform="translate(406.52 439.25)">sta<tspan class="cls-13" x="14.05" y="0">r</tspan><tspan x="18.58" y="0">t = 0% - thickness </tspan><tspan x="0" y="12.35" xml:space="preserve">end = 100% + thickness  </tspan></text><text class="cls-12" transform="translate(401.26 307.14)">pa<tspan class="cls-14" x="11.45" y="0">r</tspan><tspan class="cls-15" x="15.83" y="0">e</tspan><tspan class="cls-16" x="21.41" y="0">n</tspan><tspan x="27.56" y="0">tRadius + thickness</tspan></text><path class="cls-7" d="M447.78,52.73l5.37,5.21c1.57,1.52,3.11,3.3,5.36,3.75,4.62.94,7.64-3.24,10.16-6.37a189,189,0,0,1,18.14-19.49c2.83-2.64-1.42-6.88-4.24-4.25a190.41,190.41,0,0,0-16.38,17.35c-1.22,1.46-2.38,3-3.58,4.44a13,13,0,0,1-1.73,1.83,6.85,6.85,0,0,1-.77.51c.24-.16-.55.19-.12.11-.52.1-.37,0-.22,0a3.21,3.21,0,0,1-.65-.5c-.86-.73-1.64-1.58-2.44-2.36L452,48.49c-2.77-2.69-7,1.55-4.24,4.24Z"/><text class="cls-17" transform="translate(435.19 275.89)"><tspan xml:space="preserve"> thickness</tspan></text><line class="cls-18" x1="486.93" y1="268.91" x2="486.93" y2="275.45"/><polygon class="cls-1" points="486.93 267.15 485.92 269.63 486.93 269.04 487.95 269.63 486.93 267.15"/><polygon class="cls-1" points="486.93 277.21 485.92 274.73 486.93 275.31 487.95 274.73 486.93 277.21"/><line class="cls-18" x1="434.38" y1="268.91" x2="434.38" y2="275.45"/><polygon class="cls-1" points="434.38 267.15 433.36 269.63 434.38 269.04 435.4 269.63 434.38 267.15"/><polygon class="cls-1" points="434.38 277.21 433.36 274.73 434.38 275.31 435.4 274.73 434.38 277.21"/><text class="cls-17" transform="translate(434.69 408.34)"><tspan xml:space="preserve"> thickness</tspan></text><line class="cls-18" x1="486.44" y1="401.36" x2="486.44" y2="407.9"/><polygon class="cls-1" points="486.44 399.6 485.42 402.08 486.44 401.49 487.45 402.08 486.44 399.6"/><polygon class="cls-1" points="486.44 409.66 485.42 407.18 486.44 407.77 487.45 407.18 486.44 409.66"/><line class="cls-18" x1="433.89" y1="401.36" x2="433.89" y2="407.9"/><polygon class="cls-1" points="433.88 399.6 432.87 402.08 433.88 401.49 434.9 402.08 433.88 399.6"/><polygon class="cls-1" points="433.88 409.66 432.87 407.18 433.88 407.77 434.9 407.18 433.88 409.66"/><text class="cls-17" transform="translate(515.11 259.92) rotate(-90)"><tspan xml:space="preserve"> thickness</tspan></text><line class="cls-18" x1="508.13" y1="208.18" x2="514.67" y2="208.18"/><polygon class="cls-1" points="506.37 208.18 508.86 209.19 508.27 208.18 508.86 207.16 506.37 208.18"/><polygon class="cls-1" points="516.44 208.18 513.95 209.19 514.54 208.18 513.95 207.16 516.44 208.18"/><line class="cls-18" x1="508.13" y1="260.73" x2="514.67" y2="260.73"/><polygon class="cls-1" points="506.37 260.73 508.86 261.75 508.27 260.73 508.86 259.71 506.37 260.73"/><polygon class="cls-1" points="516.44 260.73 513.95 261.75 514.54 260.73 513.95 259.71 516.44 260.73"/><rect class="cls-19" x="344.02" y="166.47" width="46.63" height="104.64"/><path class="cls-5" d="M349.13,188.13V282H230.33V215.62a27.49,27.49,0,0,0,27.49-27.49Z"/><path class="cls-5" d="M332.21,205.05v60h-85V232.54a27.49,27.49,0,0,0,27.49-27.49Z"/><g class="cls-20"><line class="cls-21" x1="247.25" y1="232.54" x2="247.25" y2="231.04"/><line class="cls-22" x1="247.25" y1="228.32" x2="247.25" y2="207.91"/><polyline class="cls-21" points="247.25 206.55 247.25 205.05 248.75 205.05"/><line class="cls-23" x1="251.47" y1="205.05" x2="271.88" y2="205.05"/><line class="cls-21" x1="273.24" y1="205.05" x2="274.74" y2="205.05"/></g><circle class="cls-24" cx="247.25" cy="205.05" r="27.49"/><path class="cls-6" d="M349.13,77.53V161.4H230.33V105a27.49,27.49,0,0,0,27.49-27.49Z"/><path class="cls-25" d="M332.21,94.45v50h-85V121.94a27.49,27.49,0,0,0,27.49-27.49Z"/><line class="cls-9" x1="247.25" y1="201.02" x2="247.25" y2="209.08"/><line class="cls-9" x1="251.28" y1="205.05" x2="243.21" y2="205.05"/><rect class="cls-4" x="232.47" y="346.81" width="104.68" height="58.72"/><line class="cls-11" x1="233.29" y1="340.99" x2="233.29" y2="352.83"/><line class="cls-11" x1="239.21" y1="346.91" x2="227.37" y2="346.91"/><line class="cls-11" x1="337.97" y1="340.99" x2="337.97" y2="352.83"/><line class="cls-11" x1="343.88" y1="346.91" x2="332.05" y2="346.91"/><line class="cls-11" x1="233.29" y1="399.71" x2="233.29" y2="411.55"/><line class="cls-11" x1="239.21" y1="405.63" x2="227.37" y2="405.63"/><line class="cls-11" x1="337.97" y1="399.71" x2="337.97" y2="411.55"/><line class="cls-11" x1="343.88" y1="405.63" x2="332.05" y2="405.63"/><text class="cls-12" transform="translate(230.33 307.14)">pa<tspan class="cls-14" x="11.45" y="0">r</tspan><tspan class="cls-15" x="15.83" y="0">e</tspan><tspan class="cls-16" x="21.41" y="0">n</tspan><tspan x="27.56" y="0">tRadius</tspan></text><text class="cls-26" transform="translate(219.59 337.24)">sta<tspan class="cls-27" x="8.2" y="0">r</tspan><tspan x="10.84" y="0">t, sta</tspan><tspan class="cls-28" x="24.45" y="0">r</tspan><tspan class="cls-29" x="27.09" y="0">t</tspan></text><text class="cls-12" transform="translate(233.29 437.63)">sta<tspan class="cls-13" x="14.05" y="0">r</tspan><tspan x="18.58" y="0">t = 0% </tspan><tspan x="0" y="12.35">end = 100%</tspan></text><text class="cls-10" transform="translate(255.57 380.57)"><tspan class="cls-30">P</tspan><tspan x="8.69" y="0">ARENT</tspan></text><text class="cls-26" transform="translate(327.01 336.8)">end, sta<tspan class="cls-27" x="21.77" y="0">r</tspan><tspan x="24.41" y="0">t</tspan></text><text class="cls-26" transform="translate(220.95 396.52)">sta<tspan class="cls-27" x="8.2" y="0">r</tspan><tspan x="10.84" y="0">t, end</tspan></text><text class="cls-26" transform="translate(327.26 394.18)">end, end</text><path class="cls-25" d="M280.29,36.92a68.24,68.24,0,0,0,23,22.8,3,3,0,1,0,3-5.18,61.57,61.57,0,0,1-20.88-20.65,3,3,0,1,0-5.18,3Z"/><path class="cls-25" d="M280.6,55.31a76.39,76.39,0,0,1,30.86-15.47c3.75-.91,2.16-6.7-1.59-5.79a83.11,83.11,0,0,0-33.52,17,3,3,0,0,0,0,4.24,3.08,3.08,0,0,0,4.25,0Z"/></svg>