<svg id="Livello_1" data-name="Livello 1" xmlns="http://www.w3.org/2000/svg" viewBox="0 0 464.4 236.15"><defs><style>.cls-1{fill:#fafafd;}.cls-2,.cls-3,.cls-4,.cls-5,.cls-6,.cls-7,.cls-8{fill:none;stroke-miterlimit:10;}.cls-2,.cls-3{stroke:#0d0f20;}.cls-2{stroke-width:1.11px;opacity:0.5;}.cls-3{stroke-width:4.43px;}.cls-4,.cls-5,.cls-7,.cls-8{stroke:#ff2c2c;}.cls-4,.cls-5{stroke-width:2.21px;}.cls-5{stroke-dasharray:4.4 4.4;}.cls-6{stroke:#fff;stroke-width:4.31px;}.cls-7,.cls-8{stroke-width:2.16px;}.cls-8{stroke-dasharray:4.19 4.19;}.cls-9{font-size:20.31px;font-family:Lora-Regular, Lora;}.cls-10{letter-spacing:0em;}.cls-11{letter-spacing:0em;}</style></defs><rect class="cls-1" width="464.4" height="236.15"/><line class="cls-2" x1="164.72" y1="65.07" x2="52.63" y2="177.16"/><path class="cls-3" d="M131.25,65.07a78.63,78.63,0,0,1-78.62,78.62"/><rect class="cls-2" x="52.63" y="65.07" width="160.43" height="137.06"/><line class="cls-4" x1="52.63" y1="65.07" x2="54.19" y2="66.64"/><line class="cls-5" x1="57.3" y1="69.75" x2="105.55" y2="117.99"/><line class="cls-4" x1="107.11" y1="119.55" x2="108.67" y2="121.12"/><line class="cls-2" x1="372.96" y1="65.07" x2="260.87" y2="177.16"/><rect class="cls-2" x="260.87" y="65.07" width="160.43" height="137.06"/><path class="cls-3" d="M373,65.07A112.11,112.11,0,0,1,260.87,177.16"/><line class="cls-6" x1="260.87" y1="65.07" x2="370.03" y2="65.07"/><line class="cls-7" x1="260.87" y1="65.07" x2="263.02" y2="65.07"/><line class="cls-8" x1="267.22" y1="65.07" x2="365.78" y2="65.07"/><line class="cls-7" x1="367.88" y1="65.07" x2="370.03" y2="65.07"/><text class="cls-9" transform="translate(62.63 45.76)">b<tspan class="cls-10" x="11.82" y="0">ev</tspan><tspan class="cls-11" x="32.88" y="0">el</tspan></text><text class="cls-9" transform="translate(270.87 45.76)">b<tspan class="cls-10" x="11.82" y="0">ev</tspan><tspan class="cls-11" x="32.88" y="0">el * 1.41</tspan></text></svg>