<svg id="Livello_1" data-name="Livello 1" xmlns="http://www.w3.org/2000/svg" xmlns:xlink="http://www.w3.org/1999/xlink" viewBox="0 0 537.84 384.48"><defs><style>.cls-1{fill:#ffaf2e;}.cls-2,.cls-6,.cls-7,.cls-9{fill:#fafafd;}.cls-3{fill:#10121e;}.cls-20,.cls-4{fill:#0d0f20;}.cls-11,.cls-17,.cls-19,.cls-22,.cls-5{fill:#fff;}.cls-6{font-size:36.65px;}.cls-17,.cls-6,.cls-7,.cls-9{font-family:Lora-Regular, Lora;}.cls-7,.cls-9{font-size:16.1px;}.cls-7{letter-spacing:-0.03em;}.cls-8{letter-spacing:0em;}.cls-10{letter-spacing:-0.02em;}.cls-11{font-size:23.61px;font-family:Lora-Bold, Lora;font-weight:700;}.cls-12{letter-spacing:-0.01em;}.cls-13{letter-spacing:-0.01em;}.cls-14{letter-spacing:-0.08em;}.cls-15,.cls-16,.cls-23{fill:none;}.cls-15{stroke:#fff;stroke-width:2.32px;stroke-dasharray:19.9 4.97;}.cls-15,.cls-16,.cls-20,.cls-23{stroke-miterlimit:10;}.cls-16{stroke:#fafafd;stroke-width:0.54px;stroke-dasharray:2.18 4.35;}.cls-17{font-size:27.39px;}.cls-18{letter-spacing:-0.01em;}.cls-19{font-size:57.06px;font-family:Limelight-Regular, Limelight;}.cls-20,.cls-23{stroke:#0d0f20;stroke-width:2.58px;}.cls-21{clip-path:url(#clip-path);}.cls-22{opacity:0.41;}.cls-24{clip-path:url(#clip-path-2);}</style><clipPath id="clip-path"><path class="cls-1" d="M414.74,237.25l-8.37-.67-3.91,3.34-15.52,13.22-.67,8.38c5.42,6.34,8.84,10.36,13.59,15.94l3,3.49,8.38.66,19.43-16.56.66-8.37C424.84,249.09,421.21,244.83,414.74,237.25Z"/></clipPath><clipPath id="clip-path-2"><path class="cls-1" d="M397.71,235.13l-8.35.93-3.21,4c-4.4,5.5-7.66,9.58-12.75,15.92l.93,8.35,16.35,13.09,3.58,2.86,8.35-.92,15.95-19.94-.92-8.34Z"/></clipPath></defs><rect class="cls-2" x="-166.32" y="-103.68" width="1419.12" height="611.28"/><path class="cls-3" d="M364,317.35v-9.79a12.11,12.11,0,0,0-12.09-12.1h-9.79V89h9.79A12.09,12.09,0,0,0,364,77V67.16h75.49L461.1,88.82V295.66l-21.66,21.69Z"/><path class="cls-4" d="M438.53,69.33l20.39,20.39v205l-20.39,20.41h-72.4v-7.61a14.29,14.29,0,0,0-14.27-14.28h-7.62V91.2h7.62A14.28,14.28,0,0,0,366.13,77V69.33h72.4M440.34,65H361.78V77a9.92,9.92,0,0,1-9.92,9.89h-12v210.8h12a9.93,9.93,0,0,1,9.92,9.92v12h78.56l1.27-1.27L462,297.84l1.27-1.28V87.91L462,86.64,441.61,66.25,440.34,65Z"/><path class="cls-3" d="M98.4,317.32,76.74,295.66V88.82L98.4,67.13H326.18v9.79A12.12,12.12,0,0,0,338.28,89h9.79V295.46h-9.79a12.1,12.1,0,0,0-12.1,12.07v9.79Z"/><path class="cls-4" d="M324,69.31v7.61A14.28,14.28,0,0,0,338.28,91.2h7.61V293.28h-7.61A14.27,14.27,0,0,0,324,307.53v7.62H99.31L78.92,294.76v-205L99.31,69.31H324M328.36,65H97.5l-1.27,1.27L75.84,86.64l-1.27,1.28V296.57l1.27,1.27,20.39,20.39,1.27,1.27H328.36v-12a9.92,9.92,0,0,1,9.92-9.89h12V86.84h-12a9.93,9.93,0,0,1-9.92-9.92V65Z"/><path class="cls-4" d="M367.13,305.47v-6.62a15.29,15.29,0,0,0-15.27-15.27h-6.61V92.2h6.61A15.28,15.28,0,0,0,367.13,77V70.33h71l19.8,19.8V285.65l-19.8,19.82Z"/><path class="cls-5" d="M437.71,71.33l19.21,19.21V285.23l-19.21,19.24H368.13v-5.62a16.29,16.29,0,0,0-16.27-16.27h-5.62V93.2h5.62A16.28,16.28,0,0,0,368.13,77V71.33h69.58m.82-2h-72.4V77A14.28,14.28,0,0,1,351.86,91.2h-7.62V284.58h7.62a14.28,14.28,0,0,1,14.27,14.27v7.62h72.4l20.39-20.41V89.72L438.53,69.33Z"/><path class="cls-4" d="M99.72,305.45l-19.8-19.8V90.13l19.8-19.82H323v6.61A15.29,15.29,0,0,0,338.28,92.2h6.61V283.58h-6.61A15.28,15.28,0,0,0,323,298.83v6.62Z"/><path class="cls-5" d="M322,71.31v5.61A16.29,16.29,0,0,0,338.28,93.2h5.61V282.58h-5.61A16.28,16.28,0,0,0,322,298.83v5.62H100.13L80.92,285.23V90.54l19.21-19.23H322m2-2H99.31L78.92,89.72V286.06l20.39,20.39H324v-7.62a14.27,14.27,0,0,1,14.27-14.25h7.61V91.2h-7.61A14.28,14.28,0,0,1,324,76.92V69.31Z"/><text class="cls-6" transform="translate(113.48 152)">Madrid</text><text class="cls-7" transform="translate(107.48 115.27)">P<tspan class="cls-8" x="9.21" y="0">ARTENZA:</tspan></text><text class="cls-9" transform="translate(113.48 186.57)">ARRI<tspan class="cls-10" x="35.69" y="0">V</tspan><tspan x="45.96" y="0">O:</tspan></text><text class="cls-6" transform="translate(113.11 226.57)">Zurich</text><text class="cls-11" transform="translate(136.23 277.13) rotate(-3.13)"><tspan class="cls-12">N</tspan><tspan class="cls-13" x="18.02" y="0">O</tspan><tspan x="35.89" y="0">N </tspan><tspan class="cls-14" x="60.35" y="0">V</tspan><tspan x="75.25" y="0">ALIDO</tspan></text><rect class="cls-15" x="125.39" y="245.08" width="170.3" height="39.08" rx="9.16" transform="translate(-14.15 11.9) rotate(-3.13)"/><line class="cls-16" x1="113.38" y1="156.17" x2="295.8" y2="156.17"/><line class="cls-16" x1="113.38" y1="231.03" x2="295.8" y2="231.03"/><text class="cls-17" transform="translate(366.05 205.32)">pu<tspan class="cls-18" x="32.7" y="0">n</tspan><tspan x="49.07" y="0">ti</tspan></text><text class="cls-19" transform="translate(370.5 179.2)">-8</text><path class="cls-20" d="M414.52,240l-8.37-.67-3.92,3.34-15.51,13.22-.67,8.37c5.42,6.35,8.83,10.37,13.59,16l3,3.49,8.38.66,19.43-16.56.66-8.37C424.62,251.86,421,247.6,414.52,240Z"/><path class="cls-1" d="M414.74,237.25l-8.37-.67-3.91,3.34-15.52,13.22-.67,8.38c5.42,6.34,8.84,10.36,13.59,15.94l3,3.49,8.38.66,19.43-16.56.66-8.37C424.84,249.09,421.21,244.83,414.74,237.25Z"/><g class="cls-21"><rect class="cls-22" x="398.25" y="263.88" width="42.62" height="11.4" transform="translate(-66.48 381.23) rotate(-45.66)"/></g><path class="cls-23" d="M414.74,237.25l-8.37-.67-3.91,3.34-15.52,13.22-.67,8.38c5.42,6.34,8.84,10.36,13.59,15.94l3,3.49,8.38.66,19.43-16.56.66-8.37C424.84,249.09,421.21,244.83,414.74,237.25Z"/><path class="cls-20" d="M398,237.89l-8.34.93-3.22,4c-4.4,5.51-7.66,9.58-12.74,15.92l.92,8.35L391,280.19l3.58,2.86,8.34-.92,16-19.93-.93-8.35Z"/><path class="cls-1" d="M397.71,235.13l-8.35.93-3.21,4c-4.4,5.5-7.66,9.58-12.75,15.92l.93,8.35,16.35,13.09,3.58,2.86,8.35-.92,15.95-19.94-.92-8.34Z"/><g class="cls-24"><rect class="cls-22" x="387.23" y="260.27" width="42.62" height="11.4" transform="translate(-38.62 460.14) rotate(-56.54)"/></g><path class="cls-23" d="M397.71,235.13l-8.35.93-3.21,4c-4.4,5.5-7.66,9.58-12.75,15.92l.93,8.35,16.35,13.09,3.58,2.86,8.35-.92,15.95-19.94-.92-8.34Z"/></svg>