<svg id="Livello_1" data-name="Livello 1" xmlns="http://www.w3.org/2000/svg" xmlns:xlink="http://www.w3.org/1999/xlink" viewBox="0 0 1080 540"><defs><style>.cls-1,.cls-14,.cls-2,.cls-24,.cls-25,.cls-26,.cls-35,.cls-6{fill:none;}.cls-2,.cls-21,.cls-23{stroke:#000;}.cls-10,.cls-12,.cls-14,.cls-16,.cls-17,.cls-18,.cls-19,.cls-2,.cls-21,.cls-23,.cls-24,.cls-25,.cls-26,.cls-29,.cls-30,.cls-31,.cls-32,.cls-33,.cls-35,.cls-4,.cls-5,.cls-6,.cls-7,.cls-8,.cls-9{stroke-miterlimit:10;}.cls-21,.cls-3,.cls-32,.cls-33{fill:#fafafd;}.cls-11,.cls-15,.cls-18,.cls-22,.cls-27,.cls-29,.cls-37,.cls-4,.cls-9{fill:#0d0f20;}.cls-4,.cls-6,.cls-9{stroke:#10121e;}.cls-4{stroke-width:1.34px;}.cls-12,.cls-19,.cls-30,.cls-34,.cls-36,.cls-5{fill:#fff;}.cls-10,.cls-12,.cls-14,.cls-16,.cls-17,.cls-18,.cls-19,.cls-24,.cls-25,.cls-26,.cls-29,.cls-30,.cls-33,.cls-5,.cls-7,.cls-8{stroke:#0d0f20;}.cls-5,.cls-7,.cls-8{stroke-width:2.12px;}.cls-6{stroke-width:2.68px;}.cls-10,.cls-7{fill:#ffaf2e;}.cls-16,.cls-20,.cls-31,.cls-8{fill:#205aed;}.cls-9{stroke-width:1.9px;}.cls-10,.cls-12,.cls-16,.cls-17,.cls-21{stroke-width:1.76px;}.cls-11{font-size:43.01px;font-family:Lora-Bold, Lora;font-weight:700;}.cls-13{opacity:0.57;}.cls-14{stroke-width:2.64px;}.cls-17{fill:#e52e37;}.cls-18,.cls-19{stroke-width:3.56px;}.cls-22{font-size:41.36px;}.cls-22,.cls-27,.cls-34,.cls-36,.cls-37{font-family:Lora-Regular, Lora;}.cls-23{stroke-width:0.9px;fill:url(#Nuovo_pattern);}.cls-24,.cls-25,.cls-26{stroke-width:0.98px;}.cls-25{stroke-dasharray:8.97 5.98;}.cls-26{stroke-dasharray:9.89 6.59;}.cls-27{font-size:25.83px;}.cls-28{letter-spacing:0em;}.cls-29,.cls-30{stroke-width:2.86px;}.cls-31,.cls-32,.cls-35{stroke:#fff;}.cls-31,.cls-32,.cls-33{stroke-width:2.47px;}.cls-34{font-size:35.92px;}.cls-35{stroke-width:0.88px;}.cls-36,.cls-37{font-size:20.37px;}</style><pattern id="Nuovo_pattern" data-name="Nuovo pattern" width="28.67" height="39.88" patternTransform="translate(-82.15 68.4) scale(1 0.92)" patternUnits="userSpaceOnUse" viewBox="0 0 28.67 39.88"><rect class="cls-1" width="28.67" height="39.88"/><line class="cls-2" x1="20.55" y1="80.99" x2="36.79" y2="38.64"/><line class="cls-2" x1="6.22" y1="80.99" x2="22.45" y2="38.64"/><line class="cls-2" x1="-8.12" y1="80.99" x2="8.12" y2="38.64"/><line class="cls-2" x1="20.55" y1="41.12" x2="36.79" y2="-1.24"/><line class="cls-2" x1="6.22" y1="41.12" x2="22.45" y2="-1.24"/><line class="cls-2" x1="-8.12" y1="41.12" x2="8.12" y2="-1.24"/><line class="cls-2" x1="20.55" y1="1.24" x2="36.79" y2="-41.11"/><line class="cls-2" x1="6.22" y1="1.24" x2="22.45" y2="-41.11"/><line class="cls-2" x1="-8.12" y1="1.24" x2="8.12" y2="-41.11"/></pattern></defs><polyline class="cls-3" points="-32.44 1357.26 -32.44 -819.29 3432.09 -819.29 3432.09 1357.26"/><path class="cls-4" d="M611.23,111.69H463.93l-9.6-9.6V74.86l9.6-9.61h147.3l9.6,9.61v27.23Z"/><path class="cls-5" d="M611.23,103.8H463.93l-9.6-9.6V67l9.6-9.61h147.3l9.6,9.61V94.2Z"/><path class="cls-6" d="M620.83,67v35.12c-3.74,3.75-5.84,5.86-9.6,9.61H463.93l-9.61-9.61V67c3.76-3.74,5.86-5.84,9.61-9.59h147.3Z"/><path class="cls-4" d="M806.2,111.69H658.9l-9.6-9.6V74.86l9.6-9.6H806.2l9.6,9.6v27.23Z"/><path class="cls-7" d="M806.2,103.8H658.9l-9.6-9.6V67l9.6-9.6H806.2l9.6,9.6V94.2Z"/><path class="cls-6" d="M815.8,67v35.12c-3.75,3.74-5.85,5.86-9.61,9.6H658.9c-3.75-3.74-5.85-5.86-9.61-9.6V67l9.61-9.6H806.19Z"/><path class="cls-4" d="M421.11,111.68H273.81l-9.6-9.6V74.85l9.6-9.6h147.3l9.6,9.6v27.23Z"/><path class="cls-8" d="M421.11,103.79H273.81l-9.6-9.6V67l9.6-9.6h147.3l9.6,9.6V94.19Z"/><path class="cls-6" d="M430.71,67v35.12c-3.75,3.75-5.85,5.86-9.61,9.61H273.81l-9.61-9.61V67l9.61-9.59H421.1C424.86,61.11,427,63.21,430.71,67Z"/><path class="cls-9" d="M306.68,188.78h-31.3l-8.62-8.61V152.35l8.62-8.62h31.3l8.61,8.62v27.82Z"/><path class="cls-10" d="M307.33,182.24h-32.6l-8-8V151.7l8-8h32.6l8,8v22.58Z"/><text class="cls-11" transform="translate(279.99 179.33)">+</text><path class="cls-9" d="M385.44,188.78H354.13l-8.61-8.61V152.35l8.61-8.62h31.31l8.61,8.62v27.82Z"/><path class="cls-12" d="M386.09,182.24H353.48l-8-8V151.7l8-8h32.61l8,8v22.58Z"/><text class="cls-11" transform="translate(359.63 179.33)">-</text><g class="cls-13"><path class="cls-9" d="M474.47,190.67H443.16l-8.61-8.61V154.23l8.61-8.61h31.31l8.61,8.61v27.83Z"/><path class="cls-10" d="M475.12,184.13h-32.6l-8-8V153.58l8-8h32.6l8,8v22.59Z"/><text class="cls-11" transform="translate(447.78 181.22)">+</text><path class="cls-9" d="M553.23,190.67H521.92l-8.61-8.61V154.23l8.61-8.61h31.31l8.61,8.61v27.83Z"/><path class="cls-12" d="M553.88,184.13H521.27l-8-8V153.58l8-8h32.61l8,8v22.59Z"/><text class="cls-11" transform="translate(527.42 181.22)">-</text></g><path class="cls-9" d="M649,190.67h-31.3l-8.62-8.61V154.23l8.62-8.61H649l8.61,8.61v27.83Z"/><path class="cls-10" d="M649.64,184.13H617l-8-8V153.58l8-8h32.6l8,8v22.59Z"/><line class="cls-14" x1="624.1" y1="175.49" x2="641.58" y2="158.01"/><polygon class="cls-15" points="643.03 171.83 640.39 171.73 640.86 158.73 627.86 159.21 627.76 156.56 643.6 155.99 643.03 171.83"/><path class="cls-9" d="M729,190.67h-31.3l-8.62-8.61V154.23l8.62-8.61H729l8.62,8.61v27.83Z"/><path class="cls-16" d="M729.64,184.13H697l-8-8V153.58l8-8h32.6l8,8v22.59Z"/><path class="cls-3" d="M722.11,168.65a4.79,4.79,0,0,0-3.61,1.63l-10.27-4.65a5.12,5.12,0,0,0,.06-.78v-.19l11-3.81a4.82,4.82,0,1,0-.92-2.83c0,.11,0,.23,0,.35l-10.93,3.78a4.82,4.82,0,1,0-.37,5.86l10.27,4.66a5.16,5.16,0,0,0-.07.79,4.81,4.81,0,1,0,4.81-4.81Z"/><path class="cls-9" d="M807.19,190.67H775.88l-8.61-8.61V154.23l8.61-8.61h31.31l8.61,8.61v27.83Z"/><path class="cls-17" d="M807.84,184.13H775.23l-8-8V153.58l8-8h32.61l8,8v22.59Z"/><path class="cls-3" d="M800.3,168.65a4.79,4.79,0,0,0-3.6,1.63l-10.28-4.65a5.14,5.14,0,0,0,.07-.78c0-.07,0-.13,0-.19l11-3.81a4.81,4.81,0,1,0-.93-2.83c0,.11,0,.23,0,.35l-10.94,3.78a4.82,4.82,0,1,0-.37,5.86l10.27,4.66a5.16,5.16,0,0,0-.07.79,4.82,4.82,0,1,0,4.81-4.81Z"/><path class="cls-18" d="M365.59,304h-5.77l-18.73-18.73v-5.38l18.73-18.73h5.77l18.73,18.73v5.38Z"/><path class="cls-18" d="M435.53,304h-5.77L411,285.27v-5.38l18.73-18.73h5.77l18.73,18.73v5.38Z"/><path class="cls-19" d="M365.59,298.9h-5.77l-18.73-18.73v-5.39l18.73-18.73h5.77l18.73,18.73v5.39Z"/><path class="cls-19" d="M435.53,298.9h-5.77L411,280.17v-5.39l18.73-18.73h5.77l18.73,18.73v5.39Z"/><path class="cls-20" d="M434.85,293.8h-4.4l-14.27-14.27v-4.1l14.27-14.27h4.4l14.26,14.27v4.1Z"/><rect class="cls-21" x="264.2" y="385.67" width="224.26" height="79.07"/><text class="cls-22" transform="translate(287.54 429.54)">input...|</text><rect class="cls-3" x="264.2" y="445.26" width="224.26" height="19.58"/><rect class="cls-23" x="264.2" y="445.26" width="224.26" height="19.58"/><polyline class="cls-24" points="725.27 306.2 725.27 310.62 720.86 310.62"/><line class="cls-25" x1="714.88" y1="310.61" x2="508.62" y2="310.61"/><polyline class="cls-24" points="505.63 310.62 501.22 310.62 501.22 306.2"/><line class="cls-26" x1="501.22" y1="299.61" x2="501.22" y2="253.46"/><polyline class="cls-24" points="501.22 250.16 501.22 245.75 505.63 245.75"/><line class="cls-25" x1="511.61" y1="245.75" x2="717.87" y2="245.75"/><polyline class="cls-24" points="720.86 245.75 725.27 245.75 725.27 250.16"/><line class="cls-26" x1="725.27" y1="256.75" x2="725.27" y2="302.91"/><text class="cls-27" transform="translate(578.81 288.22)">Ch<tspan class="cls-28" x="33.53" y="0">e</tspan><tspan x="47.4" y="0">ckb</tspan><tspan class="cls-28" x="90.04" y="0">o</tspan><tspan x="105.02" y="0">x</tspan></text><path class="cls-29" d="M542.51,297.78h-4.63l-15-15v-4.33l15-15h4.63l15,15v4.33Z"/><path class="cls-30" d="M542.51,293.68h-4.63l-15-15v-4.32l15-15h4.63l15,15v4.32Z"/><path class="cls-20" d="M542,289.59h-3.53L527,278.14v-3.3l11.45-11.45H542l11.45,11.45v3.3Z"/><polygon class="cls-15" points="729.14 480.85 718.62 470.33 705 470.33 694.48 480.85 683.51 480.85 672.99 470.33 660.61 470.33 650.08 480.85 639.11 480.85 628.59 470.33 614.97 470.33 604.45 480.85 593.47 480.85 582.95 470.33 570.06 470.33 559.64 459.9 559.64 388.65 570.06 378.23 762.36 378.23 772.78 388.65 772.78 459.9 762.36 470.33 750.64 470.33 740.12 480.85 729.14 480.85"/><path class="cls-15" d="M761.63,380l9.39,9.39v69.8c-3.67,3.66-5.73,5.72-9.39,9.39H749.91l-10.52,10.52h-9.52l-10.52-10.52H704.28l-10.53,10.52h-9.51l-10.53-10.52H659.88l-10.53,10.52h-9.51l-10.53-10.52H614.24l-10.52,10.52H594.2l-10.52-10.52H570.79l-9.39-9.39v-69.8c3.66-3.67,5.72-5.73,9.39-9.39H761.63m1.45-3.52H569.33l-1,1-3.41,3.41-6,6-1,1v72.71l1,1,2.48,2.49,6.91,6.9,1,1h12.89l9.49,9.5,1,1h12.43l1-1,9.49-9.5h12.16l9.49,9.5,1,1h12.43l1-1,9.49-9.5h10.93l9.49,9.5,1,1h12.43l1-1,9.49-9.5h12.16l9.5,9.5,1,1h12.43l1-1,9.49-9.5h11.71l1-1,3.8-3.79,5.6-5.6,1-1V387.92l-1-1-3.41-3.41-6-6-1-1Z"/><path class="cls-31" d="M771,389.38v48.91H561.4V389.38c3.66-3.68,5.73-5.73,9.39-9.39H761.63C765.29,383.65,767.35,385.7,771,389.38Z"/><path class="cls-32" d="M771,438.29v12.23c-3.67,3.66-5.73,5.71-9.39,9.39H570.79c-3.66-3.68-5.73-5.73-9.39-9.39V438.29Z"/><path class="cls-33" d="M594.37,473.43l-8.94-8.94v-9.17l8.94-8.94h9.18l8.94,8.94v9.17l-8.94,8.94Z"/><path class="cls-33" d="M640,473.43l-8.94-8.94v-9.17l8.94-8.94h9.17l8.94,8.94v9.17l-8.94,8.94Z"/><path class="cls-33" d="M684.41,473.43l-8.94-8.94v-9.17l8.94-8.94h9.17l8.94,8.94v9.17l-8.94,8.94Z"/><path class="cls-33" d="M730,473.43l-8.94-8.94v-9.17l8.94-8.94h9.18l8.94,8.94v9.17l-8.94,8.94Z"/><text class="cls-34" transform="translate(604.39 424.46)">input...|</text><rect class="cls-35" x="64.97" y="-39.82" width="950.06" height="633.37"/><text class="cls-36" transform="translate(679.09 88.47)">PULSANTE</text><text class="cls-36" transform="translate(286.84 88.47)">PULSANTE</text><text class="cls-37" transform="translate(481.81 88.47)">PULSANTE</text></svg>