<svg id="Livello_1" data-name="Livello 1" xmlns="http://www.w3.org/2000/svg" xmlns:xlink="http://www.w3.org/1999/xlink" viewBox="0 0 1080 540"><defs><style>.cls-1{fill:#ffaf2e;}.cls-2{fill:#fafafd;}.cls-3,.cls-7{fill:#0d0f20;}.cls-4{fill:#205aed;}.cls-5{fill:#e52e37;}.cls-6{fill:#4ace6c;}.cls-10,.cls-7{stroke:#0d0f20;stroke-width:5.37px;}.cls-10,.cls-12,.cls-7{stroke-miterlimit:10;}.cls-8{clip-path:url(#clip-path);}.cls-9{fill:#fff;opacity:0.41;}.cls-10,.cls-12{fill:none;}.cls-11{clip-path:url(#clip-path-2);}.cls-12{stroke:#fff;stroke-width:0.74px;}</style><clipPath id="clip-path"><path class="cls-1" d="M807.86,330.88l-17.45-1.39-8.15,6.95C771.09,346,762.82,353,749.92,364l-1.39,17.45c11.3,13.23,18.41,21.6,28.32,33.22l6.2,7.27,17.45,1.39L841,388.82l1.39-17.45Z"/></clipPath><clipPath id="clip-path-2"><path class="cls-1" d="M772.36,326.47,755,328.4l-6.7,8.36c-9.17,11.47-16,20-26.55,33.17l1.92,17.4c13.59,10.86,22.16,17.73,34.08,27.28l7.46,6,17.4-1.93c13-16.22,20.26-25.32,33.25-41.53l-1.93-17.4Z"/></clipPath></defs><polyline class="cls-2" points="-2232.44 2097.26 -2232.44 -79.29 1232.09 -79.29 1232.09 2097.26"/><polygon class="cls-3" points="565.97 461.26 558 448.15 558 437.07 581.95 407.35 575.86 399.6 543.82 399.95 515.86 450.89 492.13 452.23 476.93 371.23 476.93 360.11 517.84 335.35 531.91 290.83 561.21 291.34 612.15 332.57 613.27 350.83 626.91 370.54 649.2 380.51 656.94 413.64 656.94 424.66 633 444.29 592.58 467.35 565.97 461.26"/><path class="cls-3" d="M533,292.3l27.72.49,50,40.5,1.1,18,14.1,20.37,22,9.85,7.54,32.27V424l-23.32,19.12-39.82,22.72L566.89,460l-7.44-12.24V437.58l24.36-30.22-7.25-9.22-33.6.37-28,51-21.65,1.22-14.94-79.62V360.93l40.68-24.62,13.91-44m-2.11-2.94-.66,2.07-13.58,43-39.74,24.06-1.4.84v12.07l0,.27,14.94,79.62.47,2.5,2.55-.14,21.65-1.22,1.6-.09.78-1.41,27.16-49.49,30.48-.34,4.93,6.28-22.9,28.42-.64.8v12l.42.69,7.44,12.24.64,1.05,1.2.27,25.45,5.83,1.11.25,1-.56,39.82-22.71.21-.13.19-.15,23.32-19.12,1.07-.87V413.48l-.08-.33-7.55-32.27-.32-1.4-1.32-.59-21.26-9.51,0-.07-13.14-19-1.05-17.22-.08-1.28-1-.8-50.06-40.51-.77-.63-1,0L533,289.4l-2.16,0Z"/><path class="cls-4" d="M610.74,333.29l1.1,18,14.1,20.37,22,9.85,7.54,32.27-23.32,19.12-39.82,22.72-25.46-5.83-7.44-12.24,28.4-35.24L576.56,388l-33.6.37-28,51-21.65,1.22-14.94-79.62,40.68-24.62,13.91-44,27.72.49Z"/><path class="cls-2" d="M526.41,313.07l-3,9.63h0v0h0v0l0,.06h0l0,.07h0c-.71,2.22-1.25,3.93-1.25,3.93l2.77.87,4.38-13.84-2.77-.87Zm-6.56,20.76-.68,2.15h0v0h0v0h0v.05h0l0,.11h0l-10.19,6.17,1.5,2.48,10.2-6.17.93-.56.33-1.05.78-2.48-2.76-.87Zm-17.19,12.41-12.42,7.52,1.5,2.48,12.42-7.52-1.5-2.48ZM484,357.51l-5.15,3.12h0l0,0h0l0,0h-.21l0,0h0l-.19.11h0l0,.08h0v0h0l0,.07h0l1.42,7.54,2.85-.53-1.09-5.81,3.92-2.37-1.5-2.49Zm0,17.8-2.86.54,1.31,7h0v.09h0l1.35,7.19,2.85-.54L484,375.31Zm4,21.41-2.85.53,2.45,13.07h0v0h0v0h0v0h0v0h0v0h0v0h0v0h0v0h0l.05.27h0l.12.61,2.85-.54-2.68-14.26Zm4,21.4-2.86.53.48,2.54h0l0,.06h0l0,.13h0c.78,4.14,2.16,11.51,2.16,11.51l2.86-.53-2.68-14.27Zm15.08,18.74-14,.79.13,2.39h0l-.13-2.39.13,2.39-.06,0,.09.49h0l14-.79-.17-2.9Zm12.07-11.3-6.79,12.37,2.12,1.16h0l-2.12-1.16,2.12,1.16v.26l.41,0h0l.06-.11h0L521.76,427l-2.54-1.4Zm10.48-19.09-7,12.73,2.54,1.39s3.27-5.94,5.33-9.7h0l0-.07,1.61-2.94-2.54-1.4Zm10.47-19.09-7,12.73,2.54,1.4,4.66-8.49h0l0-.07v0h0v0h0l2.26-4.12-2.55-1.4Zm24-2.17-14.52.16,0,2.9,1.9,0h.1l12.52-.13,0-2.91Zm13.75-.15-1.43,0-5.07.05,0,2.91,4.75-.06h.33l5.82,7.4,2.28-1.79-5.84-7.43-.88-1.13Zm11.21,14.27-2.28,1.79.94,1.2h0l-.35.44h0l-.29.35h0l-.1.13h0l0,0h0l0,0h0l-.06.07h0l-.09.12h0l0,0h0v0h0l0,0h0l0,0h0l0,0h0l0,0,0,0h0v0h0l0,0h0l0,0h0l0,0h0v0h0v0h0v0h0l0,0h0l0,0h0l0,0,0,0h0l0,0h0l0,0h0l0,0h0l0,0h0v0h0v0h0v0h0v0h0v0h0l0,0h0v0h0v0h0l0,0h0l0,.06h0l0,0h0l0,.06h0l-.06.08h0l0,0h0l0,.07h0l-6,7.41,2.26,1.82,8.13-10.1,1.45-1.8-1.43-1.81-1-1.22Zm-14,18.76-9.11,11.3,2.26,1.82,9.11-11.3-2.26-1.82ZM561.5,435l-2,2.44h0l0,0h0l0,.05h0l.25.41h0c.07.13.17.29.28.47h0l.09.14h0l.09.15h0l.05.08h0l0,.08h0l0,0h0l0,0h0l0,0h0v0h0v0h0l0,0h0l0,0h0v0l0,.06h0v0h0l0,0h0l0,.05h0l0,0h0l0,0h0l0,0v0h0l0,0h0v0l0,0v0h0l0,.05h0l0,0h0v0h0l0,0h0v0h0v0h0l0,.05h0v0h0v0h0l.09.14h0l0,0h0l.45.74h0l0,0h0l3.66,6,2.48-1.51L563,437.82l.77-1L561.5,435Zm10.13,12.88-.65,2.83L585.13,454l.65-2.83-14.15-3.24ZM603.4,446l-12.49,7.12,1.33,2.34h0l-1.33-2.34,1.33,2.34,0,.15.14,0h0l12.48-7.12L603.4,446Zm18.91-10.79-12.61,7.2,1.44,2.52,12.61-7.19-1.44-2.53ZM639.67,423l-9.15,7.5-1.9,1.09,1.43,2.52,2.12-1.21h0l.11-.09h0l.12-.1h0l0,0h0l0,0h0l0,0h0l.05,0h.06v0h.05l0,0h0l8.74-7.17L639.67,423Zm15-12.82-2.83.66.43,1.84-7,5.72,1.84,2.24,7.72-6.33h.06l0,0h0l0,0h0l0,0h0l0,0h.06l.06,0h0l.08-.06h0l.11-.09h0l.09-.08h0l-.84-3.6Zm-5-21.2-2.83.66,3.31,14.13,2.83-.66-1.79-7.64,0-.07h0v-.05h0L649.69,389Zm-14.63-13.23-1.18,2.65,12.88,5.76,1-2.18h0l-1,2.18,1-2.18.3-.07-.09-.39h0l-12.88-5.76ZM619.24,362l-2.39,1.65,5.68,8.2,1,1.49.46.66.74.33,2.49,1.12,1.19-2.65-2.5-1.12h0l-.61-.89c-.14-.2-.28-.39-.41-.59l-1.79-2.58-3.81-5.5-.08-.12Zm-7.93-19.45-2.9.17.54,8.77,0,.81.47.67,3.26,4.71,2.39-1.65-3.27-4.72h0v-.09h0v0h0v0h0v0h0l-.52-8.5ZM601,325.43l-1.83,2.26,8.72,7.06.05.74.81-.05.13.11.11-.13h0l-.11.13.11-.13,1.84-.11-.12-2h0l-.42-.33h0l-.48-.38h0l-.29-.24h0l-.16-.13h0l-.08-.06h-.08l0,0h0l0,0h0l0,0h0l0,0h0l0,0h0l-.08-.07h0l0,0h0l0,0h0l0,0h0l0,0h0l-.09-.07h0l0,0h0l0,0h0l0,0h0l0,0h0l-.07-.05,0,0h0l0,0h0l-.05,0h0l0,0h0l0,0h0l0,0h0l-.06-.05h0l0,0h-.08l0,0h0l0,0h0l-.33-.27h0l-.12-.1h0l-.08-.06h0l-.2-.16h0L601,325.43Zm-16.93-13.7L582.27,314l11.29,9.13,1.82-2.25-10.63-8.61h0l0,0h-.14l0,0h0l-.43-.35ZM567.17,298l-1.82,2.26,11.28,9.13,1.83-2.25L567.17,298Zm-19.91-5.48,0,2.9,12.43.22.06.06,0-.06.88,0,0-1.14h0l0,1.14,0-1.14.88-1.08-.83-.67h-.59l-.66,0h-2.07l-10.12-.18ZM533,292.3l-4.37,13.84,2.76.88,3.73-11.78,4.86.09,0-2.91-6.1-.1H533Z"/><path class="cls-3" d="M618.15,118l33.71-37.67,138.72-7.69,37.67,33.71L834.5,219l-24.64,1.37-2.23-40.29a19.46,19.46,0,0,0-19.4-18.37l-1.1,0a19.47,19.47,0,0,0-18.33,20.49L771,222.51l-19.9,1.11-2.24-40.29A19.44,19.44,0,0,0,729.52,165c-.37,0-.73,0-1.1,0a19.46,19.46,0,0,0-18.34,20.49l2.23,40.29-19.9,1.11-2.23-40.29a19.44,19.44,0,0,0-19.39-18.38c-.36,0-.73,0-1.09,0a19.44,19.44,0,0,0-18.34,20.5L653.59,229l-29.19,1.62Z"/><path class="cls-5" d="M622.62,119.58l31.29-35L789,77.12l35,31.29,5.17,93.2-15.9.88-2-35.92a23.83,23.83,0,0,0-23.77-22.51c-.44,0-.89,0-1.34,0a23.84,23.84,0,0,0-22.45,25.11l2,35.92-11.16.62-2-35.92a23.82,23.82,0,0,0-23.76-22.51c-.44,0-.89,0-1.34,0A23.83,23.83,0,0,0,705,172.47l2,35.91-11.16.62-2-35.92a23.81,23.81,0,0,0-23.75-22.5c-.45,0-.89,0-1.34,0a23.86,23.86,0,0,0-22.47,25.11l2,35.92-20.45,1.14Z"/><path class="cls-2" d="M788.53,78.5l4.65,4.15L822.67,109l5.06,91.3-13.21.73-1.91-34.58a25.17,25.17,0,0,0-25.12-23.77q-.71,0-1.41,0a25.2,25.2,0,0,0-23.73,26.53l1.92,34.58-8.47.47-1.92-34.58A25.16,25.16,0,0,0,728.78,146c-.47,0-.94,0-1.41,0a25.2,25.2,0,0,0-23.74,26.53l1.92,34.57-8.47.47L695.16,173a25.17,25.17,0,0,0-25.1-23.78c-.47,0-.95,0-1.42,0A25.18,25.18,0,0,0,644.9,175.8l1.92,34.57-17.76,1L624,120.07l30.55-34.14,134-7.43m1-2.75L653.28,83.3l-32,35.8,5.28,95.1,23.14-1.29-2.07-37.26A22.49,22.49,0,0,1,668.79,152c.43,0,.85,0,1.27,0a22.48,22.48,0,0,1,22.41,21.24l2.07,37.26,13.84-.77-2.06-37.26a22.48,22.48,0,0,1,21.2-23.69l1.26,0a22.47,22.47,0,0,1,22.41,21.23l2.07,37.26,13.85-.76L765,169.13a22.49,22.49,0,0,1,21.19-23.69q.63,0,1.26,0a22.48,22.48,0,0,1,22.43,21.23L812,203.91l18.59-1-5.28-95.1-35.79-32Z"/><path class="cls-3" d="M494.46,92.35l-238.9,9.48-12.41,13.45,3.52,88.6L260.1,216.3l15.48-.62L288.9,228l14.32-.57,12.3-13.32,16.06-.64,13.33,12.31,14.32-.57,12.29-13.33,16.06-.63,13.33,12.3,14.32-.56,12.29-13.33,16.07-.64,13.32,12.31,14.32-.57,12.3-13.32,15.47-.62,12.41-13.44-3.52-88.6ZM248.33,117.16l9.54-10.33,234.68-9.32,10.33,9.55,2.19,55L250.51,172.15Z"/><path class="cls-2" d="M493.51,94.93l-236.79,9.39-11,11.9,3,74.46c4.63,4.28,7.25,6.68,11.88,11l6.38-.25v0l10.25-.41L277,194.9l11.18-12.1,12.21-.49,12.11,11.17.25,6.13,20.5-.81-.24-6.12,11.16-12.1,12.23-.49,12.11,11.17.24,6.13,20.51-.81-.25-6.13,11.17-12.09,12.22-.49L424.48,189l.25,6.12,20.5-.8-.24-6.14,11.16-12.1,12.23-.47,12.11,11.16.23,6.13,10.27-.4v0l6.38-.25c4.27-4.66,6.7-7.25,11-11.89l-2.95-74.47ZM505.07,162l-254.56,10.1-2.18-55,9.54-10.34,234.68-9.32,10.33,9.54Z"/><polygon class="cls-2" points="309.97 194.64 310.38 204.76 300.63 215.31 290.5 215.71 279.97 205.97 279.57 195.85 289.3 185.3 299.43 184.9 309.97 194.64"/><polygon class="cls-2" points="365.98 192.42 366.38 202.54 356.64 213.08 346.51 213.49 335.97 203.74 335.57 193.63 345.3 183.08 355.43 182.68 365.98 192.42"/><polygon class="cls-2" points="421.98 190.19 422.38 200.31 412.64 210.86 402.51 211.26 391.98 201.52 391.57 191.4 401.3 180.86 411.43 180.45 421.98 190.19"/><polygon class="cls-2" points="477.98 187.97 478.38 198.09 468.64 208.64 458.51 209.04 447.98 199.3 447.58 189.18 457.31 178.63 467.44 178.23 477.98 187.97"/><polygon class="cls-3" points="502.88 107.06 492.55 97.51 257.87 106.83 248.33 117.16 250.51 172.15 505.07 162.04 502.88 107.06"/><path class="cls-3" d="M196.87,431.43l-1-.82-5.47-74.15-1.69-22.65,15.44-17.9,100.2-7.41.22,3a11.1,11.1,0,0,0,11,10.26c.28,0,.55,0,.83,0a11.11,11.11,0,0,0,10.24-11.87l-.22-3L378.64,303l17.9,15.43,1.68,22.64,5.48,74.17-15.42,17.89L336.12,437l-.23-3a11.11,11.11,0,0,0-11-10.27c-.28,0-.55,0-.83,0a11.09,11.09,0,0,0-10.24,11.87l.22,3L213.81,446Z"/><path class="cls-2" d="M399.55,400.21c-5.38,6.25-8.4,9.75-13.8,16l-47.87,3.55a14.11,14.11,0,1,0-28.14,2.08l-95.93,7.09-16-13.78-5.94-80.31c5.38-6.24,8.41-9.74,13.79-16l95.93-7.09a14.11,14.11,0,0,0,14,13.08c.35,0,.69,0,1.06-.05a14.11,14.11,0,0,0,13-15.11l47.87-3.55c6.25,5.38,9.75,8.42,16,13.8Z"/><path class="cls-6" d="M319.89,404.44a16.84,16.84,0,0,0-12.82,14.89l-92.35,6.82-14.29-12.33-5.78-78.06.37-.44,12-13.87,92.34-6.82a16.9,16.9,0,0,0,14.89,12.82Z"/><path class="cls-7" d="M807.4,336.65,790,335.26l-8.15,6.95c-11.17,9.54-19.44,16.59-32.34,27.57l-1.39,17.44c11.3,13.23,18.41,21.6,28.32,33.23l6.2,7.26L800,429.1l40.49-34.51,1.39-17.45Z"/><path class="cls-1" d="M807.86,330.88l-17.45-1.39-8.15,6.95C771.09,346,762.82,353,749.92,364l-1.39,17.45c11.3,13.23,18.41,21.6,28.32,33.22l6.2,7.27,17.45,1.39L841,388.82l1.39-17.45Z"/><g class="cls-8"><rect class="cls-9" x="773.5" y="386.38" width="88.82" height="23.76" transform="translate(-38.58 704.87) rotate(-45.66)"/></g><path class="cls-10" d="M807.86,330.88l-17.45-1.39-8.15,6.95C771.09,346,762.82,353,749.92,364l-1.39,17.45c11.3,13.23,18.41,21.6,28.32,33.22l6.2,7.27,17.45,1.39L841,388.82l1.39-17.45Z"/><path class="cls-7" d="M773,332.22l-17.4,1.93-6.69,8.37c-9.17,11.47-16,20-26.56,33.17l1.93,17.39c13.59,10.86,22.15,17.74,34.08,27.28l7.46,6,17.39-1.92,33.25-41.54-1.92-17.4Z"/><path class="cls-1" d="M772.36,326.47,755,328.4l-6.7,8.36c-9.17,11.47-16,20-26.55,33.17l1.92,17.4c13.59,10.86,22.16,17.73,34.08,27.28l7.46,6,17.4-1.93c13-16.22,20.26-25.32,33.25-41.53l-1.93-17.4Z"/><g class="cls-11"><rect class="cls-9" x="750.53" y="378.86" width="88.82" height="23.76" transform="translate(30.63 838.46) rotate(-56.54)"/></g><path class="cls-10" d="M772.36,326.47,755,328.4l-6.7,8.36c-9.17,11.47-16,20-26.55,33.17l1.92,17.4c13.59,10.86,22.16,17.73,34.08,27.28l7.46,6,17.4-1.93c13-16.22,20.26-25.32,33.25-41.53l-1.93-17.4Z"/><rect class="cls-12" x="140.46" y="3.64" width="799.08" height="532.72"/></svg>