<svg version="1.1" xmlns="http://www.w3.org/2000/svg" xmlns:xlink="http://www.w3.org/1999/xlink" x="0px" y="0px"
    width="1080px" height="540px" viewBox="0 0 1080 540" style="overflow:visible;enable-background:new 0 0 1080 540;"
    xml:space="preserve">
    <style type="text/css">
        .white {fill: #FAFAFD;
        }
        .border {fill: #0D0F20;
        }
        .alt .v4-main,
        .alt .v6-main,
        .alt .v8-main,
        .v2-alt,
        .v3-alt {
            --blue: #6e97ea;
            --yellow: #feca80;
            --green: #91d899;
            --red: #f299a3;
            --black: #2c2e3d;
            animation: main var(--t) var(--d) linear infinite;
        }
        :root{
            --fac:0.735;
        }
        .ticket                {--t:5s; --d:calc(var(--fac) * 0s)}
        .bonus                 {--t:5s; --d:calc(var(--fac) * 1s)}
        .v1-main               {--t:5s; --d:calc(var(--fac) * 2s)}
        .v4-main,.alt .v4-main {--t:5s; --d:calc(var(--fac) * 3s)}
        .station               {--t:5s; --d:calc(var(--fac) * 4s)}
        .v6-main,.alt .v6-main {--t:5s; --d:calc(var(--fac) * 5s)}
        .v3-main,.v3-alt       {--t:5s; --d:calc(var(--fac) * 6s)}
        .v8-main,.alt .v8-main {--t:5s; --d:calc(var(--fac) * 7s)}
        .v2-main,.v2-alt       {--t:5s; --d:calc(var(--fac) * 8s)}


        .bonus,
        .station,
        .ticket,
        .v1-main,
        .v2-main,
        .v3-main,
        .v4-main,
        .v6-main,
        .v8-main {
            --blue: #205aed;
            --yellow: #ffaf2e;
            --green: #4ace6c;
            --red: #e52e37;
            --black: #0d0f20;
            animation: main var(--t) var(--d) linear infinite;
        }     


        @keyframes main {
              0%, 18%, 100% {fill: var(--blue)}
             20%, 38% {fill: var(--yellow)}
             40%, 58% {fill: var(--green)}
             60%, 78% {fill: var(--red)}
             80%, 98% {fill: var(--black)}
        }

    </style>
    <defs>
    </defs>
    <rect class="white" width="1080" height="540" />
    <g>
        <polygon class="border" points="881,488.3 875.2,478.8 875.2,470.7 892.6,449.1 888.1,443.5 864.9,443.7 844.6,480.7 827.3,481.7 
		816.3,422.9 816.3,414.8 846,396.8 856.2,364.5 877.5,364.9 914.5,394.8 915.3,408.1 925.2,422.4 941.4,429.6 947,453.7 947,461.7 
		929.6,476 900.3,492.7 	" />
        <path class="border" d="M857,365.6l20.1,0.4l36.4,29.4l0.8,13.1c3.7,5.3,6.6,9.5,10.2,14.8l16,7.2l5.5,23.4v7.4L929,475.1l-28.9,16.5
		l-18.5-4.2l-5.4-8.9v-7.4l17.7-21.9l-5.3-6.7l-24.4,0.3l-20.3,37l-15.7,0.9l-10.9-57.8v-7.4l29.5-17.9L857,365.6 M855.5,363.4
		l-0.5,1.5l-9.9,31.2l-28.9,17.5l-1,0.6v1.2v7.4v0.2l0,0.2l10.9,57.8l0.3,1.8l1.8-0.1l15.7-0.9l1.2-0.1l0.6-1l19.7-35.9l22.1-0.2
		l3.6,4.6l-16.6,20.6l-0.5,0.6v0.7v7.4v0.6l0.3,0.5l5.4,8.9l0.5,0.8l0.9,0.2l18.5,4.2l0.8,0.2l0.7-0.4l28.9-16.5l0.2-0.1l0.1-0.1
		l16.9-13.9l0.8-0.6v-1v-7.4v-0.2l-0.1-0.2l-5.5-23.4l-0.2-1l-1-0.4l-15.4-6.9l-9.6-13.8l-0.8-12.5l-0.1-0.9l-0.7-0.6l-36.4-29.4
		l-0.6-0.5l-0.7,0l-20.1-0.4L855.5,363.4L855.5,363.4z" />
    </g>
    <g>
        <path class="bonus" d="M913.5,395.3l0.8,13.1c3.7,5.3,6.6,9.5,10.2,14.8l16,7.2l5.5,23.4L929,467.7l-28.9,16.5l-18.5-4.2l-5.4-8.9
		l20.6-25.6l-8.2-10.4l-24.4,0.3l-20.3,37l-15.7,0.9l-10.8-57.8l29.5-17.9l10.1-32l20.1,0.4L913.5,395.3z" />
        <g>
            <path class="white" d="M852.2,380.6c0,0-2.3,7.4-3,9.5l0,0c0,0,0,0,0,0.1v0c0,0,0,0,0,0l0,0c0,0,0,0,0,0l0,0c0,0,0,0,0,0l0,0
			c0,0,0,0,0,0l0,0v0l0,0c0,0,0,0,0,0l0,0c0,0,0,0,0,0l0,0c0,0,0,0,0,0l0,0c0,0,0,0,0,0l0,0c0,0,0,0,0,0l0,0c0,0,0,0,0,0l0,0
			c0,0,0,0,0,0l0,0c0,0,0,0,0,0l0,0c0,0,0,0,0,0l0,0c0,0,0,0,0,0l0,0c0,0,0,0,0,0l0,0c0,0,0,0,0,0l0,0c0,0,0,0,0,0l0,0c0,0,0,0,0,0
			l0,0c0,0,0,0,0,0l-0.1,0.2l2,0.6l3.2-10.1L852.2,380.6L852.2,380.6z M847.5,395.7l-0.6,1.7l0,0l0,0c0,0,0,0,0,0l0,0c0,0,0,0,0,0
			l0,0c0,0,0,0,0,0l0,0c0,0,0,0,0,0l0,0c0,0,0,0,0,0l0,0c0,0,0,0,0,0l0,0c0,0,0,0,0,0v0c0,0,0,0,0,0l0,0c0,0,0,0,0,0l0,0l0,0
			c0,0,0,0-0.1,0.1l0,0c0,0-0.1,0-0.1,0.1h0c0,0,0,0,0,0l0,0c0,0,0,0,0,0l0,0c0,0,0,0,0,0l0,0c0,0,0,0,0,0l0,0c0,0,0,0,0,0l0,0
			c0,0,0,0,0,0l0,0c0,0,0,0,0,0l0,0c0,0,0,0,0,0l0,0c0,0,0,0,0,0l0,0c0,0,0,0,0,0l0,0c0,0,0,0,0,0l0,0c0,0,0,0,0,0l0,0c0,0,0,0,0,0
			l0,0c0,0,0,0,0,0l0,0c0,0,0,0,0,0l0,0l0,0l0,0c0,0,0,0,0,0l0,0c0,0,0,0,0,0l0,0c0,0,0,0,0,0l0,0l0,0l-7,4.2l1.1,1.8l7.4-4.5
			l0.7-0.4l0.2-0.8l0.6-1.8L847.5,395.7L847.5,395.7z M835,404.7l-9,5.5l1.1,1.8l9-5.5L835,404.7L835,404.7z M821.4,412.9l-4.1,2.5
			l0,0l0,0l0,0l0,0l0,0l0,0l0,0l0,0l0,0l0,0l0,0l0,0l0,0l0,0l1.1,5.7l2.1-0.4l-0.8-4.2l2.9-1.7L821.4,412.9L821.4,412.9z
			 M821.4,425.8l-2.1,0.4l1.9,10.4l2.1-0.4L821.4,425.8L821.4,425.8z M824.4,441.4l-2.1,0.4l1.9,10.4l2.1-0.4L824.4,441.4
			L824.4,441.4z M827.3,456.9l-2.1,0.4l1.9,10.4l2.1-0.4L827.3,456.9L827.3,456.9z M838.2,470.6l-10.2,0.6l0.1,1.7l0,0l-0.1-1.7
			l0.1,1.7l0,0l0.1,0.4l0,0c0,0,0,0,0.1,0h0c0,0,0,0,0,0l0,0c0,0,0,0,0.1,0h0c0,0,0,0,0,0l0,0c0,0,0,0,0,0h0c0,0,0,0,0,0l0,0
			c0,0,0,0,0,0h0c0,0,0,0,0,0l0,0c0,0,0,0,0,0l0,0c0,0,0,0,0,0h0c0,0,0,0,0,0l0,0c0,0,0,0,0,0h0c0,0,0,0,0,0h0c0,0,0,0,0,0l0,0
			c0,0,0,0,0,0l0,0c0,0,0,0,0,0l0,0c0,0,0,0,0,0l0,0c0,0,0,0,0,0l0,0c0,0,0,0,0,0l0,0c0,0,0,0,0,0l9.8-0.6L838.2,470.6L838.2,470.6z
			 M847,462.3l-4.9,9l1.5,0.8l0,0l-1.5-0.8l1.5,0.8l0,0.2l0.3,0l0,0l0,0l0,0l0,0l0,0l0,0l0,0l0,0l0,0l0,0l0,0l0,0l0,0l0,0v0l0,0
			c0,0,0,0,0,0l0,0l0,0l0,0l0,0l0,0c0,0,0,0,0,0l0,0h0l4.9-9L847,462.3L847,462.3z M854.6,448.5l-5.1,9.2l1.8,1l4.2-7.7c0,0,0,0,0,0
			l0,0c0,0,0,0,0,0l0,0c0,0,0,0,0,0l0,0c0,0,0,0,0,0l0,0c0,0,0,0,0,0l0,0c0,0,0,0,0,0l0,0c0,0,0,0,0,0l0,0c0,0,0,0,0,0l0,0
			c0,0,0,0,0,0l0,0c0,0,0,0,0-0.1l0,0c0,0,0,0,0,0l0,0c0,0,0,0,0,0l0,0c0,0,0,0,0,0l0,0c0.4-0.8,0.7-1.3,0.7-1.3L854.6,448.5
			L854.6,448.5z M862.2,434.6l-5.1,9.2l1.8,1l5.1-9.2L862.2,434.6L862.2,434.6z M879.7,433l-10.5,0.1l0,2.1l10.5-0.1c0,0,0,0,0,0h0
			c0,0,0,0,0,0l0,0L879.7,433L879.7,433z M889.7,432.9l-1,0l-3.7,0l0,2.1l3.7,0l0,0l0,0c0,0,0,0,0,0l0,0.1c0,0,0,0,0,0l4.2,5.3
			l1.7-1.3l-4.2-5.4L889.7,432.9L889.7,432.9z M897.8,443.3l-1.7,1.3c0,0,0.6,0.7,0.7,0.9l0,0c0,0,0,0,0,0l0,0c0,0,0,0,0,0l0,0
			c0,0,0,0,0,0l0,0c0,0,0,0,0,0l0,0c0,0,0,0,0,0l0,0l0,0l0,0l0,0l-0.3,0.3h0l-0.7,0.8c0,0,0,0,0,0l-0.9,1.2c0,0,0,0,0,0l-0.5,0.7
			l0,0L894,449c0,0,0,0,0,0l-0.1,0.2c0,0,0,0,0,0l-0.1,0.1c0,0,0,0,0,0l-0.2,0.3l0,0l-0.8,1c0,0,0,0,0,0l-0.9,1.2c0,0,0,0,0,0
			l-0.7,0.8c0,0,0,0,0,0l-0.2,0.2c0,0,0,0,0,0l0,0.1l0,0l0,0l0,0l0,0l0,0l1.6,1.3l5.9-7.3l1.1-1.3l-1-1.3L897.8,443.3L897.8,443.3z
			 M887.6,456.9l-6.6,8.2l1.6,1.3l6.6-8.2L887.6,456.9L887.6,456.9z M877.7,469.2c0,0-1.3,1.6-1.5,1.8l0,0c0,0,0,0,0,0l0,0
			c0,0,0,0,0,0l0,0h0l0,0c0,0,0,0,0,0l0,0l0,0l0,0l0,0c0,0,0,0,0,0.1l0,0c0,0,0,0.1,0.1,0.1l0,0c0,0,0,0,0,0v0c0,0,0,0,0,0l0,0
			c0,0,0,0,0,0l0,0c0,0,0,0,0,0l0,0c0,0,0,0,0,0l0,0l0,0l0,0c0,0,0,0,0,0l0,0c0,0,0,0,0,0l0,0c0,0,0,0,0,0l0,0c0,0,0,0,0,0l0,0
			c0,0,0,0,0,0l0,0c0,0,0,0,0,0l0,0c0,0,0,0,0,0l0,0c0,0,0,0,0,0l0,0c0,0,0,0,0,0l0.1,0.1l0,0l4,6.5l1.8-1.1l-3.5-5.7l0.6-0.7
			L877.7,469.2L877.7,469.2z M885.1,478.6l-0.5,2.1c0,0,8.9,2,10.1,2.3h0c0,0,0,0,0,0l0,0c0,0,0,0,0,0l0,0c0,0,0,0,0,0h0
			c0,0,0,0,0,0l0,0c0,0,0,0,0,0l0,0c0,0,0,0,0,0l0,0c0,0,0,0,0,0h0c0,0,0,0,0,0l0,0c0,0,0,0,0,0l0,0c0,0,0,0,0,0l0,0c0,0,0,0,0,0
			l0,0c0,0,0,0,0,0l0,0c0,0,0,0,0,0l0,0c0,0,0,0,0,0l0,0c0,0,0,0,0,0l0,0c0,0,0,0,0,0l0,0c0,0,0,0,0,0h0c0,0,0,0,0,0h0c0,0,0,0,0,0
			l0,0c0,0,0,0,0,0l0,0c0,0,0,0,0,0h0c0,0,0,0,0,0l0,0c0,0,0,0,0,0l0,0l0.5-2.1L885.1,478.6L885.1,478.6z M908.1,477.2l-9.1,5.2
			l1,1.7l0,0l-1-1.7l1,1.7l0,0.1l0.1,0c0,0,0,0,0,0h0c0,0,0,0,0,0h0l0,0l0,0c0,0,0,0,0.1-0.1l0,0c0,0,0,0,0,0h0c0,0,0,0,0,0l0,0
			c0,0,0,0,0,0l0,0c0,0,0,0,0,0l0,0c0,0,0,0,0,0l0,0c0,0,0,0,0,0l0,0c0,0,0,0,0,0l0,0c0,0,0,0,0,0l0,0c0,0,0,0,0,0l0,0c0,0,0,0,0,0
			l0,0c0,0,0,0,0,0l0,0c0,0,0,0,0,0l0,0c0,0,0,0,0,0l0,0c0,0,0,0,0,0l0,0c0,0,0,0,0,0l0,0c0,0,0,0,0,0l8.8-5L908.1,477.2
			L908.1,477.2z M921.9,469.4l-9.2,5.2l1,1.8c0,0,1.1-0.6,2.5-1.4l0,0c0,0,0.1,0,0.1-0.1l0,0c0,0,0,0,0,0l0,0c0,0,0,0,0,0l0,0
			c0,0,0,0,0,0l0,0c0,0,0,0,0,0l0,0c0,0,0,0,0,0l0,0c0,0,0,0,0,0l0,0c0,0,0,0,0,0l0,0c0,0,0,0,0,0l0,0c0,0,0,0,0,0l0,0l0,0l6.4-3.6
			L921.9,469.4L921.9,469.4z M934.5,460.5l-6.6,5.4l-1.4,0.8l1,1.8l1.5-0.8c0,0,0,0,0,0l0,0c0,0,0,0,0,0l0,0c0,0,0,0,0,0l0,0
			c0,0,0,0,0,0l0,0c0,0,0,0,0,0l0,0c0,0,0,0,0,0l0,0c0,0,0,0,0,0l0,0l0,0l0,0l0,0l0,0l0,0l0,0l0,0l0,0l0,0l6.8-5.6L934.5,460.5
			L934.5,460.5z M945.4,451.2l-2.1,0.5l0.3,1.3l-5.1,4.1l1.3,1.6l5.4-4.4c0,0,0,0,0,0l0,0c0,0,0,0,0,0l0,0c0,0,0,0,0,0l0,0
			c0,0,0,0,0,0l0,0c0,0,0,0,0,0l0.1-0.1c0,0,0,0,0,0l0,0c0,0,0,0,0,0l0,0c0,0,0,0,0,0l0,0c0,0,0,0,0,0l0,0c0,0,0,0,0,0l0,0
			c0,0,0,0,0,0l0,0c0,0,0,0,0,0l0,0c0,0,0,0,0,0l0,0c0,0,0,0,0,0l0,0c0,0,0,0,0,0l0,0c0,0,0,0,0,0l0,0c0,0,0,0,0,0l0,0c0,0,0,0,0,0
			l0,0c0,0,0,0,0,0l0,0c0,0,0,0,0,0l0,0c0,0,0,0,0,0l0,0c0,0,0,0,0,0l0,0c0,0,0,0,0,0l0,0c0,0,0,0,0,0l0,0c0,0,0,0,0,0l0,0
			c0,0,0,0,0,0l0,0h0l0,0c0,0,0,0,0,0l0,0c0,0,0,0,0,0l0,0c0,0,0,0,0,0l0,0c0.1-0.1,0.2-0.2,0.2-0.2l0,0l0,0l0,0l0,0l0,0l0,0l0,0
			l0,0l0,0l0,0l0,0l0,0l0,0l0,0L945.4,451.2L945.4,451.2z M941.8,435.8l-2.1,0.5l2.4,10.3l2.1-0.5l-2.3-10v0l0,0c0,0,0,0,0,0l0,0
			c0,0,0,0,0,0l0,0c0,0,0,0,0,0l0,0c0,0,0,0,0,0l0,0c0,0,0,0,0,0l0,0c0,0,0,0,0,0l0,0c0,0,0,0,0,0l0,0c0,0,0,0,0,0l0,0c0,0,0,0,0,0
			v0c0,0,0,0,0,0l0,0c0,0,0,0,0-0.1l0,0C941.8,435.9,941.8,435.8,941.8,435.8L941.8,435.8C941.8,435.8,941.8,435.8,941.8,435.8
			L941.8,435.8L941.8,435.8z M931.1,426.2l-0.9,1.9l9.4,4.2l0.7-1.6l0,0l-0.7,1.6l0.7-1.6l0.2-0.1l-0.1-0.3l0,0v0c0,0,0,0,0,0v0
			c0,0,0,0,0,0v0c0,0,0,0,0,0l0,0l0,0l0,0l0,0l0,0l0,0l0,0l0,0l0,0l0,0l0,0l0,0l-0.2-0.1c0,0,0,0,0,0l0,0c0,0,0,0,0,0l0,0l0,0
			l-0.1,0c0,0,0,0,0,0l0,0c0,0,0,0,0,0l0,0c0,0,0,0,0,0l0,0c0,0,0,0-0.1,0l0,0C938.3,429.4,931.1,426.2,931.1,426.2L931.1,426.2z
			 M919.6,416.2l-1.7,1.2l4.9,7l0.3,0.5l0.5,0.2l1.8,0.8l0.9-1.9l-1.7-0.7c0,0,0,0,0,0l0,0c0,0,0,0,0,0l0,0c0,0,0,0,0,0l0,0
			c0,0,0,0,0,0l0,0c0,0,0,0,0,0l0,0c0,0,0,0,0,0l0,0c0,0,0,0,0,0l0,0c0,0,0,0,0,0l0,0c0,0,0,0,0,0l0,0c0,0,0,0,0,0h0c0,0,0,0,0,0
			l0,0c0,0,0,0,0,0l0,0c0,0,0,0,0,0l0,0c0,0,0,0,0,0l0,0c0,0,0,0,0,0h0c0,0,0,0,0,0l0,0c0,0,0,0,0,0l0,0c-1.4-2.1-2.7-4-4-5.8
			c0,0,0,0,0,0c0,0,0,0,0,0c0,0,0,0,0,0c0,0,0,0,0,0C920.2,417,919.9,416.6,919.6,416.2L919.6,416.2z M913.9,402.1l-2.1,0.1l0.4,6.4
			l0,0.6l0.3,0.5l2.4,3.4l1.7-1.2c0-0.1-0.1-0.1-0.1-0.2c0,0,0,0,0,0c0,0,0,0,0,0c-0.7-1-1.5-2.1-2.2-3.2l0,0c0,0,0,0,0-0.1v0
			c0,0,0-0.1,0-0.1l0,0c0,0,0,0,0,0l0,0c0,0,0,0,0,0l0,0c0,0,0,0,0,0v0c0,0,0,0,0,0l0,0c0,0,0,0,0,0l0,0c0,0,0,0,0,0l0,0
			c0,0,0,0,0,0l0,0c0,0,0,0,0,0l0,0c0,0,0,0,0,0l0,0c0,0,0,0,0,0l0,0c0,0,0,0,0,0l0,0c0,0,0,0,0,0v0c0,0,0,0,0,0l0-0.1c0,0,0,0,0,0
			l0,0c0,0,0,0,0,0l0,0c0,0,0,0,0,0l0,0c0,0,0,0,0,0l0,0c0,0,0,0,0,0L913.9,402.1L913.9,402.1z M906.4,389.6l-1.3,1.6l6.3,5.1l0,0.5
			l0.6,0l0.1,0.1l0.1-0.1l0,0l-0.1,0.1l0.1-0.1l1.3-0.1l-0.1-1.5l0,0l0,0l0,0l0,0l0,0l0,0l0,0l0,0l0,0l0,0l0,0l0,0l0,0L906.4,389.6
			L906.4,389.6z M894.1,379.7l-1.3,1.6l8.2,6.6l1.3-1.6L894.1,379.7L894.1,379.7z M881.8,369.7l-1.3,1.6l8.2,6.6l1.3-1.6l-4.5-3.7
			c0,0,0,0,0,0l0,0c0,0,0,0,0,0l0,0c0,0,0,0,0,0l0,0c0,0,0,0,0,0l0,0c0,0,0,0,0,0l0,0c0,0,0,0,0,0l0,0c-0.1,0-0.1-0.1-0.2-0.1l0,0
			C883.4,371,881.8,369.7,881.8,369.7L881.8,369.7z M867.4,365.7l0,2.1l9,0.2l0,0l0,0l0.6,0l0-0.8l0,0l0,0.8l0-0.8l0.6-0.8l-0.6-0.5
			l0,0h0c0,0,0,0,0,0l0,0c0,0,0,0,0,0l0,0c0,0,0,0,0,0l0,0c0,0,0,0,0,0l0,0l0,0l0,0l0,0l0,0l0,0l0,0l0,0l0,0l0,0l0,0l0,0l0,0l0,0
			l0,0L867.4,365.7L867.4,365.7z M857,365.6c0,0,0,0,0,0.1v0c0,0.1-0.1,0.2-0.1,0.3l0,0c0,0.1,0,0.1-0.1,0.2l0,0
			c0,0.1-0.1,0.2-0.1,0.3l0,0c0,0,0,0,0,0l0,0c0,0,0,0,0,0l0,0c0,0,0,0,0,0l0,0c0,0,0,0,0,0l0,0c0,0,0,0,0,0l0,0c0,0,0,0.1,0,0.1v0
			c0,0,0,0,0,0l0,0c0,0,0,0,0,0.1l0,0c0,0,0,0,0,0.1l0,0c0,0,0,0,0,0l0,0c0,0,0,0,0,0l0,0c0,0,0,0,0,0l0,0c0,0,0,0,0,0l0,0
			c0,0,0,0,0,0l0,0c0,0,0,0,0,0l0,0c0,0,0,0,0,0l0,0c0,0,0,0,0,0l0,0c0,0,0,0,0,0l0,0c0,0,0,0,0,0l0,0.1c0,0,0,0,0,0l0,0
			c0,0,0,0,0,0l0,0c0,0,0,0,0,0l0,0c0,0,0,0,0,0l0,0c0,0,0,0,0,0l0,0c0,0,0,0,0,0l0,0c0,0,0,0,0,0l0,0c0,0,0,0,0,0l0,0c0,0,0,0,0,0
			l0,0c0,0,0,0,0,0l0,0c0,0,0,0,0,0l0,0c0,0,0,0,0,0l0,0c0,0,0,0,0,0l0,0c0,0,0,0,0,0l0,0c0,0,0,0,0,0l0,0c0,0,0,0,0,0l0,0
			c0,0,0,0,0,0l0,0c0,0,0,0,0,0l0,0c0,0,0,0,0,0l0,0c0,0,0,0,0,0l0,0c0,0,0,0,0,0l0,0c0,0,0,0,0,0l0,0c0,0,0,0,0,0l0,0l0,0l0,0
			c0,0,0,0,0,0l0,0l0,0l0,0c0,0,0,0,0,0l0,0c0,0,0,0,0,0l0,0c0,0,0,0,0,0l0,0c0,0,0,0,0,0l0,0c0,0,0,0,0,0l0,0c0,0,0,0,0,0l-0.1,0.2
			c0,0,0,0,0,0l-0.1,0.4h0l-2.3,7.2l2,0.6l2.7-8.6l3.5,0.1l0-2.1l-4.9-0.1c0,0,0,0,0,0l0,0c0,0,0,0,0,0l0,0h0h0c0,0,0,0,0,0h0
			c0,0,0,0,0,0h0c0,0,0,0,0,0h0c0,0,0,0,0,0l0,0c0,0,0,0,0,0h0c0,0,0,0,0,0h0c0,0,0,0,0,0h0c0,0,0,0,0,0h0c0,0,0,0,0,0h0
			c0,0,0,0,0,0l0,0c0,0,0,0,0,0h0C857.1,365.6,857.1,365.6,857,365.6L857,365.6C857.1,365.6,857.1,365.6,857,365.6L857,365.6
			C857.1,365.6,857.1,365.6,857,365.6L857,365.6C857,365.6,857,365.6,857,365.6L857,365.6L857,365.6z" />
        </g>
    </g>
    <g>
        <path class="border" d="M798.9,81.4L823.4,54l100.8-5.6l27.4,24.5l4.5,81.8l-17.9,1l-1.6-29.3c-0.4-7.5-6.6-13.3-14.1-13.3
		c-0.3,0-0.5,0-0.8,0c-7.8,0.4-13.7,7.1-13.3,14.9l1.6,29.3l-14.5,0.8l-1.6-29.3c-0.4-7.5-6.6-13.3-14.1-13.3c-0.3,0-0.5,0-0.8,0
		c-7.8,0.4-13.8,7.1-13.3,14.9l1.6,29.3l-14.5,0.8l-1.6-29.3c-0.4-7.5-6.6-13.3-14.1-13.3c-0.3,0-0.5,0-0.8,0
		c-3.8,0.2-7.2,1.9-9.7,4.7c-2.5,2.8-3.8,6.4-3.6,10.2l1.6,29.3l-21.2,1.2L798.9,81.4z" />
    </g>
    <g>
        <path class="station" d="M802.1,82.5l22.7-25.4l98.1-5.4l25.4,22.7l3.8,67.7l-11.5,0.6l-1.4-26.1c-0.5-9.2-8.1-16.3-17.3-16.3
		c-0.3,0-0.6,0-1,0c-4.6,0.3-8.8,2.3-11.9,5.7c-3.1,3.4-4.6,7.9-4.4,12.5l1.4,26.1l-8.1,0.5l-1.4-26.1c-0.5-9.2-8.1-16.3-17.3-16.3
		c-0.3,0-0.6,0-1,0c-9.5,0.5-16.9,8.7-16.3,18.2l1.4,26.1l-8.1,0.5l-1.4-26.1c-0.5-9.2-8.1-16.3-17.3-16.3c-0.3,0-0.6,0-1,0
		c-9.5,0.5-16.8,8.7-16.3,18.2l1.4,26.1l-14.9,0.8L802.1,82.5z" />
        <path class="white" d="M922.7,52.7L935,63.8l12.4,11.1l3.7,66.3l-9.6,0.5l-1.4-25.1c-0.5-9.7-8.6-17.3-18.2-17.3c-0.3,0-0.7,0-1,0
		c-4.9,0.3-9.3,2.4-12.6,6.1c-3.3,3.6-4.9,8.3-4.6,13.2l1.4,25.1l-6.2,0.3l-1.4-25.1c-0.5-9.7-8.5-17.3-18.2-17.3c-0.3,0-0.7,0-1,0
		c-4.9,0.3-9.4,2.4-12.6,6.1c-3.3,3.6-4.9,8.3-4.6,13.2l1.4,25.1l-6.2,0.3l-1.4-25.1c-0.5-9.7-8.5-17.3-18.2-17.3c-0.3,0-0.7,0-1,0
		c-4.9,0.3-9.4,2.4-12.6,6.1c-3.3,3.6-4.9,8.3-4.6,13.2l1.4,25.1l-12.9,0.7l-3.7-66.3l22.2-24.8L922.7,52.7 M923.4,50.7l-98.9,5.5
		l-23.3,26l3.8,69.1l16.8-0.9l-1.5-27.1c-0.5-9,6.4-16.7,15.4-17.2c0.3,0,0.6,0,0.9,0c8.6,0,15.8,6.7,16.3,15.4l1.5,27.1l10.1-0.6
		l-1.5-27.1c-0.5-9,6.4-16.7,15.4-17.2c0.3,0,0.6,0,0.9,0c8.6,0,15.8,6.7,16.3,15.4l1.5,27.1l10.1-0.6l-1.5-27.1
		c-0.5-9,6.4-16.7,15.4-17.2c0.3,0,0.6,0,0.9,0c8.6,0,15.8,6.7,16.3,15.4l1.5,27.1l13.5-0.7l-3.8-69.1
		C939.2,64.9,933.5,59.8,923.4,50.7L923.4,50.7z" />
    </g>
    <g>
        <path class="border"
            d="M800.8,303.5l-0.7-0.6l-4-53.9l-1.2-16.5l11.2-13l72.8-5.4l0.2,2.2c0.3,4.2,3.8,7.5,8,7.5c0.2,0,0.4,0,0.6,0
		c4.4-0.3,7.8-4.2,7.4-8.6L895,213l37.9-2.8l13,11.2l1.2,16.4l4,53.9l-11.2,13l-37.9,2.8l-0.2-2.2c-0.3-4.2-3.8-7.5-8-7.5
		c-0.2,0-0.4,0-0.6,0c-2.1,0.2-4.1,1.1-5.5,2.8c-1.4,1.6-2.1,3.7-1.9,5.8l0.2,2.2l-72.8,5.4C813.2,314.1,804.7,306.9,800.8,303.5z" />
    </g>
    <g>
        <path class="white" d="M948.1,280.8c-3.9,4.5-6.1,7.1-10,11.6l-34.8,2.6c-0.4-5.6-5.3-9.9-11-9.5c-5.6,0.4-9.9,5.3-9.5,11l-69.7,5.2
		c-4.5-3.9-7.1-6.1-11.6-10l-4.3-58.3c3.9-4.5,6.1-7.1,10-11.6l69.7-5.2c0.4,5.4,4.9,9.5,10.2,9.5c0.3,0,0.5,0,0.8,0
		c5.6-0.4,9.9-5.3,9.5-11l34.8-2.6c4.5,3.9,7.1,6.1,11.6,10L948.1,280.8z" />
    </g>
    <path class="ticket" d="M890.2,283.9c-5.1,1.2-8.9,5.6-9.3,10.8l-67.1,5l-10.4-9l-4.2-56.7l0.3-0.3l8.7-10.1l67.1-5
	c1.2,5,5.6,8.9,10.8,9.3L890.2,283.9z" />
    <g>
        <path class="border" d="M312.9,76.9l-142.5-7.1l-8.1,7.3l-2.6,52.9l7.3,8.1l9.2,0.5l7.3,8l8.5,0.4l8-7.3l9.6,0.5l7.3,8l8.5,0.4l8-7.3
		l9.6,0.5l7.3,8l8.5,0.4l8-7.3l9.6,0.5l7.3,8l8.5,0.4l8-7.3l9.2,0.5l8.1-7.3l2.6-52.9L312.9,76.9z M165.3,78.5l6.2-5.6l140,7
		l5.6,6.2l-1.6,32.8l-151.9-7.6L165.3,78.5z" />
        <g>
            <g>
                <path class="white" d="M312.2,78.4l-141.3-7l-7.2,6.5l-2.2,44.4c2.5,2.8,4,4.4,6.5,7.2l3.8,0.2v0l6.1,0.3l0.2-3.7l7.3-6.6l7.3,0.4
				l6.6,7.3l-0.2,3.7l12.2,0.6l0.2-3.7l7.3-6.6l7.3,0.4l6.6,7.3l-0.2,3.7l12.2,0.6l0.2-3.7l7.3-6.6l7.3,0.4l6.6,7.3l-0.2,3.7
				l12.2,0.6l0.2-3.7l7.3-6.6l7.3,0.4l6.6,7.3l-0.2,3.7l6.1,0.3v0l3.8,0.2c2.8-2.5,4.4-4,7.2-6.5l2.2-44.4L312.2,78.4z M315.5,118.9
				l-151.9-7.6l1.6-32.8l6.2-5.6l140,7l5.6,6.2L315.5,118.9z" />
            </g>
            <g>
                <polygon class="white"
                    points="197.8,127.9 197.5,133.9 191.1,139.7 185.1,139.4 179.3,133 179.6,127 186,121.2 192,121.5 			" />
            </g>
            <g>
                <polygon class="white" points="231.2,129.5 230.9,135.6 224.5,141.3 218.5,141 212.7,134.7 213,128.6 219.4,122.9 225.4,123.2 			
				" />
            </g>
            <g>
                <polygon class="white" points="264.6,131.2 264.3,137.2 257.9,143 251.9,142.7 246.2,136.3 246.5,130.3 252.8,124.5 258.8,124.8 
							" />
            </g>
            <g>
                <polygon class="white"
                    points="298,132.9 297.7,138.9 291.3,144.6 285.3,144.3 279.6,138 279.9,132 286.2,126.2 292.3,126.5 			" />
            </g>
        </g>
        <polygon class="v1-main" points="317.1,86.1 311.5,79.9 171.5,72.9 165.3,78.5 163.6,111.3 315.5,118.9 	" />
    </g>
    <g>
        <g class="alt">
            <polygon class="v4-main" points="438.5,245.1 439.9,271.4 478.8,269.2 480.9,238 443,240.1 		" />
            <path class="v4-main" d="M649.1,235.7l-1.3-6.8l-5.6-3.8c-33.5,6.4-76.9,14.7-110.3,21.1l-3.8,5.6c1.5,8,3.4,17.8,5,25.8
			c11.1-2.1,35.2-6.7,35.2-6.7L649.1,235.7z" />
        </g>
        <g>
            <path class="v4-main"
                d="M587.6,233.1l-98.8-6.5l-5.1,4.4c-0.3,4.6-1.4,21.4-1.7,26.3l45.3,3l-0.4-8.7l4.3-6.4L587.6,233.1z" />
            <path class="v4-main" d="M690.3,239.5l-5.1-4.3c-33.5,2.8-78.4,6.6-111.9,9.5l-4.3,5.1c0.6,7.4,1.6,18.9,2.2,26.2
			c39.4-3.3,81.9-6.9,121.4-10.3L690.3,239.5z" />
        </g>
        <path class="border" d="M692.7,238.3l-6.7-5.6l-34.5,2.9l-1.5-8.1l-7.2-4.9l-45.6,8.7l-109.1-7.1l-6.6,5.8l-0.4,5.6l-39.2,2.2
		l-5.8,6.5l2.4,42.3l6.5,5.8l7.4-0.4l6.5,5.8l6.8-0.4l5.8-6.5l7.7-0.4l6.5,5.8l6.8-0.4l5.8-6.5l7.7-0.4l6.5,5.8l6.8-0.4l5.8-6.5
		c1.6-0.2,4.7-0.1,6.2,0l0.5-0.4l1-0.1l0,0l1,5.4l7.2,4.9l7.3-1.4l7.2,4.9l6.7-1.3l4.9-7.2l4.2-0.8l5.7,4.8l7.4-0.6l6.6,5.6l6.8-0.6
		l5.6-6.6l7.7-0.6l6.6,5.6l6.8-0.6l5.6-6.6l7.7-0.6l6.6,5.6l6.8-0.6l5.6-6.6l7.7-0.6l6.6,5.6l6.8-0.6l5.6-6.6l7.4-0.6l5.6-6.7
		L692.7,238.3z M482.6,230.5l5.8-5.1l104,6.8c-16.9,3.2-44.9,8.6-61.9,11.9l-4.9,7.2c0.7,3.6,2.2,11.4,2.9,14.9l-2.3-0.1
		c-0.1,0.1-5.6,4.9-5.9,5.2l-0.2,2.9c-1.6-0.1-8.1-0.5-9.8-0.6l0.2-2.9c-1.3-1.5-3.9-4.4-5.2-5.9l-5.8-0.4c-1,0.9-5,4.4-5.9,5.2
		l-0.2,2.9l-4.9-0.3l0,0l-3.1-0.2c-1.3-1.5-3.8-4.4-5.1-5.8C480.6,260.5,482.2,235.6,482.6,230.5z M494.3,274.9
		c0.1-1.2,0.2-3.6,0.3-4.8c1.2-1.1,3.9-3.4,5.2-4.5l4.8,0.3c1,1.1,3.5,4,4.5,5.2c-0.1,1.2-0.2,3.6-0.3,4.8c-0.2,0.1-4.9,4.3-5.2,4.5
		l-4.8-0.3C498.6,279.7,494.5,275.1,494.3,274.9z M464.2,291.6l-4.8,0.3c-0.3-0.3-4.9-4.4-5.1-4.6c-0.1-1.2-0.2-3.6-0.3-4.8l4.6-5.1
		l4.8-0.3l5.1,4.6c0.1,1.2,0.2,3.6,0.3,4.8C468.7,286.7,464.5,291.3,464.2,291.6z M469.9,284l-0.2-2.9l-5.9-5.2l-5.8,0.3l-5.2,5.9
		l0.2,2.9l-4.9,0.3v0l-3.1,0.2l-5.8-5.2l-2-35.6l5.2-5.8l38.5-2.1c-0.2,2.4-2.2,33.7-2.3,35.5l4.1,4.7l-3.2,3.6l0.2,2.9L469.9,284z
		 M491,290.1l-4.8,0.3c-0.3-0.3-4.9-4.4-5.1-4.6c-0.1-1.2-0.2-3.6-0.3-4.8l2.8-3.1l0.8,0.9l7.4,0.5c0.6,0.6,3.2,3.6,3.7,4.2l0.1,1.5
		C495.4,285.2,491.2,289.9,491,290.1z M517.7,288.7l-4.8,0.3c-0.3-0.3-4.9-4.4-5.1-4.6l-0.1-1.1c0.8-0.7,2.3-2.1,3.1-2.7l7.7,0.5
		c0.4,0.4,2.6,3,3,3.4L517.7,288.7z M525.6,281.8c-1.3-1.5-3.2-3.6-4.5-5.2c0.1-1.3,0.2-3.5,0.3-4.8l5.2-4.5l2.1,0.1
		c0.7,3.9,1.9,10.1,2.7,13.9l-0.9,0.8L525.6,281.8z M559.9,294.5l-4.8,0.9c-0.4-0.2-5.5-3.7-5.7-3.9c-0.2-1.2-0.7-3.5-0.9-4.8
		c0.7-1.1,3.1-4.6,3.8-5.7l4.8-0.9c1.7,1.1,4,2.7,5.7,3.9c0.3,1.3,0.7,3.4,0.9,4.8C563.6,289,560.1,294.2,559.9,294.5z M564.5,286.2
		c-0.1-0.6-0.4-2.3-0.6-2.9c-2-1.4-4.5-3-6.5-4.4c-1.4,0.3-4.3,0.8-5.7,1.1c-1.3,1.9-3.1,4.6-4.4,6.5l0.6,2.9l-4.8,0.9l0,0l-3,0.6
		l-6.4-4.3c-2.2-11.3-4.5-23.7-6.7-35l4.3-6.4c34-6.5,77.2-14.8,111.3-21.3l6.4,4.3l1.4,7.5c-20.3,1.7-58.1,4.9-78.2,6.6l-5.6,6.7
		c0.9,11.2,2.1,25.2,3.1,36.3L564.5,286.2z M596,295.5l-4.8,0.4c-1.4-1.2-3.8-3.2-5.2-4.4c-0.1-1.4-0.3-3.4-0.4-4.8
		c1.1-1.3,3.3-3.9,4.4-5.2c0.5,0,4.2-0.4,4.8-0.4l4.9,4.1l0.3,0.3c0.1,1.3,0.3,3.5,0.4,4.8C600.3,290.4,596.3,295.2,596,295.5z
		 M622.7,293.2l-4.8,0.4c-0.8-0.7-4.5-3.8-5.2-4.4c-0.1-1.2-0.3-3.6-0.4-4.8c0.9-1,3.5-4.2,4.4-5.2c0.1,0,4.6-0.4,4.8-0.4
		c1.2,1,4.1,3.5,5.2,4.4c0.1,1.2,0.3,3.6,0.4,4.8C627,288.1,623,292.9,622.7,293.2z M649.4,291l-4.8,0.4c-0.3-0.3-5.1-4.3-5.2-4.4
		c-0.1-1.3-0.3-3.5-0.4-4.8l4.4-5.2l4.8-0.4c0.4,0.3,4.7,4,5.2,4.4c0.1,1.2,0.3,3.6,0.4,4.8C653.7,285.9,649.7,290.7,649.4,291z
		 M676.1,288.7l-4.8,0.4c-0.3-0.3-5.1-4.3-5.2-4.4c-0.1-1.2-0.3-3.6-0.4-4.8l4.4-5.2l4.8-0.4l5.2,4.4c0.1,1.2,0.3,3.6,0.4,4.8
		C680.4,283.6,676.4,288.4,676.1,288.7z M689.5,280.3l-3,0.3l0,0l-4.9,0.4l-0.2-2.9l-6-5.1l-5.8,0.5l-5.1,6l0.2,2.9l-9.8,0.8
		l-0.2-2.9c-1.3-1.1-4.8-4-6-5.1l-5.8,0.5l-5.1,6l0.2,2.9c-2.4,0.2-7.4,0.6-9.8,0.8l-0.2-2.9c-0.9-0.8-5-4.3-6-5.1
		c-1,0.1-4.9,0.4-5.8,0.5c-0.9,1-4.1,4.9-5.1,6c0,0.5,0.2,2.4,0.2,2.9c-0.5,0-9.7,0.8-9.8,0.8c0-0.6-0.2-2.3-0.2-2.9
		c-0.8-0.7-5.2-4.4-6-5.1c-0.9,0.1-5,0.4-5.8,0.5c-1.5,1.8-3.6,4.2-5.1,6l0.2,2.9c-0.3,0-4.8,0.4-4.9,0.4l0,0l-3,0.3
		c-0.2-0.2-5.7-4.8-5.9-5c-0.9-10.9-2.1-24.6-3-35.5l5-5.9c33.8-2.9,79-6.7,112.9-9.6l5.9,5l3,35.5L689.5,280.3z" />
        <g>
            <g>
                <polygon class="white" points="482.7,277 478.6,272.2 478.8,269.2 439.9,271.4 438.5,245.1 443,240.1 480.9,238 480.9,236.8 
				442.4,238.9 437.2,244.7 439.2,280.3 445,285.4 448,285.3 448,285.3 452.9,285 452.8,282.1 458,276.2 463.8,275.9 469.7,281.1 
				469.9,284 479.7,283.5 479.5,280.6 			" />
            </g>
            <g>
                <path class="white" d="M463.4,277.1l-4.8,0.3l-4.6,5.1c0.1,1.2,0.2,3.6,0.3,4.8c0.2,0.1,4.8,4.3,5.1,4.6l4.8-0.3
				c0.3-0.3,4.4-4.9,4.6-5.1c-0.1-1.2-0.2-3.6-0.3-4.8L463.4,277.1z" />
            </g>
            <g>
                <path class="white" d="M494.7,282.7l-2.9-3.4l-7.4-0.5l-0.8-0.9l-2.8,3.1c0.1,1.2,0.2,3.6,0.3,4.8c0.2,0.1,4.8,4.3,5.1,4.6l4.8-0.3
				c0.3-0.3,4.4-4.9,4.6-5.1l-0.1-1.5L494.7,282.7z" />
            </g>
            <g>
                <path class="white" d="M518.5,281l-7.7-0.5c-0.8,0.7-2.3,2.1-3.1,2.7l0.1,1.1c0.2,0.1,4.8,4.3,5.1,4.6l4.8-0.3l3.8-4.2
				c0,0-2.6-3-2.7-3.1L518.5,281z" />
            </g>
            <g>
                <path class="white" d="M485.3,271.9l3.1,0.2v0l4.9,0.3l0.2-2.9c0.9-0.8,5-4.4,5.9-5.2l5.8,0.4c1.3,1.5,3.9,4.4,5.2,5.9l-0.2,2.9
				c1.7,0.1,8.2,0.5,9.8,0.6l0.2-2.9c0.3-0.3,5.8-5.1,5.9-5.2l2.3,0.1l-1.1-5.9l-45.3-3l1.3-19.5l0.1-1.2c0.1-0.8,0.3-4.7,0.4-5.5
				l5.1-4.4l98.8,6.5l4.7-0.9l-104-6.8l-5.8,5.1c-0.3,4.9-2,30.1-2.3,35.5C481.5,267.5,484.1,270.4,485.3,271.9z" />
            </g>
            <g>
                <path class="white" d="M509.2,271c-1-1.2-3.5-4-4.5-5.2l-4.8-0.3c-1.2,1.1-3.9,3.5-5.2,4.5c-0.1,1.2-0.2,3.6-0.3,4.8
				c0.1,0.2,4.3,4.9,4.5,5.2l4.8,0.3c0.3-0.3,5-4.4,5.2-4.5C508.9,274.6,509.1,272.2,509.2,271z" />
            </g>
            <g>
                <path class="white" d="M528.7,267.4l-2.1-0.1l-5.2,4.5c-0.1,1.3-0.2,3.5-0.3,4.8c1.3,1.5,3.2,3.6,4.5,5.2l4.8,0.3l0.9-0.8
				c-0.1-0.5-0.6-3-0.7-3.6C530.3,275.8,529,269.5,528.7,267.4z" />
            </g>
            <g>
                <path class="white" d="M568.3,270.9c-11.1,2.1-24.2,4.6-35.2,6.7c-1.5-8-3.4-17.8-5-25.8l3.8-5.6c33.4-6.4,76.8-14.7,110.3-21.1
				l5.6,3.8l1.3,6.8l1.2-0.1l-1.4-7.5l-6.4-4.3c-34.1,6.5-77.3,14.8-111.3,21.3l-4.3,6.4c2.2,11.3,4.5,23.7,6.7,35l6.4,4.3l3-0.6
				l0,0l4.8-0.9l-0.6-2.9c1.3-1.9,3.2-4.6,4.4-6.5c1.5-0.3,4.3-0.8,5.7-1.1c2,1.4,4.5,3,6.5,4.4c0.1,0.6,0.4,2.3,0.6,2.9l5.1-1
				c0-0.1-0.6-7.5-0.7-7.9L568.3,270.9z" />
            </g>
            <g>
                <path class="white" d="M562.8,284.1c-1.6-1.1-4-2.7-5.7-3.9l-4.8,0.9c-0.7,1-3.1,4.6-3.8,5.7c0.2,1.2,0.7,3.5,0.9,4.8
				c0.2,0.1,5.3,3.6,5.7,3.9l4.8-0.9c0.2-0.4,3.7-5.5,3.9-5.7c-0.2-0.8-0.5-2.8-0.7-3.7L562.8,284.1z" />
            </g>
            <g>
                <path class="white"
                    d="M694.5,274.4l-3-35.5l-5.9-5c-33.9,2.9-79,6.7-112.9,9.6l-5,5.9c0.9,11,2.1,24.6,3,35.5
				c0.2,0.2,5.7,4.8,5.9,5l3-0.3v0c0,0,4.7-0.4,4.9-0.4l-0.2-2.9c1.5-1.8,3.6-4.2,5.1-6c0.8-0.1,5-0.4,5.8-0.5
				c0.8,0.7,5.2,4.4,6,5.1c0.1,0.6,0.2,2.3,0.2,2.9c0.1,0,9.3-0.8,9.8-0.8c0-0.5-0.2-2.4-0.2-2.9c1-1.1,4.2-4.9,5.1-6
				c0.9-0.1,4.8-0.4,5.8-0.5c1,0.8,5.1,4.3,6,5.1l0.2,2.9c2.4-0.2,7.4-0.6,9.8-0.8l-0.2-2.9l5.1-6l5.8-0.5c1.2,1,4.7,4,6,5.1
				l0.2,2.9l9.8-0.8l-0.2-2.9l5.1-6l5.8-0.5l6,5.1l0.2,2.9l4.9-0.4l0,0l3-0.3L694.5,274.4z M657.8,268.6
				c-28.6,2.4-58.1,4.9-86.7,7.3c-0.6-7.2-1.6-18.9-2.2-26.2l4.3-5.1c33.5-2.8,78.4-6.6,111.9-9.5l5.1,4.3l2.2,26.2L657.8,268.6z" />
            </g>
            <g>
                <path class="white" d="M600.1,285.4l-0.3-0.3l-4.9-4.1c-0.6,0.1-4.3,0.4-4.8,0.4c-1.1,1.3-3.3,3.9-4.4,5.2c0.1,1.4,0.3,3.5,0.4,4.8
				c1.4,1.2,3.8,3.2,5.2,4.4l4.8-0.4c0.3-0.3,4.3-5.1,4.4-5.2c-0.1-0.9-0.2-2.9-0.3-3.8L600.1,285.4z" />
            </g>
            <g>
                <path class="white"
                    d="M621.5,278.7c-0.3,0-4.7,0.4-4.8,0.4c-0.9,1.1-3.5,4.2-4.4,5.2c0.1,1.2,0.3,3.6,0.4,4.8
				c0.7,0.6,4.5,3.8,5.2,4.4l4.8-0.4c0.3-0.3,4.3-5.1,4.4-5.2c-0.1-1.2-0.3-3.6-0.4-4.8C625.7,282.2,622.7,279.7,621.5,278.7z" />
            </g>
            <g>
                <path class="white" d="M648.2,276.5l-4.8,0.4l-4.4,5.2c0.1,1.3,0.3,3.5,0.4,4.8c0.2,0.1,4.9,4.2,5.2,4.4l4.8-0.4
				c0.3-0.3,4.3-5.1,4.4-5.2c-0.1-1.2-0.3-3.6-0.4-4.8C652.9,280.5,648.6,276.8,648.2,276.5z" />
            </g>
            <g>
                <path class="white" d="M674.9,274.2l-4.8,0.4l-4.4,5.2c0.1,1.2,0.3,3.6,0.4,4.8c0.2,0.1,4.9,4.2,5.2,4.4l4.8-0.4
				c0.3-0.3,4.3-5.1,4.4-5.2c-0.1-1.2-0.3-3.6-0.4-4.8L674.9,274.2z" />
            </g>
        </g>
    </g>
    <g>
        <g>
            <polygon class="white"
                points="277.5,225.9 279.9,227.9 282.2,227.9 277.9,224.4 243.9,227.7 258.4,227.8 		" />
        </g>
        <path class="v3-alt" d="M323.6,236.2l-5.1-5.2c-42.2-0.2-95.2-0.5-137.3-0.8c-1.8,1.7-4.1,4-5.8,5.8l-0.2,32.2l31,0.2
		C206.2,268.4,298.7,237.3,323.6,236.2z" />
        <g>
            <polygon class="st9" points="277.5,225.9 258.4,227.8 279.9,227.9 		" />
            <polygon class="v3-main" points="135.6,245.6 138.7,277.6 172.2,274.3 172.4,236.1 140.8,239.2 		" />
            <path class="v3-main" d="M357.2,243.6l-6.1-5.6c-38,1.6-98.7,4.2-137.2,5.8l-5.6,6.1c0,1.1,0.9,20.7,0.9,20.8l0.4,10.5l0,0.8
			c48.9-2.1,99.8-4.2,148.8-6.3L357.2,243.6z" />
        </g>
        <path class="border" d="M145.8,303l9-0.9l8.2,6.7l8.3-0.8l6.7-8.2l9.4-0.9l8.2,6.7l8.3-0.8l3.6-4.4l0,0l7.9,7.2l9-0.4l7.8,7.2l8.4-0.4
		l7.2-7.8l9.4-0.4l7.8,7.2l8.4-0.4l7.2-7.8l9.4-0.4l7.8,7.2l8.4-0.4l7.2-7.8l9.4-0.4l7.8,7.2l8.4-0.4l7.2-7.8l9-0.4l7.2-7.9
		l-2.2-51.8l-7.9-7.2l-24.9,1.1l0-0.4l-7.5-7.6l-35.2-0.2l-6.2-5.1c-24.5,3.5-73.7,5.8-98.4,4.5l-5.7,5.6l-35,3.4l-6.8,8.3l5,51.6
		L145.8,303z M169.4,301.1l-5.9,0.6c-0.4-0.3-6.2-5.1-6.5-5.3c-0.1-1.5-0.4-4.4-0.6-5.9l5.3-6.5l5.9-0.6l6.3,5.2l0.2,0.2
		c0.1,1.5,0.4,4.4,0.6,5.8C174.6,294.8,169.7,300.7,169.4,301.1z M176,291.5l-0.1-1.1l1,1L176,291.5z M206.8,283.7
		c0.1,2.3,0.2,5.1,0.3,7.4c-0.8,0.7-3,3-3.8,3.8l-5.9,0c-1.6-1.6-4.3-4.4-5.9-6c0-1.7,0-4.3,0-5.9c1.4-1.4,4.6-4.5,6-5.9l5.9,0
		l3.2,3.3L206.8,283.7z M239.1,307.2l-5.9,0.2c-0.4-0.4-6-5.5-6.2-5.7c-0.1-1.7-0.2-4.2-0.3-5.9c1.3-1.5,4.3-4.7,5.7-6.2l0.4,0
		l5.6-0.2c1.8,1.6,4.4,4.1,6.2,5.7c0.1,1.5,0.2,4.4,0.2,5.9C244.6,301.2,239.4,306.8,239.1,307.2z M271.8,305.8l-5.9,0.2
		c-1.4-1.3-4.8-4.4-6.2-5.7c-0.1-1.6-0.2-4.3-0.2-5.9c1.7-1.9,3.9-4.3,5.7-6.2c0.7,0,5.3-0.2,5.9-0.2c1.9,1.7,4.3,4,6.2,5.7
		c0.1,1.7,0.2,4.2,0.2,5.9C277.3,299.8,272.2,305.4,271.8,305.8z M304.6,304.4l-5.9,0.2c-1.7-1.5-4.5-4.1-6.2-5.7
		c-0.1-1.5-0.2-4.4-0.2-5.9c1.5-1.7,4.1-4.5,5.7-6.2l5.9-0.2c1.6,1.5,4.6,4.2,6.2,5.7c0.1,1.5,0.2,4.4,0.2,5.9
		C310.1,298.4,304.9,304.1,304.6,304.4z M337.3,303l-5.9,0.2c-0.4-0.4-6-5.5-6.2-5.7c-0.1-1.5-0.2-4.4-0.2-5.9l5.7-6.2l5.9-0.2
		l6.2,5.7c0.1,1.5,0.2,4.4,0.2,5.9C342.8,297,337.6,302.7,337.3,303z M351.7,236.5l7,6.4l1.8,43.5l-6.4,7l-3.7,0.2l0,0l-6,0.3
		l-0.2-3.6l-7.1-6.5L330,284c-1.8,1.9-4.8,5.2-6.5,7.1l0.2,3.6c-3.6,0.2-8.4,0.4-12,0.5l0-0.2l-0.1-3.4c-2.2-2-4.9-4.5-7.1-6.5
		l-7.1,0.3c-1.9,2-4.7,5.1-6.5,7.1l0.2,3.6c-1.7,0.1-10.1,0.4-12,0.5c0-0.9-0.1-2.7-0.2-3.6c-2-1.8-5.1-4.7-7.1-6.5
		c-0.2,0-6.9,0.3-7.1,0.3c-2,2.1-4.6,5-6.5,7.1c0,0.2,0.1,3.5,0.2,3.6l-1.1,0l-10.9,0.5c0-0.3-0.1-3.3-0.2-3.6
		c-2-1.8-5.1-4.7-7.1-6.5l-7.1,0.3c-2,2.2-4.5,4.9-6.5,7.1c0,0.2,0.1,3.4,0.2,3.6c-1,0-4.9,0.2-6,0.3l0,0l-3.7,0.2
		c-2-1.9-5-4.6-7-6.4c-0.6-13.1-1.3-30.3-1.8-43.5l6.4-7C252.3,240.7,313.1,238.1,351.7,236.5z M277.9,224.4l4.3,3.5
		c-9.8-0.1-28.6-0.2-38.4-0.2L277.9,224.4z M180.6,228.8c43.9,0.2,94.6,0.5,138.5,0.8l6.5,6.6c-25.9,1.1-86.5,3.6-113,4.8l-7.2,7.9
		c0.3,6.6,1,22.9,1.2,29.3l-2.5-2.6l-7.1,0l-6.8,6.8c0,0.9,0,2.7,0,3.6c-1.1,0-4.8,0-6,0v0l-3.7,0l-6.6-6.7c0-2,0.2-40.3,0.2-43.6
		C175.6,233.8,178.9,230.5,180.6,228.8z M140.1,237.8l32.6-3.2l-0.2,0.2c0,8.9-0.2,41.9-0.3,50.3l-4-3.3l-7.1,0.7l-6.1,7.4l0.3,3.6
		l-6,0.6l0,0l-3.7,0.4l-7.3-6l-4.2-43.4L140.1,237.8z" />
        <g>
            <g>
                <polygon class="white" points="176,291.5 176.8,291.4 175.8,290.4 			" />
            </g>
            <g>
                <polygon class="white"
                    points="161,282.5 168.2,281.8 172.2,285.1 172.2,274.3 138.7,277.6 135.6,245.6 140.8,239.2 172.4,236.1 
				172.4,234.9 172.7,234.6 140.1,237.8 134.1,245.1 138.3,288.5 145.6,294.5 149.3,294.1 149.3,294.1 155.3,293.5 154.9,290 			" />
            </g>
            <g>
                <path class="white" d="M174,288.6l-6.3-5.2l-5.9,0.6l-5.3,6.5c0.1,1.5,0.4,4.4,0.6,5.9c0.2,0.2,6.1,5,6.5,5.3l5.9-0.6
				c0.3-0.4,5.1-6.3,5.3-6.5c-0.1-1.5-0.4-4.4-0.6-5.8L174,288.6z" />
            </g>
            <g>
                <path class="white" d="M204.1,275.5l2.5,2.6c-0.1-1.8-0.3-7.9-0.4-9.6l-31-0.2l0.2-32.2c1.8-1.7,4.1-4,5.8-5.8
				c42,0.2,95.1,0.5,137.3,0.8l5.1,5.2l2-0.1l-6.5-6.6c-44-0.2-94.6-0.5-138.5-0.8c-1.8,1.7-5,5-6.7,6.7c0,3.3-0.2,41.5-0.2,43.6
				l6.6,6.7l3.7,0v0c1.2,0,4.9,0,6,0c0-0.9,0-2.7,0-3.6l6.8-6.8L204.1,275.5z" />
            </g>
            <g>
                <path class="white" d="M203.5,277l-5.9,0c-1.4,1.3-4.6,4.5-6,5.9c0,1.7,0,4.2,0,5.9c1.6,1.6,4.3,4.4,5.9,6l5.9,0
				c0.8-0.8,3-3,3.8-3.8c-0.1-3.4-0.3-7.3-0.5-10.8L203.5,277z" />
            </g>
            <g>
                <path class="white" d="M360.5,286.4l-1.8-43.5l-7-6.4c-38.3,1.6-99.6,4.2-138.4,5.8l-6.4,7c0.6,13.3,1.3,30.4,1.8,43.5
				c2,1.8,5,4.6,7,6.4l3.7-0.2l0,0c1.1,0,4.9-0.2,6-0.3c0-0.1-0.1-3.4-0.2-3.6c2-2.2,4.5-4.9,6.5-7.1l7.1-0.3c2,1.8,5.1,4.7,7.1,6.5
				c0,0.2,0.1,3.3,0.2,3.6c0.4,0,12-0.5,12-0.5c0,0-0.1-3.4-0.2-3.6c1.9-2.1,4.6-5,6.5-7.1c0.2,0,6.9-0.3,7.1-0.3
				c2,1.9,5.1,4.7,7.1,6.5c0,0.9,0.1,2.7,0.2,3.6c1.9-0.1,10.3-0.4,12-0.5l-0.2-3.6c1.8-2,4.7-5.1,6.5-7.1l7.1-0.3
				c2.2,2,4.9,4.5,7.1,6.5l0.1,3.4l0,0.2c3.6-0.2,8.4-0.4,12-0.5l-0.2-3.6c1.8-1.9,4.8-5.2,6.5-7.1l7.1-0.3l7.1,6.5l0.2,3.6l6-0.3v0
				l3.7-0.2L360.5,286.4z M327.1,277.1c-38.8,1.6-78.6,3.3-117.3,5c-0.3-8.1-1-23.9-1.4-32.1l5.6-6.1c38.7-1.6,99-4.2,137.2-5.8
				l6.1,5.6l1.4,32.1L327.1,277.1z" />
            </g>
            <g>
                <path class="white"
                    d="M238.4,289.4l-5.6,0.2l-0.4,0c-1.4,1.5-4.3,4.7-5.7,6.2c0.1,1.6,0.2,4.1,0.2,5.7l0,0.2
				c0.2,0.2,5.8,5.4,6.2,5.7l5.9-0.2c0.4-0.4,5.5-6,5.7-6.2c-0.1-1.5-0.2-4.4-0.3-5.9C242.8,293.5,240.1,291,238.4,289.4z" />
            </g>
            <g>
                <path class="white" d="M271.1,288c-0.6,0-5.2,0.2-5.9,0.2c-1.7,1.9-3.9,4.3-5.7,6.2c0.1,1.7,0.2,4.3,0.3,5.9
				c1.4,1.3,4.8,4.4,6.2,5.7l5.9-0.2c0.4-0.4,5.5-6,5.7-6.2c-0.1-1.7-0.2-4.3-0.3-5.9C275.4,292,273,289.7,271.1,288z" />
            </g>
            <g>
                <path class="white" d="M303.8,286.6l-5.9,0.2c-1.5,1.7-4.1,4.5-5.7,6.2c0.1,1.5,0.2,4.4,0.2,5.9c1.7,1.5,4.5,4.2,6.2,5.7l5.9-0.2
				c0.4-0.4,5.5-6,5.7-6.2c-0.1-1.5-0.2-4.4-0.2-5.9C308.4,290.9,305.4,288.1,303.8,286.6z" />
            </g>
            <g>
                <path class="white" d="M336.6,285.3l-5.9,0.2l-5.7,6.2c0.1,1.5,0.2,4.4,0.2,5.9c0.2,0.2,5.8,5.4,6.2,5.7l5.9-0.2
				c0.4-0.4,5.5-6,5.7-6.2c-0.1-1.5-0.2-4.4-0.2-5.9L336.6,285.3z" />
            </g>
        </g>
    </g>
    <g>
        <polygon class="v2-alt"
            points="617.1,78.8 617.1,78.7 611.5,72.5 471.5,65.5 465.3,71.1 463.6,103.9 498.6,105.7 	" />
        <path class="v2-main" d="M654.1,119.7l-0.8-32.8l-6.1-5.8c-20,0.5-118.1,2.9-140.1,3.4l-5.8,6.1c0.2,8.1,0.6,24.7,0.8,32.8
		C551.8,122.2,604.4,120.9,654.1,119.7z" />
        <path class="border" d="M476.2,131.1l7.3,8l8.5,0.4l7.3-6.6l0.2,9.3l7.9,7.5l9.2-0.2l7.8,7.5l8.5-0.2l7.5-7.8l9.6-0.2l7.8,7.5l8.5-0.2
		l7.5-7.8l9.6-0.2l7.8,7.5l8.5-0.2l7.5-7.8l9.6-0.2l7.8,7.5l8.5-0.2l7.5-7.8l9.2-0.2l7.5-7.9l-1.3-52.9l-7.9-7.5l-28.3,0.7l0.1-1.1
		l-7.3-8.1l-142.5-7.1l-8.1,7.3l-2.6,52.9l7.3,8.1L476.2,131.1z M491.1,132.3l-6-0.3c-0.4-0.4-5.5-6.1-5.7-6.4
		c0.1-1.5,0.2-4.5,0.3-6l6.3-5.8l6,0.3l5.7,6.4c-0.1,1.5-0.2,4.5-0.3,6C497.3,126.7,491.5,131.9,491.1,132.3z M531.6,149.6l-6,0.1
		c-0.4-0.4-6-5.7-6.2-5.9c0-1.5-0.1-4.5-0.1-6c1.4-1.4,4.6-4.8,5.9-6.2c1.3,0,4.7-0.1,6-0.1c1.5,1.4,4.7,4.5,6.2,5.9
		c0,1.5,0.1,4.5,0.1,6C537.4,143.6,532,149.3,531.6,149.6z M565.1,148.8l-6,0.1c-0.4-0.4-6-5.7-6.2-5.9c0-1.6-0.1-4.4-0.1-6
		c1-1.1,4.8-5.1,5.9-6.2c0.9,0,5.2-0.1,6-0.1c0.5,0.4,5.9,5.7,6.2,5.9c0,1.5,0.1,4.5,0.1,6C570.8,142.8,565.4,148.4,565.1,148.8z
		 M598.5,148l-6,0.1c-1.5-1.4-4.7-4.5-6.2-5.9c0-1.7-0.1-4.4-0.1-6c1.2-1.3,4.8-5,5.9-6.2l5.8-0.1l0.3,0c0.8,0.7,5.3,5.1,6.2,5.9
		c0,1.7,0.1,4.3,0.1,6C604.2,142,598.9,147.6,598.5,148z M632,147.2l-6,0.1c-0.4-0.4-6-5.7-6.2-5.9c0-1.5-0.1-4.5-0.1-6l5.9-6.2
		l6-0.1l6.2,5.9c0,1.5,0.1,4.5,0.1,6C637.7,141.2,632.3,146.8,632,147.2z M647.8,79.5l7,6.7l1.1,44.5l-6.7,7l-3.8,0.1v0l-6.1,0.1
		l-0.1-3.7l-7.1-6.8l-7.3,0.2l-6.8,7.1l0.1,3.7l-12.2,0.3c0-0.7-0.1-2.9-0.1-3.7c-0.4-0.4-6.9-6.6-7.1-6.8c-1.9,0-5.4,0.1-7.3,0.2
		c-1.7,1.7-5.1,5.4-6.8,7.1c0,0.3,0.1,3.3,0.1,3.7c-3,0.1-9.2,0.2-12.2,0.3c0,0-0.1-3.6-0.1-3.7c-0.2-0.2-7.2-6.9-7.1-6.8
		c-0.2,0-6.8,0.2-7.3,0.2c-1.3,1.4-5.5,5.8-6.8,7.1l0.1,3.7c-2,0-10.1,0.2-12.2,0.3l-0.1-3.7c-1.6-1.5-5.5-5.2-7.1-6.8
		c-1.7,0-5.6,0.1-7.3,0.2c-1.7,1.8-5.1,5.3-6.8,7.1l0.1,3.7c-0.1,0-6,0.1-6.1,0.1l0,0l-3.8,0.1l-7-6.7c-0.3-13-0.8-31.4-1.1-44.5
		l6.7-7C529.4,82.4,627,80,647.8,79.5z M463.8,70.4l7.2-6.5l141.3,7l6.5,7.2l0,0.6c-2,0-110.9,2.7-112.9,2.7l-7.5,7.9
		c0.2,7.5,0.6,22.7,0.7,30.1l-6.2-6.9l-7.3-0.4l-7.3,6.6l-0.2,3.7l-6.1-0.3l0,0l-3.8-0.2l-6.5-7.2L463.8,70.4z" />
        <g>
            <g>
                <polygon class="white" points="463.6,103.9 465.3,71.1 471.5,65.5 611.5,72.5 617.1,78.7 617.1,78.8 618.6,78.7 618.7,78.1 
				612.2,71 470.9,63.9 463.8,70.4 461.6,114.9 468.1,122 471.9,122.2 471.9,122.2 478,122.5 478.2,118.9 485.4,112.3 492.7,112.6 
				499,119.5 498.6,105.7 			" />
            </g>
            <g>
                <path class="white" d="M486,113.8l-6.3,5.8c-0.1,1.5-0.2,4.5-0.3,6c0.2,0.2,5.4,6,5.7,6.4l6,0.3c0.4-0.4,6.1-5.5,6.4-5.7
				c0.1-1.5,0.2-4.5,0.3-6l-5.8-6.4L486,113.8z" />
            </g>
            <g>
                <path class="white" d="M654.8,86.2l-7-6.7c-1.7,0-29.9,0.7-30.8,0.7L506.4,83l-6.7,7c0.3,13.1,0.8,31.4,1.1,44.5l7,6.7l3.8-0.1v0
				c0.2,0,6-0.1,6.1-0.1l-0.1-3.7c1.7-1.8,5.1-5.3,6.8-7.1c1.7,0,5.6-0.1,7.3-0.2c1.7,1.6,5.5,5.2,7.1,6.8l0.1,3.7
				c2.2-0.1,10.2-0.2,12.2-0.3l-0.1-3.7c1.3-1.3,5.5-5.8,6.8-7.1c0.5,0,7-0.2,7.3-0.2c-0.1-0.1,6.9,6.6,7.1,6.8
				c0,0.1,0.1,3.6,0.1,3.7c3-0.1,9.3-0.2,12.2-0.3c0-0.4-0.1-3.3-0.1-3.7c1.7-1.8,5.1-5.4,6.8-7.1c1.9,0,5.4-0.1,7.3-0.2
				c0.2,0.2,6.7,6.4,7.1,6.8c0,0.8,0.1,2.9,0.1,3.7l12.2-0.3l-0.1-3.7l6.8-7.1l7.3-0.2l7.1,6.8l0.1,3.7l6.1-0.1v0l3.8-0.1l6.7-7
				L654.8,86.2z M502.1,123.4c-0.2-8.2-0.6-24.7-0.8-32.8l5.8-6.1L617,81.8c0.8,0,2.3-0.1,3-0.1l27.2-0.7l6.1,5.8l0.8,32.8
				C604.3,120.9,551.8,122.2,502.1,123.4z" />
            </g>
            <g>
                <path class="white" d="M533.9,134l-2.7-2.6c-1.3,0-4.8,0.1-6,0.1c-1.3,1.4-4.6,4.8-5.9,6.2c0,1.5,0.1,4.5,0.1,6
				c0.2,0.2,5.8,5.6,6.2,5.9l6-0.1c0.4-0.4,5.7-6,5.9-6.2c0-1.5-0.1-4.5-0.1-6L533.9,134z" />
            </g>
            <g>
                <path class="white" d="M564.6,130.6c-0.8,0-5.1,0.1-6,0.1c-1.1,1.2-4.9,5.1-5.9,6.2c0,1.4,0.1,4.2,0.1,5.6l0,0.4
				c0.2,0.2,5.8,5.6,6.2,5.9l6-0.1c0.4-0.4,5.7-6,5.9-6.2c0-1.5-0.1-4.5-0.1-6C570.6,136.3,565.1,131.1,564.6,130.6z" />
            </g>
            <g>
                <path class="white" d="M598.1,129.8l-0.3,0L592,130c-1.1,1.2-4.7,5-5.9,6.2c0,1.6,0.1,4.4,0.1,6c1.5,1.4,4.7,4.5,6.2,5.9l6-0.1
				c0.4-0.4,5.7-6,5.9-6.2c0-1.7-0.1-4.4-0.1-6C603.4,134.9,598.8,130.6,598.1,129.8z" />
            </g>
            <g>
                <path class="white" d="M631.5,129l-6,0.1l-5.9,6.2c0,1.5,0.1,4.5,0.1,6l0.6,0.6l5.6,5.3l6-0.1c0.4-0.4,5.7-6,5.9-6.2
				c0-1.5-0.1-4.5-0.1-6L631.5,129z" />
            </g>
        </g>
    </g>
    <g>
        <g class="alt">
            <polygon class="v6-main"
                points="239.3,393.3 238.2,384.2 233.3,380.3 130.2,392.4 126.3,397.2 129.1,421.4 145.7,419.5 		" />
            <polygon class="v6-main"
                points="182,399.1 181.6,423.4 201.2,423.7 239.2,409.5 239.7,395.6 186.5,394.7 		" />
            <polygon class="v6-main"
                points="350.3,394.9 246.5,391.3 241.9,395.6 241.1,419.9 253.5,420.3 353.9,417 354.5,399.4 		" />
        </g>
        <g>
            <polygon class="v6-main"
                points="148.5,410.8 146.9,435.1 155.1,435.6 179.1,437.2 179.6,408.4 153.2,406.7 		" />
            <polygon class="v6-main"
                points="239.1,411.7 207,414.7 203.1,419.5 205.3,443.7 247.8,439.8 241.1,423.1 		" />
            <polygon class="v6-main"
                points="364.6,420.3 317,415.7 261.2,410.2 256.4,414.2 254,438.4 366.2,449.3 368.5,425.1 		" />
        </g>
        <g>
            <path class="border" d="M134.8,440.5l6.8-0.8l2.6,2l-0.5,7.1l5.3,6.1l6.8,0.4l5.3,6l6.3,0.4l6-5.3l7.1,0.5l5.3,6l6.3,0.4l6-5.3l7,0.5
			l5.3,6l6.3,0.4l1.8-1.6l4.8,4l6.3-0.6l3-3.6l2.6,2.9l6.3,0.4l4-3.5l2.5,2.1l6.3-0.6l5-6l2.9,0.3l5.1,6.2l6.3,0.6l4-3.3l1.4-0.1
			l1.4-1.6l6.5,0.6l5.1,6.2l6.3,0.6l6.2-5.1l7.1,0.7l5.1,6.2l6.3,0.6l6.2-5.1l7.1,0.7l5.1,6.2l6.3,0.6l6.2-5.1l6.8,0.7l6.2-5.1
			l3.8-39l-5.1-6.3l-9.6-0.9l0.6-18.7l-5.5-5.9L245.6,389l-4.1,3.9l-1.2-9.9l-6.3-5l-105,12.2l-5,6.3l4.5,38.9L134.8,440.5z
			 M143.8,435.7l-0.5-0.4l-0.5-4.4l2.4-3l-0.6,8.5L143.8,435.7z M166.9,456.4l-4.5-0.3l-4.2-4.8l0.3-4.5l4.8-4.2l4.5,0.3l4.2,4.8
			l-0.3,4.5L166.9,456.4z M173,450l0.2-2.7l-4.8-5.5l-5.4-0.4l-5.5,4.8l-0.2,2.7l-4.5-0.3v0l-2.8-0.2l-4.7-5.4l2.2-32.9l5.4-4.7
			l26.8,1.8l-0.5,30l5.6,5.8l2.9,0l-5.4,4.8l-0.2,2.7L173,450z M180.8,406.3l0.1-7.7l5.1-5l53.8,0.9l-0.1,0.1l-0.5,14.9l-33.3,3.1
			l-5.2,6.2l0.9,10.3L198,429l-5.2,5.1l0,2.7l-4.5-0.1v0l-2.8,0l-5-5.1L180.8,406.3z M202,432.9l1,10.5l-0.3,0.3l-4.5-0.1l-4.4-4.6
			l0.1-4.5l4.6-4.4l3.4,0.1L202,432.9z M191.6,443.2l0.2,0.2l-3.5-0.2L191.6,443.2z M191.7,458l-4.5-0.3l-4.2-4.8l0.3-4.5l4.8-4.2
			l4.5,0.3l4.2,4.8l-0.3,4.5L191.7,458z M197.7,451.7l0.2-2.7l5.6,0.1l0,0l0.3,3L197.7,451.7z M205.2,452.2l-0.3-0.2l-3-32.8
			l4.6-5.5l32.7-3l-0.8,23.1l5.5,5.9l6.8,0.2l0.8,0.9l-0.4,4.1l-4.3,0.4l-4.7,5.6l0.2,2.7l-9,0.8l-0.2-2.7l-5.6-4.7l-5.4,0.5
			l-4.7,5.6l0.2,2.5l0,0.2l-4.5,0.4l0,0l-2.8,0.3L205.2,452.2z M251,452.8l3.7,4.5l-1.7,2l-4.5,0.4l-4.9-4.1l-0.4-4.5l4.1-4.9
			l3.6-0.3l-0.6,6L251,452.8z M228.4,461.6l-4.5,0.4l-4.9-4.1l-0.4-4.5l4.1-4.9l4.5-0.4l4.9,4.1l0.4,4.5L228.4,461.6z M241.1,461.2
			l-4.5-0.3l-0.3-0.3l5.7-0.5l0.2,0.2L241.1,461.2z M268.9,459.9l-4-4.9l0.4-4.5l4.9-4l4.5,0.4l4,4.9l-0.4,4.5l-4.9,4l-4.2-0.4
			L268.9,459.9z M298.1,462.7l-4.5-0.4l-4-4.9l0.4-4.5l4.9-4l4.5,0.4l4,4.9l-0.4,4.5L298.1,462.7z M322.7,465.1l-4.5-0.4l-4-4.9
			l0.4-4.5l4.9-4l4.5,0.4l4,4.9l-0.4,4.5L322.7,465.1z M347.4,467.5l-4.5-0.4l-4-4.9l0.4-4.5l4.9-4l4.5,0.4l4,4.9l-0.4,4.5
			L347.4,467.5z M365.1,419.2l4.5,5.5l-3.2,32.8l-5.5,4.5l-2.8-0.3l0,0l-4.5-0.4l0.3-2.7l-4.6-5.6l-5.4-0.5l-5.6,4.6l-0.3,2.7
			l-9-0.9l0.3-2.7l-4.6-5.6l-5.4-0.5l-5.6,4.6l-0.3,2.7l-9-0.9l0.3-2.7l-4.6-5.6l-5.4-0.5l-5.6,4.6l-0.3,2.7l-8.5-0.8l-0.5-0.1
			l0.3-2.7l-4.6-5.6l-5.4-0.5l-5.6,4.6l-0.3,2.7l-4.5-0.4l0,0l-2.8-0.3l-4.5-5.5l3.2-32.8l5.5-4.5L365.1,419.2z M246,390.2
			l104.7,3.6l4.9,5.2l-0.6,18.1l-94.5-9.2l-6.2,5.1l-1.7,17.2l-0.5,0.5l-0.1,2.7l-4.5-0.2l0,0l-2.8-0.1l-4.9-5.2l1.1-32.9L246,390.2
			z M129.6,391.3l104.1-12.1l5.6,4.4l1.1,9.8l-1.1,0l-53.7-0.9l-5.8,5.6l-0.1,8.1l-27.3-1.8l-6.1,5.3l-1.1,16.2l-3.7,4.7l0.3,2.7
			l-4.5,0.5l0,0l-2.8,0.3l-5.6-4.4l-3.8-32.7L129.6,391.3z" />
        </g>
        <g>
            <g>
                <polygon class="white" points="145.2,425.9 145.7,419.5 129.1,421.4 126.3,397.2 130.2,392.4 233.3,380.3 238.2,384.2 239.3,393.3 
				240.4,393.4 239.3,383.6 233.7,379.2 129.6,391.3 125.1,396.9 128.9,429.6 134.6,434.1 137.4,433.8 137.4,433.8 141.9,433.2 
				141.6,430.5 			" />
            </g>
            <g>
                <polygon class="white" points="143.3,435.3 144.6,436.4 145.1,427.9 142.7,430.9 			" />
            </g>
            <g>
                <polygon class="white" points="184.7,443.1 179.1,437.3 179.1,437.2 146.9,435.1 148.5,410.8 153.2,406.7 179.6,408.4 179.6,407.3 
				152.8,405.5 147.4,410.3 145.2,443.2 150,448.5 152.8,448.7 152.8,448.7 157.3,449 157.5,446.3 163,441.5 168.4,441.9 
				173.2,447.3 173,450 182,450.6 182.2,447.9 187.7,443.2 			" />
            </g>
            <g>
                <polygon class="white" points="203.5,449.1 197.9,449 197.7,451.7 203.8,452.1 203.5,449.1 			" />
            </g>
            <g>
                <polygon class="white" points="191.8,443.4 191.6,443.2 188.3,443.2 			" />
            </g>
            <g>
                <polygon class="white" points="163.3,442.7 158.6,446.9 158.3,451.3 162.5,456.1 166.9,456.4 171.7,452.2 172,447.7 167.8,443 			
				" />
            </g>
            <g>
                <polygon class="white" points="188.1,444.3 183.3,448.5 183,452.9 187.2,457.7 191.7,458 196.4,453.8 196.7,449.4 192.5,444.6 			
				" />
            </g>
            <g>
                <polygon class="white" points="236.4,460.6 236.7,461 241.1,461.2 242.2,460.3 242,460.1 			" />
            </g>
            <g>
                <polygon class="white" points="186.5,394.7 239.7,395.6 239.7,394.6 239.8,394.5 186,393.6 180.9,398.6 180.3,431.5 185.3,436.7 
				188.1,436.7 188.1,436.7 192.7,436.8 192.7,434.1 198,429 201.7,429.1 201.2,423.7 181.6,423.4 182,399.1 			" />
            </g>
            <g>
                <polygon class="white"
                    points="193.8,434.6 193.8,439 198.2,443.6 202.7,443.7 203,443.4 201.8,430.2 198.4,430.2 			" />
            </g>
            <g>
                <polygon class="white" points="246.8,445.3 251.1,444.9 251.5,440.8 250.7,439.9 205.3,443.7 203.1,419.5 207,414.7 239.1,411.7 
				239.2,410.6 206.5,413.6 201.9,419.1 204.9,451.9 210.4,456.5 213.2,456.2 213.2,456.3 217.7,455.8 217.7,455.7 217.5,453.1 
				222.2,447.5 227.5,447.1 233.1,451.7 233.4,454.4 242.4,453.6 242.2,450.9 			" />
            </g>
            <g>
                <polygon class="white" points="232.1,452.3 227.2,448.2 222.7,448.6 218.7,453.5 219.1,458 223.9,462 228.4,461.6 232.5,456.7 
				232.2,453.9 			" />
            </g>
            <g>
                <polygon class="white" points="250.4,452.1 251,446 247.4,446.4 243.3,451.2 243.7,455.7 248.6,459.8 253.1,459.4 254.8,457.3 
				253.1,455.3 			" />
            </g>
            <g>
                <polygon class="white" points="244.6,433.2 247.4,433.3 247.4,433.3 251.9,433.5 252,430.8 252.6,430.3 253.5,420.3 241.1,419.9 
				241.9,395.6 246.5,391.3 350.3,394.9 354.5,399.4 353.9,417 355,417.1 355.7,399 350.8,393.8 246,390.2 240.8,395.1 239.7,428 
							" />
            </g>
            <g>
                <path class="white" d="M365.1,419.2l-11.3-1.1l-93-9.1l-5.5,4.5l-3.2,32.8l4.5,5.5l2.8,0.3v0l4.5,0.4l0.3-2.7l5.6-4.6l5.4,0.5
				l4.6,5.6l-0.3,2.7l0.5,0.1l8.5,0.8l0.3-2.7l5.6-4.6l5.4,0.5l4.6,5.6l-0.3,2.7l9,0.9l0.3-2.7l5.6-4.6l5.4,0.5l4.6,5.6L329,459
				l9,0.9l0.3-2.7l5.6-4.6l5.4,0.5l4.6,5.6l-0.3,2.7l4.5,0.4v0l2.8,0.3l5.5-4.5l3.2-32.8L365.1,419.2z M366.2,449.3L254,438.4
				l2.4-24.2l4.8-4l94.9,9.3l8.5,0.8l4,4.8L366.2,449.3z" />
            </g>
            <g>
                <polygon class="white" points="270.2,446.5 265.3,450.5 264.9,455 268.9,459.9 269.2,459.9 273.4,460.3 278.3,456.3 278.7,451.8 
				274.7,446.9 			" />
            </g>
            <g>
                <polygon class="white" points="294.9,448.9 290,452.9 289.6,457.4 293.6,462.3 298.1,462.7 303,458.7 303.4,454.2 299.4,449.3 			
				" />
            </g>
            <g>
                <polygon class="white" points="319.6,451.3 314.7,455.3 314.2,459.8 318.3,464.7 322.7,465.1 327.6,461.1 328.1,456.6 324,451.7 
							" />
            </g>
            <g>
                <polygon class="white" points="344.2,453.7 339.3,457.7 338.9,462.2 342.9,467.1 347.4,467.5 352.3,463.5 352.7,459 348.7,454.1 
							" />
            </g>
        </g>
    </g>
    <g>
        <g class="alt">
            <polygon class="v8-main"
                points="480.4,404.5 521.2,380.9 521.8,371.3 454.5,376.4 450.3,381.3 452.2,406.6 		" />
            <polygon class="v8-main"
                points="640.2,374.7 637.3,371.3 529.3,363.6 524.4,367.8 522.6,393.1 544.9,394.7 		" />
            <polygon class="v8-main"
                points="449.5,422.4 445.4,427.4 447.8,452.7 482.3,449.3 537.4,423.4 539,413.8 535.5,414.1 		" />
            <polygon class="v8-main" points="656,412.2 549.2,394.5 544,398.3 539.8,423.3 581.7,430.2 587.6,431.2 591.9,430.9 658.3,426.1 
			659.8,417.5 		" />
        </g>
        <g>
            <polygon class="v8-main" points="524,412.9 521,383.3 484.9,389 481.1,394.3 484.7,416.7 		" />
            <polygon class="v8-main" points="570.2,395.6 640.5,407.2 641.7,407.1 668.7,403.4 665.3,378.3 660.1,374.4 552.9,389 550.4,392.3 
			569,395.4 		" />
            <polygon class="v8-main"
                points="565.3,448.3 537,425.7 491.9,421.4 486.9,425.6 484.5,450.8 566,458.5 565.5,451.1 		" />
            <polygon class="v8-main"
                points="684.1,431.2 679.2,426.9 571.3,434.7 567,439.6 568.8,464.9 685.9,456.4 		" />
        </g>
        <g>
            <path class="border" d="M686.3,430l-6.4-5.5l-19.2,1.4l0.1-0.7l7-1l5.1-6.7l-5.5-40.5l-6.7-5.1l-17.8,2.4l-4.6-5.3l-109.9-7.9
			l-6.4,5.5L522,369l-68.7,5.2l-5.5,6.4l3,39.4l-2.6,0.2l-5.4,6.5l3.9,40.7l6.5,5.4l7.1-0.7l6.4,5.3l6.6-0.6l5.3-6.4l5.9-0.6
			l1.5,1.8l2.7,0.3l3.7,3.1l2.6-0.3l3.3,4l6.6,0.6l6.4-5.3l7.4,0.7l5.3,6.4l6.6,0.6l6.4-5.3l7.4,0.7l5.3,6.4l6.6,0.6l6.4-5.3
			l4.5,0.4l0,0.3l6.4,5.5l1-0.1l0.8,0.9l6.6,0.6l0.5-0.4l4.5,3.9l6.6-0.5l5.5-6.3l7.4-0.5l6.3,5.5l6.6-0.5l5.5-6.3l7.4-0.5l6.3,5.5
			l6.6-0.5l5.5-6.3l7.4-0.5l6.3,5.5l6.6-0.5l5.5-6.3l7.1-0.5l5.5-6.4L686.3,430z M601.5,430.2l-31.4,2.3l-4.8,5.6l-3.9-5.5l-5.6-0.9
			l-6.2,4.4l-0.5,2.8l-4.7-0.8l0,0l-2.9-0.5l-4.3-6.1l5.6-33.9l6.1-4.3l107.7,17.9l4.3,6.1l-1.5,8.8l-1.2,0.1L601.5,430.2z
			 M549.9,441.3l0.8-4.6l5.4-3.9l4.6,0.8l3.8,5.4l-0.8,4.6l-5.4,3.8l-4.6-0.8L549.9,441.3z M521,383.3l-1.7,24.2l4.7,5.4l-39.3,3.8
			l-1.2,0.1l-3.6-22.8l4.4-6l36.8-5.9L521,383.3z M535.4,411.3l-1-1.2l0.3-4.7l5-4.3l1.4,0.1l-1.7,10.2l-3.6,0.3L535.4,411.3z
			 M643.9,375.4l16.6-2.3l5.9,4.5l4.6,34l-4.5,5.9l-2.9,0.4l0,0l-1.6,0.2l0.2-1.4l-4.9-6.9l-108.3-18l3.2-4.2L643.9,375.4z
			 M523.3,367.3l5.6-4.9l108.9,7.8l3.8,4.3l-90,12.2l-5.1,6.7l0,0.1l-4.7,3.4l-0.5,2.9l0,0.2l-2-0.1l-5.7,5l-0.2,2.8l-4.7-0.3l0,0
			l-2.9-0.2l-4.9-5.6L523.3,367.3z M451.6,415.2l-2.6-34.2l4.9-5.7l68-5.1l-0.8,10.7l-37.6,6l-4.9,6.8l3.7,23.2l-1.2,0.1l-0.1-1.6
			l-5.8-4.9l-5.6,0.4l-4.9,5.8l0.1,1.9l-8.3,0.8L451.6,415.2z M466.1,418.5l-0.1-1.4l4.3-5l4.7-0.4l5,4.3l0.1,1.1L466.1,418.5z
			 M472,471.2l-4.6,0.4l-5.1-4.2l-0.4-4.6l4.2-5.1l4.7-0.4l5.1,4.2l0.4,4.6L472,471.2z M477.1,463.7l-0.3-2.8L471,456l-5.6,0.5
			l-4.8,5.9l0.3,2.8l-4.7,0.5l0,0l-2.9,0.3l-5.8-4.7l-3.3-34.2l4.7-5.8l90.3-8.7l-1.8,10.8l-46.3-4.4l-6.5,5.4l-3.7,38.9
			L477.1,463.7z M504.7,473.6l-4.7-0.4l-4.2-5.1l0.4-4.6l5.1-4.2l4.7,0.4l4.2,5.1l-0.4,4.6L504.7,473.6z M530.4,476l-4.7-0.4
			l-4.2-5.1l0.4-4.6l5.1-4.2l4.7,0.4l4.2,5.1l-0.4,4.6L530.4,476z M556.1,478.4l-4.7-0.4l-4.2-5.1l0.4-4.6l5.1-4.2l4.7,0.4l4.2,5.1
			l-0.4,4.6L556.1,478.4z M562.6,472l0.3-2.8l-4.8-5.8l-5.6-0.5l-5.8,4.8l-0.3,2.8l-9.4-0.9l0.3-2.8l-4.8-5.8l-5.6-0.5l-5.8,4.8
			l-0.3,2.8l-9.4-0.9l0.3-2.8l-4.8-5.8L501,458l-5.8,4.8l-0.3,2.8l-4.7-0.4l0,0l-2.9-0.3l-4.8-5.7l3.2-34.2l5.7-4.8l45.7,4.3
			l-0.2,1.2l-1.9,11.5l4.9,6.9l7,1.2l4.9,6.8l6.5,1.1l6.8-4.9l0.1,0l1.7,24.2L562.6,472z M592.6,484l-4.7,0.3l-5-4.3l-0.3-4.7l4.3-5
			l4.7-0.3l5,4.3l0.3,4.7L592.6,484z M618.3,482.2l-4.7,0.3l-5-4.3l-0.3-4.7l4.3-5l4.7-0.3l5,4.3l0.3,4.7L618.3,482.2z M644.1,480.3
			l-4.7,0.3l-5-4.3l-0.3-4.7l4.3-5l4.7-0.3l5,4.3l0.3,4.7L644.1,480.3z M669.8,478.4l-4.7,0.3l-5-4.3l-0.3-4.7l4.3-5l4.7-0.3l5,4.3
			l0.3,4.7L669.8,478.4z M682.8,470.5l-2.9,0.2l0,0l-4.7,0.3l-0.2-2.8l-5.7-5l-5.6,0.4l-5,5.7l0.2,2.8l-9.4,0.7l-0.2-2.8l-5.7-5
			l-5.6,0.4l-5,5.7l0.2,2.8l-9.4,0.7l-0.2-2.8l-5.7-5l-5.6,0.4l-5,5.7l0.2,2.8l-9.4,0.7l-0.2-2.8l-5.7-5l-5.6,0.4l-5,5.7l0.2,2.8
			l-4.7,0.3v0l-2.9,0.2l-5.6-4.9l-2.5-34.2l4.9-5.6l108.9-7.9l5.6,4.9l2.5,34.2L682.8,470.5z" />
        </g>
        <g>
            <g>
                <polygon class="white" points="456.6,419.4 464.9,418.6 464.7,416.6 469.7,410.9 475.3,410.5 481.1,415.4 481.2,417 482.3,416.9 
				480.4,404.5 452.2,406.6 450.3,381.3 454.5,376.4 521.8,371.3 521.9,370.1 453.9,375.3 449.1,380.9 451.6,415.2 			" />
            </g>
            <g>
                <polygon class="white" points="470.3,412 465.9,417 466.1,418.5 480,417.1 479.9,416 474.9,411.7 			" />
            </g>
            <g>
                <polygon class="white"
                    points="521,383.3 521.1,382.1 484.3,387.9 479.9,394 483.5,416.8 484.7,416.7 481.1,394.3 484.9,389 			" />
            </g>
            <g>
                <polygon class="white" points="525.7,407.1 528.7,407.4 528.7,407.4 533.4,407.7 533.6,404.9 539.3,399.9 541.3,400.1 541.3,399.9 
				541.8,396.9 544.9,394.7 522.6,393.1 524.4,367.8 529.3,363.6 637.3,371.3 640.2,374.7 641.6,374.5 637.8,370.2 528.9,362.4 
				523.3,367.3 520.8,401.5 			" />
            </g>
            <g>
                <polygon class="white"
                    points="539.7,401.1 534.7,405.5 534.4,410.1 535.8,411.7 539.4,411.4 539.9,408.2 541.1,401.2 			" />
            </g>
            <g>
                <polygon class="white" points="552.3,387.9 549.1,392.1 550.4,392.3 552.9,389 660.1,374.4 665.3,378.3 668.7,403.4 641.7,407.1 
				640.5,407.3 641.6,407.4 657.3,410 662.2,416.9 662,418.3 663.6,418 663.6,418 666.5,417.6 671,411.7 666.4,377.7 660.5,373.2 
				600.3,381.3 			" />
            </g>
            <g>
                <polygon class="white" points="445.4,427.4 449.5,422.4 539,413.8 539.2,412.6 448.9,421.3 444.1,427.1 447.4,461.2 453.2,466 
				456.1,465.7 456.1,465.7 460.8,465.2 460.5,462.4 465.4,456.6 471,456 476.8,460.9 477.1,463.7 480.9,463.3 482.3,449.3 
				447.8,452.7 			" />
            </g>
            <g>
                <polygon class="white" points="470.6,457.3 466,457.7 461.8,462.8 462.2,467.4 467.3,471.7 472,471.2 476.2,466.1 475.7,461.5 			
				" />
            </g>
            <g>
                <polygon class="white" points="566,458.5 484.5,450.8 486.9,425.6 491.9,421.4 537,425.7 537.2,424.5 491.5,420.2 485.7,425 
				482.5,459.1 487.3,464.9 490.2,465.2 490.2,465.2 494.9,465.6 495.2,462.8 501,458 506.6,458.5 511.5,464.3 511.2,467.2 
				520.6,468.1 520.9,465.2 526.7,460.4 532.3,460.9 537.2,466.8 536.9,469.6 546.3,470.5 546.6,467.7 552.4,462.8 558,463.4 
				562.9,469.2 562.6,472 567,472.4 566,458.5 			" />
            </g>
            <g>
                <polygon class="white" points="501.4,459.2 496.3,463.4 495.9,468.1 500.1,473.1 504.7,473.6 509.8,469.4 510.3,464.7 506,459.6 
							" />
            </g>
            <g>
                <polygon class="white"
                    points="527.1,461.6 522,465.8 521.6,470.5 525.8,475.6 530.4,476 535.5,471.8 536,467.2 531.7,462.1 			" />
            </g>
            <g>
                <polygon class="white" points="554.7,464.2 552.8,464 547.7,468.3 547.3,472.9 551.5,478 556.1,478.4 561.2,474.2 561.7,469.6 
				557.5,464.5 			" />
            </g>
            <g>
                <polygon class="white" points="659.5,426 661,417.2 656.7,411.1 548.9,393.3 542.9,397.6 537.3,431.5 541.6,437.5 544.5,438 
				544.5,438 549.2,438.8 549.6,436 555.8,431.6 561.4,432.5 565.3,438 570.1,432.5 587.6,431.2 539.8,423.3 544,398.3 549.2,394.5 
				656,412.2 659.8,417.5 658.3,426.1 			" />
            </g>
            <g>
                <polygon class="white" points="560.7,433.6 556.1,432.8 550.7,436.7 549.9,441.3 553.8,446.7 558.4,447.4 563.8,443.6 564.5,439 
				561,434 			" />
            </g>
            <g>
                <path class="white" d="M687.7,464.8l-2.5-34.2l-5.6-4.9l-108.9,7.9l-4.9,5.6l2.5,34.2l5.6,4.9l2.9-0.2v0l4.7-0.3l-0.2-2.8l5-5.7
				l5.6-0.4l5.7,5l0.2,2.8l9.4-0.7l-0.2-2.8l5-5.7l5.6-0.4l5.7,5l0.2,2.8l9.4-0.7l-0.2-2.8l5-5.7l5.6-0.4l5.7,5l0.2,2.8l9.4-0.7
				l-0.2-2.8l5-5.7l5.6-0.4l5.7,5l0.2,2.8l4.7-0.3l0,0l2.9-0.2L687.7,464.8z M653.3,458.8l-84.5,6.1l-1.8-25.3l4.2-4.9l107.9-7.8
				l4.9,4.2l1.8,25.3L653.3,458.8z" />
            </g>
            <g>
                <polygon class="white" points="596.6,474.4 591.6,470 586.9,470.4 582.6,475.4 582.9,480 587.9,484.4 592.6,484 596.9,479 
				596.6,474.7 			" />
            </g>
            <g>
                <polygon class="white" points="617.3,468.2 612.7,468.5 608.3,473.5 608.7,478.2 613.7,482.5 618.3,482.2 622.6,477.2 622.3,472.5 
							" />
            </g>
            <g>
                <polygon class="white" points="643.1,466.3 638.4,466.7 634.1,471.7 634.4,476.3 639.4,480.6 644.1,480.3 648.4,475.3 648.1,470.6 
							" />
            </g>
            <g>
                <polygon class="white" points="668.8,464.5 664.2,464.8 659.8,469.8 660.2,474.5 665.2,478.8 669.8,478.4 674.2,473.4 673.8,468.8 
							" />
            </g>
        </g>
    </g>
</svg>