<svg xmlns="http://www.w3.org/2000/svg" width="629.2" height="629.1" overflow="visible"><path d="M628.9 314.9c0 88.3-.4 176.7.3 265 .2 27.8-21.1 49.3-49.9 49.2-152-.4-304-.2-456-.2-25.3 0-50.7.1-76 0-22.8-.2-41.4-14.6-46-35.6-.9-3.9-1.3-7.9-1.3-11.9V47.5C0 19.9 20.1 0 47.8 0h533.4c27.8 0 47.7 19.8 47.7 47.5v267.4zm-383.3-78.8v299.2c1.2.1 2 .3 2.8.3 28.5 0 57-.1 85.5.1 4.5 0 4.2-2.4 4.2-5.4 0-36.2-.1-72.3 0-108.5 0-17 0-34 .7-51 .3-7.4 1.5-15 3.4-22.2 7.2-27.1 25.1-39.8 55.2-38.3 23.2 1.1 35.8 11.7 41.3 34.3 2.4 9.8 3.6 20.1 3.7 30.1.4 51.5.3 103 .3 154.5v6h92.8v-4.8c0-56.7.2-113.3-.1-170-.1-23.2-2.3-46.3-9.9-68.5-8.1-23.9-22.4-42.7-46-53.2-21.9-9.7-45.1-12.1-68.5-9.5-31.7 3.5-57.2 18-74.1 45.8-.4.7-.5 1.5-.8 2.3-.6-.4-1.2-.7-1.9-1.1V236c-29.7.1-58.9.1-88.6.1zM94 535.3h92.3v-299H94v299zm99.9-394.6c0-29.7-23.9-53.7-53.6-53.9-29.6-.2-54.2 24.3-54.2 54 .1 29.7 24.6 54.1 54.3 53.9 29.5-.1 53.5-24.3 53.5-54z"/></svg>