<svg id="Livello_1" data-name="Livello 1" xmlns="http://www.w3.org/2000/svg" viewBox="0 0 99 100"><path d="M13.67,87.43c.05.11.11.22.16.32,1.07,2,2.27,2.76,3.88,2.36,1.35-.33,2-1.49,2-3.72-.17-7.65,1.37-14.86,5.48-21.39a37.34,37.34,0,0,1,23.28-17c1.69-.42,1.88-.26,1.89,1.52,0,1.45,0,2.91,0,4.36h0c0,1.53,0,3.07,0,4.6,0,1.21.24,2.38,1.48,3a3.29,3.29,0,0,0,3.53-.39L74.57,48l13.1-8.95c.27-.18.54-.35.8-.54,2-1.45,2.06-3.69.06-5.12-3.79-2.7-7.62-5.32-11.42-8-7-4.88-13.91-9.83-21-14.53a7.91,7.91,0,0,0-1.47-.83,2.76,2.76,0,0,0-4,2.62c-.07,2.09,0,4.19,0,6.29,0,1.25,0,2.51,0,3.76,0,1.75-.19,1.88-1.9,2.1C30.91,27.19,18.26,36.15,11.84,53.14,7.43,64.82,8.24,76.26,13.67,87.43Z"/></svg>