<svg id="Livello_1" data-name="Livello 1" xmlns="http://www.w3.org/2000/svg" viewBox="0 0 99 100"><path d="M99.5,46.9v6.84a1,1,0,0,0-.14.3A50.33,50.33,0,0,1,85.68,85,49.3,49.3,0,0,1,60.07,99.51c-.91.2-1.84.32-2.76.48,0-.09,0-.18,0-.27V65.26c0-.13,0-.26,0-.41H68.58c.21,0,.39,0,.43-.28.14-1.06.31-2.1.47-3.15.43-2.83.87-5.67,1.3-8.5.13-.85.25-1.7.39-2.6H57.3c0-.58,0-1.11,0-1.65,0-3,0-5.92.08-8.89a6.82,6.82,0,0,1,1.67-4.31,7.13,7.13,0,0,1,5.41-2.4c2.27-.09,4.54,0,6.81,0h.46V20.61c-1.22-.16-2.42-.35-3.62-.46-1.75-.18-3.5-.32-5.26-.43A24.61,24.61,0,0,0,53,20.86a15.78,15.78,0,0,0-8.61,7,20.79,20.79,0,0,0-2.69,10.33c-.07,3.87,0,7.74,0,11.61v.51H29V64.86H41.7v34.7c0,.14,0,.29,0,.43a.88.88,0,0,1-.23,0c-1.73-.37-3.48-.67-5.18-1.15A49.24,49.24,0,0,1,12.1,83.7,49.75,49.75,0,0,1,1,62.72,49,49,0,0,1-.36,54.05a1,1,0,0,0-.14-.31V46.9a1,1,0,0,0,.14-.3A47.24,47.24,0,0,1,.71,39.3,49.75,49.75,0,0,1,13.35,15.57,49.37,49.37,0,0,1,34.6,2.28,48,48,0,0,1,45.8.14,1,1,0,0,0,46.1,0h6.8a1,1,0,0,0,.3.14c2,.28,4.09.44,6.1.84A49,49,0,0,1,84,13.93,50.19,50.19,0,0,1,99.36,46.6,1,1,0,0,0,99.5,46.9Z"/></svg>