<svg id="Livello_1" data-name="Livello 1" xmlns="http://www.w3.org/2000/svg" viewBox="0 0 99 100"><path d="M49.49,24.34A25.66,25.66,0,1,0,75.15,50,25.63,25.63,0,0,0,49.49,24.34Zm0,42.33A16.68,16.68,0,1,1,66.17,50,16.67,16.67,0,0,1,49.48,66.67Zm0-42.33A25.66,25.66,0,1,0,75.15,50,25.63,25.63,0,0,0,49.49,24.34Zm0,42.33A16.68,16.68,0,1,1,66.17,50,16.67,16.67,0,0,1,49.48,66.67Zm0-42.33A25.66,25.66,0,1,0,75.15,50,25.63,25.63,0,0,0,49.49,24.34Zm0,42.33A16.68,16.68,0,1,1,66.17,50,16.67,16.67,0,0,1,49.48,66.67Zm0-42.33A25.66,25.66,0,1,0,75.15,50,25.63,25.63,0,0,0,49.49,24.34Zm0,42.33A16.68,16.68,0,1,1,66.17,50,16.67,16.67,0,0,1,49.48,66.67ZM99.11,28.11a37.65,37.65,0,0,0-1.48-8.68A25.4,25.4,0,0,0,86.4,4.68,30.06,30.06,0,0,0,73.09.53c-3.47-.34-7-.42-10.43-.46C55.48,0,48.29,0,41.1,0c-4.8,0-9.6.07-14.4.43a35.43,35.43,0,0,0-9.21,1.89A25.21,25.21,0,0,0,3.81,13.65,31,31,0,0,0-.08,27.1c-.27,3.42-.37,6.84-.4,10.27,0,4.2,0,8.41,0,12.62,0,7-.1,13.92.27,20.87a39.94,39.94,0,0,0,1.34,9C3.8,89.13,9.74,95.27,19,98.16a41.77,41.77,0,0,0,10.66,1.58c3.9.18,7.79.24,11.69.24,9.66,0,19.32.15,29-.31a43.44,43.44,0,0,0,8.27-1.14,26.16,26.16,0,0,0,14.28-8.88,27.22,27.22,0,0,0,5.38-11.48,56.28,56.28,0,0,0,1.07-10.36c.15-4,.16-8,.16-12C99.47,46.59,99.65,37.34,99.11,28.11ZM90.5,55.16c0,3.57,0,7.14-.11,10.71a71.71,71.71,0,0,1-.59,8.66,20.37,20.37,0,0,1-2.68,7.72,16.62,16.62,0,0,1-9.66,7.24,30.09,30.09,0,0,1-6.71,1.13c-8,.48-16.09.31-24.14.33-3.8,0-7.59,0-11.39-.07-3-.08-6.08-.12-9.11-.47a21,21,0,0,1-9.26-3.06A16.82,16.82,0,0,1,9.71,77.1a31.93,31.93,0,0,1-.93-6.53C8.26,59.28,8.49,48,8.52,36.68q0-4.23.33-8.46a25.5,25.5,0,0,1,1.74-8A16.25,16.25,0,0,1,20,11a25.24,25.24,0,0,1,7.62-1.61C34.88,8.88,42.14,9,49.39,9c4.31,0,8.62,0,12.93,0,3,0,6,.11,9,.33a24.34,24.34,0,0,1,8.68,2,16.3,16.3,0,0,1,8.79,9.85,26.14,26.14,0,0,1,1.34,7.1C90.67,37.3,90.48,46.23,90.5,55.16Zm-41-30.82A25.66,25.66,0,1,0,75.15,50,25.63,25.63,0,0,0,49.49,24.34Zm0,42.33A16.68,16.68,0,1,1,66.17,50,16.67,16.67,0,0,1,49.48,66.67Zm0-42.33A25.66,25.66,0,1,0,75.15,50,25.63,25.63,0,0,0,49.49,24.34Zm0,42.33A16.68,16.68,0,1,1,66.17,50,16.67,16.67,0,0,1,49.48,66.67Zm0-42.33A25.66,25.66,0,1,0,75.15,50,25.63,25.63,0,0,0,49.49,24.34Zm0,42.33A16.68,16.68,0,1,1,66.17,50,16.67,16.67,0,0,1,49.48,66.67Zm0-42.33A25.66,25.66,0,1,0,75.15,50,25.63,25.63,0,0,0,49.49,24.34Zm0,42.33A16.68,16.68,0,1,1,66.17,50,16.67,16.67,0,0,1,49.48,66.67Zm0-42.33A25.66,25.66,0,1,0,75.15,50,25.63,25.63,0,0,0,49.49,24.34Zm0,42.33A16.68,16.68,0,1,1,66.17,50,16.67,16.67,0,0,1,49.48,66.67Z"/><path d="M99.11,28.11a37.65,37.65,0,0,0-1.48-8.68A25.4,25.4,0,0,0,86.4,4.68,30.06,30.06,0,0,0,73.09.53c-3.47-.34-7-.42-10.43-.46C55.48,0,48.29,0,41.1,0c-4.8,0-9.6.07-14.4.43a35.43,35.43,0,0,0-9.21,1.89A25.21,25.21,0,0,0,3.81,13.65,31,31,0,0,0-.08,27.1c-.27,3.42-.37,6.84-.4,10.27,0,4.2,0,8.41,0,12.62,0,7-.1,13.92.27,20.87a39.94,39.94,0,0,0,1.34,9C3.8,89.13,9.74,95.27,19,98.16a41.77,41.77,0,0,0,10.66,1.58c3.9.18,7.79.24,11.69.24,9.66,0,19.32.15,29-.31a43.44,43.44,0,0,0,8.27-1.14,26.16,26.16,0,0,0,14.28-8.88,27.22,27.22,0,0,0,5.38-11.48,56.28,56.28,0,0,0,1.07-10.36c.15-4,.16-8,.16-12C99.47,46.59,99.65,37.34,99.11,28.11ZM90.5,55.16c0,3.57,0,7.14-.11,10.71a71.71,71.71,0,0,1-.59,8.66,20.37,20.37,0,0,1-2.68,7.72,16.62,16.62,0,0,1-9.66,7.24,30.09,30.09,0,0,1-6.71,1.13c-8,.48-16.09.31-24.14.33-3.8,0-7.59,0-11.39-.07-3-.08-6.08-.12-9.11-.47a21,21,0,0,1-9.26-3.06A16.82,16.82,0,0,1,9.71,77.1a31.93,31.93,0,0,1-.93-6.53C8.26,59.28,8.49,48,8.52,36.68q0-4.23.33-8.46a25.5,25.5,0,0,1,1.74-8A16.25,16.25,0,0,1,20,11a25.24,25.24,0,0,1,7.62-1.61C34.88,8.88,42.14,9,49.39,9c4.31,0,8.62,0,12.93,0,3,0,6,.11,9,.33a24.34,24.34,0,0,1,8.68,2,16.3,16.3,0,0,1,8.79,9.85,26.14,26.14,0,0,1,1.34,7.1C90.67,37.3,90.48,46.23,90.5,55.16Z"/><path d="M49.49,24.34A25.66,25.66,0,1,0,75.15,50,25.63,25.63,0,0,0,49.49,24.34Zm0,42.33A16.68,16.68,0,1,1,66.17,50,16.67,16.67,0,0,1,49.48,66.67Z"/><path d="M82.18,23.3a6,6,0,1,1-6-6A6,6,0,0,1,82.18,23.3Z"/></svg>