<svg id="Livello_1" data-name="Livello 1" xmlns="http://www.w3.org/2000/svg" viewBox="0 0 99 100"><path d="M99.5,50v38.1c0,7.49-4.39,11.87-11.91,11.88H11.17C4,100-.5,95.53-.5,88.3V11.88C-.5,4.37,3.88,0,11.42,0H87.63C95.13,0,99.5,4.4,99.5,11.91ZM55.08,80V77.51c0-6.32,0-12.63,0-19a19.15,19.15,0,0,1,.68-5.12c1.08-3.6,4.09-5.38,8.08-5.06,3.25.26,5.45,2.45,6,6.14a26.05,26.05,0,0,1,.31,4.14c0,6.32,0,12.63,0,19v2.27H83.15c0-.55.09-.95.09-1.35,0-8.61,0-17.22,0-25.82a23.88,23.88,0,0,0-.48-4.54c-1.24-6.3-5.56-10.56-11.63-11.47s-11.28.63-15.24,5.56A7,7,0,0,1,55,43V37.86H42.7V80Zm-33.85-.08H34.05v-42H21.23Zm14.09-55.5a7.74,7.74,0,1,0-7.78,7.81A7.73,7.73,0,0,0,35.32,24.37Z"/></svg>