<svg id="Livello_1" data-name="Livello 1" xmlns="http://www.w3.org/2000/svg" viewBox="0 0 100 100"><defs>
<style>.cls-1{fill:#fff;}</style></defs>
<path class="cls-1" d="M74.44,32.93c-0.59,3.99-1.21,8.23-1.9,12.44c-1.22,8.14-2.43,16.27-3.7,24.4c-0.1,1.19-0.44,2.34-1,3.39
	c-1.3,1.95-3.75,2.24-5.75,0.84C56.36,70.11,50.67,66.18,45,62.22c-2-1.34-2-2.96-0.38-4.6l14.87-14.5c0.24-0.24,0.59-0.43,0.7-0.72
	c0.13-0.46,0.21-0.92,0.25-1.4C60,41,59.36,40.79,59,41c-1.66,1-3.25,2.06-4.85,3.12C48.42,47.85,42.7,51.59,37,55.35
	c-2.03,1.39-4.63,1.68-6.92,0.77c-3-1-6-1.91-9-3c-0.64-0.24-1.5-1.02-1.5-1.58c0.14-0.76,0.62-1.41,1.31-1.75
	C27,47.13,33.11,44.58,39.23,42L68.1,29.82c0.57-0.25,1.15-0.47,1.75-0.66C72.44,28.39,74.52,30,74.44,32.93z"/>
</svg>
