<svg id="Livello_1" data-name="Livello 1" xmlns="http://www.w3.org/2000/svg" viewBox="0 0 100 100"><defs><style>.cls-1{fill:#fefefe;}.cls-2{fill:#31a9e7;}</style></defs><path class="cls-1" d="M100,50.09A50,50,0,1,0,49.46,100,50,50,0,0,0,100,50.09Z"/><path class="cls-2" d="M100,50.09A50,50,0,1,1,50.23,0,50,50,0,0,1,100,50.09ZM74.44,32.93c.08-2.93-2-4.54-4.59-3.77a15.34,15.34,0,0,0-1.75.66L39.23,42C33.11,44.58,27,47.13,20.89,49.79a2.43,2.43,0,0,0-1.31,1.75c0,.56.86,1.34,1.5,1.58,3,1.09,6,2,9,3A7.42,7.42,0,0,0,37,55.35q8.55-5.64,17.15-11.23C55.75,43.06,57.34,42,59,41c.36-.21,1,0,1.44,0a7.07,7.07,0,0,1-.25,1.4c-.11.29-.46.48-.7.72L44.62,57.62C43,59.26,43,60.88,45,62.22Q53.5,68.16,62.09,74c2,1.4,4.45,1.11,5.75-.84a8.79,8.79,0,0,0,1-3.39c1.27-8.13,2.48-16.26,3.7-24.4C73.23,41.16,73.85,36.92,74.44,32.93Z"/></svg>