<svg id="Livello_1" data-name="Livello 1" xmlns="http://www.w3.org/2000/svg" viewBox="0 0 100 100"><path d="M27.07,52.23Q26,48.45,24.81,44.7c-.79-2.49-1.63-5-2.52-7.42S20.48,32.38,19.5,30c-.49-1.22-1-2.42-1.51-3.64l-.8-1.89a17.13,17.13,0,0,1-.8-2.48A14.83,14.83,0,0,1,16,19.21c0-.48,0-1,0-1.48a10.93,10.93,0,0,1,.24-1.56A9.19,9.19,0,0,1,17.71,13a8.2,8.2,0,0,1,2.79-2.5c.27-.15.54-.28.81-.4l.54-.23,1.08-.4c.72-.26,1.43-.49,2.15-.69,1.42-.41,2.84-.73,4.25-1a56.14,56.14,0,0,1,8.54-.91,56.92,56.92,0,0,1,8.56.35,52.79,52.79,0,0,1,8.48,1.68,46.36,46.36,0,0,1,8.14,3.21A40.84,40.84,0,0,1,70.43,17a38.45,38.45,0,0,1,6.11,6.45c.9,1.2,1.7,2.39,2.46,3.64s1.45,2.53,2.08,3.86a40.35,40.35,0,0,1,3,8.32,41,41,0,0,1,.77,4.38,38.75,38.75,0,0,1,.26,4.44,38.26,38.26,0,0,1-.23,4.42,40,40,0,0,1-.71,4.36,46.68,46.68,0,0,1-6.84,16c-.8,1.21-1.66,2.37-2.55,3.5-.46.57-.92,1.13-1.4,1.67-.23.28-.47.54-.72.81s-.51.56-.77.83A39.63,39.63,0,0,1,65,85.19a47.92,47.92,0,0,1-7.71,4A52.73,52.73,0,0,1,49,91.86a50.27,50.27,0,0,1-8.59,1.26,38.54,38.54,0,0,1-8.87-.48,28.24,28.24,0,0,1-4.49-1.16,22.6,22.6,0,0,1-4.38-2.06,18.42,18.42,0,0,1-3.93-3.23,18.17,18.17,0,0,1-1.61-2.07c-.12-.18-.23-.37-.35-.56l0-.07-.05-.09-.1-.17-.19-.35a12.06,12.06,0,0,1-.58-1.36,15.76,15.76,0,0,1-.91-5.24,17.6,17.6,0,0,1,.68-5.06,18.2,18.2,0,0,1,2-4.63,18.44,18.44,0,0,1,1.41-2,19.12,19.12,0,0,1,1.63-1.84,27,27,0,0,1,7.67-5.3,43.32,43.32,0,0,1,8.35-2.84c1.4-.33,2.81-.59,4.21-.81.7-.11,1.4-.2,2.11-.3s1.4-.16,2.09-.22l2.1-.18,1-.06,1.07-.06c.75,0,1.5,0,2.24,0S53,53,53.66,53l-.31,6.24c-.68,0-1.31,0-1.94,0s-1.24.06-1.85.13l-1,.11-1,.12c-.64.08-1.28.17-1.91.28s-1.26.23-1.89.35-1.25.26-1.86.41-1.23.3-1.84.48l-.9.26-.89.3-.87.31c-.3.11-.58.24-.86.35-.57.24-1.13.48-1.68.74a28.63,28.63,0,0,0-3.08,1.75l-.71.49-.67.5c-.22.18-.44.34-.65.52s-.41.35-.61.53a18.7,18.7,0,0,0-2.1,2.2,13.45,13.45,0,0,0-2.5,4.64,9.31,9.31,0,0,0-.37,2.44,8.93,8.93,0,0,0,0,1.17,6.28,6.28,0,0,0,.19,1c0,.14.08.26.1.35a.21.21,0,0,1,0,.06v0l0,0c0,.09.09.17.13.26s.2.34.31.51.22.33.34.5A9.91,9.91,0,0,0,27.29,82,16.73,16.73,0,0,0,33,84.7a26.7,26.7,0,0,0,3.43.7c.6.08,1.19.14,1.8.19s1.21.06,1.82.07,1.22,0,1.84,0l.92,0,.93-.08c.61-.07,1.23-.14,1.84-.23s1.23-.21,1.84-.33a45.93,45.93,0,0,0,7.18-2.14c1.16-.45,2.3-1,3.41-1.53s2.2-1.18,3.25-1.83a34,34,0,0,0,3-2.14A30,30,0,0,0,67,74.85c.21-.21.42-.43.62-.66s.42-.46.62-.7q.61-.7,1.2-1.44c.77-1,1.51-2,2.19-3s1.32-2.12,1.91-3.22,1.12-2.22,1.61-3.36.91-2.31,1.28-3.49a36.86,36.86,0,0,0,1-3.57,34.27,34.27,0,0,0,.58-3.63,32.08,32.08,0,0,0,.21-3.66c0-1.22-.07-2.44-.19-3.66a31.6,31.6,0,0,0-.6-3.61,33.5,33.5,0,0,0-2.39-7,35.53,35.53,0,0,0-1.74-3.28,36.29,36.29,0,0,0-2-3.11A32.43,32.43,0,0,0,60,18a42.12,42.12,0,0,0-14.34-4.34,50.92,50.92,0,0,0-7.61-.37,49.39,49.39,0,0,0-7.59.73c-1.24.22-2.48.5-3.68.83-.6.16-1.19.35-1.76.55l-.86.31-.41.17-.24.11a2.11,2.11,0,0,0-.73.63,2.92,2.92,0,0,0-.46,1,6.46,6.46,0,0,0,.07,2.92,9.28,9.28,0,0,0,.49,1.58l.08.2.09.23.19.47.39.92c.51,1.24,1,2.49,1.51,3.74,1,2.5,1.92,5,2.81,7.57s1.72,5.1,2.51,7.66S32,48,32.74,50.63Z"/><path d="M39.27,35c.21.9.4,1.79.58,2.68s.34,1.78.49,2.67.3,1.78.43,2.68.25,1.8.35,2.73l.24,2.39-4.47.63-.51-2.34c-.18-.82-.38-1.65-.6-2.48s-.45-1.65-.69-2.48-.49-1.65-.75-2.46-.53-1.63-.81-2.42l-1-2.81,6.07-1.69Z"/><path d="M47.16,27.92c.51,2.92.88,5.84,1.17,8.75s.48,5.82.62,8.72l.12,2.39-4.61.34-.28-2.38c-.33-2.82-.72-5.63-1.18-8.41s-1-5.54-1.68-8.24L40.6,26.2l6-1.22Z"/></svg>